SplineFontDB: 3.0
FontName: NotCourierSans
FullName: NotCourier
FamilyName: NotCourierSans
Weight: Regular
Copyright: NotCourier was designed by OSP (Ludivine Loiseau), in July 2008. It is based on Nimbus Mono, copyright (URW)++,Copyright 1999 by (URW)++ Design & Development; Cyrillic glyphs added by Valek Filippov (C) 2001-2005
UComments: "NotCourierSans contains 2 ornamental glyphs encoded in the private use characters:+AAoA-- in U E000, the OSP frog mascot is accessible through the Ornament Open Type feature under the OSP_frog ligature (source glyph name : O S P - to access it from the keyboard +ACIA-OSP+ACIA)+AAoA-- in U E001, the 75 ligature added during an OSP workshop in Le 75, +AMkA-cole Sup+AOkA-rieure des Arts de l+IBkA-image (www.le75.be), is accessible through the Ornament Open Type feature under the OSP_workshop75 ligature (source glyph name : seven five - to access it from the keyboard +ACIA-75+ACIA)+AAoA	" 

StartChar: exclam
Encoding: 1 33 1
Width: 600
Flags: MW
HStem: -15 100<278 306 293 306> 209 409<292.5 306>
VStem: 261 77<563 563>
LayerCount: 2
Fore
SplineSet
338 563 m 2
 320 237 l 2
 319 217 313 209 299 209 c 0
 286 209 280 218 279 237 c 2
 261 563 l 2
 260 570 260 575 260 579 c 0
 260 601 277 618 300 618 c 0
 322 618 339 601 339 579 c 0
 339 577 339 571 338 563 c 2
293 85 m 2
 306 85 l 2
 336 85 360 63 360 35 c 0
 360 7 336 -15 306 -15 c 2
 293 -15 l 2
 263 -15 240 7 240 35 c 0
 240 63 263 85 293 85 c 2
EndSplineSet
Validated: 1
EndChar

StartChar: quotedbl
Encoding: 2 34 2
Width: 600
Flags: MW
HStem: 584 20G<146 274 274 274 326 454 454 454>
LayerCount: 2
Fore
SplineSet
146 604 m 1
 274 604 l 1
 240 351 l 2
 237 326 228 315 210 315 c 0
 192 315 183 326 180 351 c 2
 146 604 l 1
326 604 m 1
 454 604 l 1
 420 351 l 2
 417 326 408 315 390 315 c 0
 372 315 363 326 360 351 c 2
 326 604 l 1
EndSplineSet
Validated: 1
EndChar

StartChar: numbersign
Encoding: 3 35 3
Width: 600
Flags: W
HStem: 189 41<110 208 119 206 249 337 119 246 381 461> 356 41<130 220 139 217 139 258 261 349 392 481> 356 291<130 262.5 139 262.5 258 258 258 262.5 250.5 349 390 395 250.5 481 390 390>
VStem: 92 396<203 216.5> 112 396<370 383.5>
LayerCount: 2
Fore
SplineSet
390 356 m 1xb0
 381 230 l 1
 461 230 l 2
 479 230 488 223 488 210 c 0
 488 196 479 189 461 189 c 2
 378 189 l 1
 362 -36 l 2
 361 -54 354 -62 341 -62 c 0
 330 -62 320 -51 321 -41 c 2
 322 -33 l 1
 337 189 l 1
 246 189 l 1
 231 -36 l 2
 229 -54 223 -62 210 -62 c 0
 199 -62 190 -53 190 -41 c 2
 190 -33 l 1
 206 189 l 1
 119 189 l 2
 101 189 92 196 92 210 c 0
 92 223 101 230 119 230 c 2
 208 230 l 1
 217 356 l 1xb0
 139 356 l 2
 121 356 112 363 112 377 c 0
 112 390 121 397 139 397 c 2
 220 397 l 1xc8
 236 622 l 2
 237 639 244 647 257 647 c 0xb0
 268 647 278 637 277 626 c 2
 276 619 l 1
 261 397 l 1
 352 397 l 1xc8
 368 622 l 2
 369 639 375 647 388 647 c 0xb0
 402 647 409 636 408 619 c 2
 392 397 l 1
 481 397 l 2
 499 397 508 390 508 377 c 0
 508 363 499 356 481 356 c 2xc8
 390 356 l 1xb0
349 356 m 1
 258 356 l 1
 249 230 l 1
 340 230 l 1
 349 356 l 1
EndSplineSet
Validated: 33
EndChar

StartChar: dollar
Encoding: 4 36 4
Width: 600
Flags: W
HStem: 538 117<294 307.5 294 332.5>
VStem: 113 41<92 108 83 171> 136 41<421 462.5 421 471> 280 41<-65 54 576 628> 446 41<169.5 216>
LayerCount: 2
Fore
SplineSet
280 576 m 1xb8
 280 628 l 2
 280 646 287 655 301 655 c 0
 314 655 321 646 321 628 c 2
 321 576 l 1
 366 572 389 562 425 534 c 1
 426 553 433 563 446 563 c 0
 460 563 466 554 466 536 c 2
 466 476 l 2
 466 458 459 449 446 449 c 0
 433 449 427 455 425 471 c 0
 420 507 363 538 302 538 c 0
 233 538 177 491 177 434 c 0xb8
 177 408 191 384 212 371 c 0
 232 359 253 353 312 342 c 0
 384 328 410 320 438 301 c 0
 469 280 487 244 487 201 c 0
 487 122 423 65 321 54 c 1
 321 -65 l 2
 321 -83 314 -92 301 -92 c 0
 287 -92 280 -83 280 -65 c 2
 280 54 l 1
 234 56 180 79 154 108 c 1
 154 92 l 2
 154 74 147 65 134 65 c 0
 120 65 113 74 113 92 c 2
 113 171 l 2
 113 189 120 198 134 198 c 0
 147 198 152 191 154 173 c 0xd8
 158 130 225 93 299 93 c 0
 384 93 446 138 446 201 c 0
 446 231 432 257 408 272 c 0
 385 285 369 290 302 303 c 0
 238 315 209 325 183 341 c 0
 154 361 136 397 136 435 c 0
 136 507 196 566 280 576 c 1xb8
EndSplineSet
Validated: 1
EndChar

StartChar: percent
Encoding: 5 37 5
Width: 600
Flags: MW
HStem: -12 38<338.5 385 338.5 395> 198 38<338 385> 363 38<214.5 260.5 214.5 271> 573 38<214 261>
VStem: 115 38<463.5 510.5 463.5 521> 239 38<88.5 136 88.5 146> 322 38<463 510.5> 446 38<88 135.5>
LayerCount: 2
Fore
SplineSet
361 236 m 0
 430 236 484 181 484 110 c 0
 484 44 428 -12 362 -12 c 0
 294 -12 239 44 239 112 c 0
 239 180 294 236 361 236 c 0
361 198 m 0
 315 198 277 160 277 112 c 0
 277 65 315 26 362 26 c 0
 408 26 446 65 446 111 c 0
 446 160 409 198 361 198 c 0
237 611 m 0
 306 611 360 556 360 486 c 0
 360 419 304 363 238 363 c 0
 170 363 115 419 115 487 c 0
 115 555 170 611 237 611 c 0
237 573 m 0
 191 573 153 534 153 487 c 0
 153 440 191 401 238 401 c 0
 283 401 322 440 322 486 c 0
 322 535 285 573 237 573 c 0
495 344 m 2
 116 222 l 2
 111 220 106 219 104 219 c 0
 96 219 87 228 87 238 c 0
 87 248 92 254 105 258 c 2
 484 380 l 2
 488 381 492 382 496 382 c 0
 505 382 513 373 513 363 c 0
 513 354 508 348 495 344 c 2
EndSplineSet
Validated: 1
EndChar

StartChar: ampersand
Encoding: 6 38 6
Width: 600
Flags: W
HStem: -16 41<221.5 266.5 221.5 273> 0 41<393 451 413 451 413 451> 208 41<439 451 439 439> 478 41<267.5 300.5>
VStem: 105 41<110.5 169.5 110.5 176.5> 166 41<386.5 419 386.5 432.5>
LayerCount: 2
Fore
SplineSet
393 0 m 1x7c
 362 48 l 1
 332 5 296 -16 250 -16 c 0xbc
 172 -16 105 57 105 142 c 0
 105 211 147 266 216 287 c 1
 171 360 166 371 166 400 c 0
 166 465 222 519 289 519 c 0
 312 519 332 513 355 499 c 1
 365 505 l 2
 371 508 377 510 381 510 c 0
 391 510 400 500 400 489 c 0
 400 480 396 475 384 468 c 2
 352 452 l 1
 331 470 312 478 289 478 c 0
 246 478 207 440 207 398 c 0
 207 375 218 350 251 298 c 2
 362 121 l 1
 382 158 398 201 408 249 c 1
 451 249 l 2
 469 249 478 242 478 229 c 0
 478 215 469 208 451 208 c 2
 439 208 l 1
 425 156 406 110 386 82 c 1
 413 41 l 1
 451 41 l 2
 469 41 478 34 478 21 c 0
 478 7 469 0 451 0 c 2
 393 0 l 1x7c
338 86 m 1
 233 251 l 1
 180 239 146 197 146 142 c 0
 146 79 194 25 249 25 c 0
 284 25 316 47 338 86 c 1
EndSplineSet
Validated: 1
EndChar

StartChar: quoteright
Encoding: 7 8217 7
Width: 600
Flags: MW
HStem: 584 20G<207 340 340 340>
LayerCount: 2
Fore
SplineSet
207 604 m 1
 340 604 l 1
 195 339 l 2
 185 320 177 314 164 314 c 0
 148 314 135 327 135 343 c 0
 135 347 136 350 137 354 c 2
 207 604 l 1
EndSplineSet
Validated: 1
EndChar

StartChar: parenleft
Encoding: 8 40 8
Width: 600
Flags: MW
VStem: 294 61<191.5 293>
LayerCount: 2
Fore
SplineSet
438 604 m 0
 449 604 458 595 458 584 c 0
 458 580 457 578 455 573 c 0
 386 451 355 347 355 240 c 0
 355 133 386 31 455 -93 c 0
 457 -98 458 -100 458 -104 c 0
 458 -115 448 -124 437 -124 c 0
 427 -124 418 -114 395 -77 c 0
 327 36 294 140 294 243 c 0
 294 343 333 460 404 570 c 0
 421 597 428 604 438 604 c 0
EndSplineSet
Validated: 1
EndChar

StartChar: parenright
Encoding: 9 41 9
Width: 600
Flags: MW
VStem: 250 61<187 288.5 187 294>
LayerCount: 2
Fore
SplineSet
168 604 m 0
 178 604 187 595 210 557 c 0
 278 445 311 340 311 237 c 0
 311 137 272 20 201 -90 c 0
 184 -117 177 -124 167 -124 c 0
 156 -124 147 -115 147 -104 c 0
 147 -100 148 -98 150 -93 c 0
 219 29 250 133 250 240 c 0
 250 348 220 448 150 573 c 0
 148 578 147 580 147 584 c 0
 147 595 157 604 168 604 c 0
EndSplineSet
Validated: 1
EndChar

StartChar: asterisk
Encoding: 10 42 10
Width: 600
Flags: MW
VStem: 279 41<438 577 438 586>
LayerCount: 2
Fore
SplineSet
279 438 m 1
 279 577 l 2
 279 595 286 604 300 604 c 0
 313 604 320 595 320 577 c 2
 320 438 l 1
 453 481 l 2
 458 483 465 484 468 484 c 0
 478 484 487 474 487 464 c 0
 487 453 481 447 466 442 c 2
 333 400 l 1
 414 288 l 2
 418 281 421 275 421 270 c 0
 421 259 412 250 401 250 c 0
 393 250 389 253 381 264 c 2
 299 376 l 1
 218 264 l 2
 210 254 205 250 197 250 c 0
 186 250 177 259 177 271 c 0
 177 276 178 278 185 288 c 2
 266 400 l 1
 133 442 l 1
 129 443 l 2
 121 444 113 453 113 463 c 0
 113 474 122 483 133 483 c 0
 137 483 139 482 146 480 c 2
 279 438 l 1
EndSplineSet
Validated: 1
EndChar

StartChar: plus
Encoding: 11 43 11
Width: 600
Flags: MW
HStem: 261 41<90 279 99 279 320 500>
VStem: 279 41<59 261 302 503>
LayerCount: 2
Fore
SplineSet
320 261 m 1
 320 59 l 2
 320 41 313 32 300 32 c 0
 286 32 279 41 279 59 c 2
 279 261 l 1
 99 261 l 2
 81 261 72 268 72 282 c 0
 72 295 81 302 99 302 c 2
 279 302 l 1
 279 503 l 2
 279 521 286 530 300 530 c 0
 313 530 320 521 320 503 c 2
 320 302 l 1
 500 302 l 2
 519 302 528 295 528 282 c 0
 528 268 519 261 500 261 c 2
 320 261 l 1
EndSplineSet
Validated: 1
EndChar

StartChar: comma
Encoding: 12 44 12
Width: 600
Flags: W
LayerCount: 2
Fore
SplineSet
207 145 m 1
 340 145 l 1
 195 -120 l 2
 185 -139 177 -145 164 -145 c 0
 148 -145 135 -132 135 -116 c 0
 135 -112 136 -109 137 -105 c 2
 207 145 l 1
EndSplineSet
Validated: 1
EndChar

StartChar: hyphen
Encoding: 13 45 13
Width: 600
Flags: MW
HStem: 258 41<90 501 99 501>
VStem: 72 456<272 285.5>
LayerCount: 2
Fore
SplineSet
501 258 m 2
 99 258 l 2
 81 258 72 265 72 279 c 0
 72 292 81 299 99 299 c 2
 501 299 l 2
 519 299 528 292 528 279 c 0
 528 265 519 258 501 258 c 2
EndSplineSet
Validated: 1
EndChar

StartChar: period
Encoding: 14 46 14
Width: 600
Flags: MW
HStem: -15 131<275.5 305 295 305>
VStem: 226 148<32.5 69.5>
LayerCount: 2
Fore
SplineSet
295 116 m 2
 305 116 l 2
 344 116 374 88 374 51 c 0
 374 13 344 -15 305 -15 c 2
 295 -15 l 2
 256 -15 226 14 226 51 c 0
 226 88 256 116 295 116 c 2
EndSplineSet
Validated: 1
EndChar

StartChar: slash
Encoding: 15 47 15
Width: 600
Flags: W
LayerCount: 2
Fore
SplineSet
482 633 m 2
 155 -63 l 2
 148 -77 143 -81 133 -81 c 0
 123 -81 113 -72 113 -62 c 0
 113 -58 114 -53 118 -46 c 2
 445 650 l 2
 452 664 457 668 467 668 c 0
 477 668 487 659 487 649 c 0
 487 645 486 641 482 633 c 2
EndSplineSet
Validated: 1
EndChar

StartChar: zero
Encoding: 16 48 16
Width: 600
Flags: MW
HStem: -15 41<279 321 279 355.5> 577 41<279 321>
VStem: 113 41<251 257 257 346> 446 41<257 346 346 351>
LayerCount: 2
Fore
SplineSet
487 351 m 2
 487 251 l 2
 487 93 411 -15 300 -15 c 0
 189 -15 113 93 113 251 c 2
 113 351 l 2
 113 510 189 618 300 618 c 0
 411 618 487 510 487 351 c 2
154 346 m 2
 154 257 l 2
 154 193 172 125 202 79 c 0
 224 45 258 26 300 26 c 0
 342 26 376 45 398 79 c 0
 428 125 446 193 446 257 c 2
 446 346 l 2
 446 410 428 478 398 524 c 0
 376 558 342 577 300 577 c 0
 258 577 224 558 202 524 c 0
 172 478 154 410 154 346 c 2
EndSplineSet
Validated: 1
EndChar

StartChar: one
Encoding: 17 49 17
Width: 600
Flags: HMW
HStem: 0 41<132 280 141 280 321 460>
VStem: 280 41<41 557 557 557>
LayerCount: 2
Fore
SplineSet
280 0 m 1
 280 557 l 1
 148 515 l 2
 144 514 136 512 134 512 c 0
 125 512 115 522 115 532 c 0
 115 543 120 549 136 554 c 2
 321 612 l 1
 321 0 l 1
 280 0 l 1
EndSplineSet
Validated: 1
EndChar

StartChar: two
Encoding: 18 50 18
Width: 600
Flags: HMW
HStem: 0 41<123 437 123 478 84 437> 577 41<259.5 328>
VStem: 84 39<41 41 41 44 41 60 41 60> 433 41<424.5 481.5>
LayerCount: 2
Fore
SplineSet
478 0 m 1
 84 0 l 1
 84 60 l 1
 320 282 l 2
 414 374 433 402 433 447 c 0
 433 516 366 577 290 577 c 0
 222 577 160 532 144 472 c 0
 140 458 134 452 123 452 c 0
 113 452 104 461 104 470 c 0
 104 488 117 518 136 542 c 0
 173 590 229 618 290 618 c 0
 388 618 474 537 474 446 c 0
 474 387 454 358 330 237 c 0
 243 151 180 92 123 44 c 1
 123 41 l 1
 478 41 l 1
 478 0 l 1
EndSplineSet
Validated: 1
EndChar

StartChar: three
Encoding: 19 51 19
Width: 600
Flags: W
HStem: -15 41<265.5 336.5 263 347.5> 312 41<270.5 304 270.5 327.5> 577 41<275 338.5>
VStem: 436 41<442 495.5> 458 41<129.5 202 117.5 207>
LayerCount: 2
Fore
SplineSet
374 328 m 1xf0
 452 296 499 236 499 168 c 0
 499 67 405 -15 290 -15 c 0
 241 -15 194 -2 142 26 c 0
 109 43 96 56 96 69 c 0
 96 79 105 88 115 88 c 0
 121 88 125 86 132 81 c 0
 179 45 235 26 291 26 c 0
 382 26 458 91 458 168 c 0xe8
 458 246 376 312 279 312 c 0
 261 312 252 319 252 333 c 0
 252 346 262 353 279 353 c 0
 329 353 345 354 366 364 c 0
 408 382 436 421 436 463 c 0
 436 528 377 577 300 577 c 0
 244 577 195 557 166 523 c 0
 156 511 153 509 145 509 c 0
 134 509 125 518 125 528 c 0
 125 538 139 556 160 572 c 0
 199 602 249 618 301 618 c 0
 401 618 477 551 477 464 c 0
 477 407 439 355 379 330 c 1
 378 330 376 329 374 328 c 1xf0
EndSplineSet
Validated: 1
EndChar

StartChar: four
Encoding: 20 52 20
Width: 600
Flags: HMW
HStem: 0 41<291 376 300 376 417 451> 169 41<144 376 144 376 105 376 417 451> 563 41<352 376 352 352>
VStem: 376 41<41 169 41 169 210 563 563 563>
LayerCount: 2
Fore
SplineSet
417 0 m 1
 376 0 l 1
 376 169 l 1
 105 169 l 1
 105 216 l 1
 333 604 l 1
 417 604 l 1
 417 210 l 1
 451 210 l 2
 469 210 478 203 478 189 c 0
 478 176 469 169 451 169 c 2
 417 169 l 1
 417 0 l 1
376 210 m 1
 376 563 l 1
 352 563 l 1
 144 210 l 1
 376 210 l 1
EndSplineSet
Validated: 1
EndChar

StartChar: five
Encoding: 21 53 21
Width: 600
Flags: W
HStem: -15 41<268.5 342 264 354.5> 354 41<300 358> 563 41<190 190 190 431>
VStem: 149 41<365 563 365 604> 149 310<577 590.5 577 604 577 604> 458 41<150.5 247.5>
LayerCount: 2
Fore
SplineSet
190 563 m 1xf4
 190 365 l 1
 241 386 278 395 322 395 c 0
 424 395 499 313 499 201 c 0
 499 75 414 -15 295 -15 c 0
 242 -15 192 1 142 34 c 0
 110 55 96 70 96 82 c 0
 96 93 105 102 116 102 c 0
 122 102 126 100 133 93 c 0
 181 49 235 26 293 26 c 0
 391 26 458 98 458 203 c 0
 458 292 400 354 316 354 c 0
 276 354 232 343 190 321 c 0xf4
 178 315 173 313 168 313 c 0
 157 313 149 322 149 335 c 2
 149 604 l 1
 431 604 l 2
 450 604 459 597 459 584 c 0xe8
 459 570 450 563 431 563 c 2
 190 563 l 1xf4
EndSplineSet
Validated: 1
EndChar

StartChar: six
Encoding: 22 54 22
Width: 600
Flags: MW
HStem: -15 41<304 375 304 385.5> 323 41<323.5 377> 577 41<395.5 433.5>
VStem: 136 39<280.5 317 280.5 340> 469 41<135 217.5>
LayerCount: 2
Fore
SplineSet
177 242 m 1
 218 324 272 364 343 364 c 0
 434 364 510 280 510 178 c 0
 510 70 434 -15 337 -15 c 0
 219 -15 136 107 136 282 c 0
 136 398 171 484 245 547 c 0
 298 593 363 618 428 618 c 0
 471 618 507 602 507 583 c 0
 507 572 499 563 488 563 c 0
 483 563 479 564 471 569 c 0
 461 574 443 577 424 577 c 0
 348 577 269 530 220 455 c 0
 192 411 175 349 175 285 c 0
 175 276 176 261 177 242 c 1
183 188 m 1
 189 165 189 164 192 155 c 0
 219 71 270 26 338 26 c 0
 412 26 469 92 469 178 c 0
 469 257 412 323 342 323 c 0
 305 323 265 302 233 266 c 0
 218 250 207 232 183 188 c 1
EndSplineSet
Validated: 1
EndChar

StartChar: seven
Encoding: 23 55 23
Width: 600
Flags: W
HStem: -1 21G<289.5 300> 563 41<105 437>
VStem: 275 40<-0.993435 42.2883> 437 41<522.556 545 545 563>
LayerCount: 2
Fore
SplineSet
105 604 m 1
 478 604 l 1
 478 539 l 1
 315 20 l 2
 310 4 305 -1 295 -1 c 0
 284 -1 275 8 275 19 c 0
 275 22 276 28 277 32 c 2
 437 545 l 1
 437 563 l 1
 104 563 l 1
 105 604 l 1
EndSplineSet
Validated: 1
EndChar

StartChar: eight
Encoding: 24 56 24
Width: 600
Flags: W
HStem: -15 41<259.5 340 259.5 351.5> 293 40<262 337.5 262 341.5> 577 41<262 338>
VStem: 113 41<123.5 194> 123 41<422.5 486 418 498> 436 41<422.5 485.5> 446 41<123 194 112.5 198>
LayerCount: 2
Fore
SplineSet
375 313 m 1xec
 448 280 487 227 487 161 c 0
 487 64 403 -15 300 -15 c 0
 197 -15 113 64 113 161 c 0xf2
 113 227 152 279 225 313 c 1
 155 349 123 392 123 453 c 0
 123 543 204 618 300 618 c 0
 396 618 477 543 477 453 c 0
 477 392 446 349 375 313 c 1xec
300 577 m 0
 224 577 164 521 164 451 c 0
 164 385 224 333 300 333 c 0
 375 333 436 385 436 450 c 0
 436 521 376 577 300 577 c 0
300 293 m 0
 218 293 154 235 154 161 c 0
 154 86 219 26 300 26 c 0
 380 26 446 86 446 160 c 0xf2
 446 236 383 293 300 293 c 0
EndSplineSet
Validated: 1
EndChar

StartChar: nine
Encoding: 25 57 25
Width: 600
Flags: MW
HStem: -15 41<212.5 250.5> 239 41<269 322.5 269 338.5> 577 41<271 342>
VStem: 136 41<385.5 468 385.5 479> 471 39<286 322.5>
LayerCount: 2
Fore
SplineSet
469 361 m 1
 428 279 374 239 303 239 c 0
 212 239 136 323 136 425 c 0
 136 533 212 618 309 618 c 0
 427 618 510 496 510 321 c 0
 510 205 475 119 401 56 c 0
 348 10 283 -15 218 -15 c 0
 175 -15 139 1 139 20 c 0
 139 31 147 40 158 40 c 0
 163 40 167 39 175 34 c 0
 185 29 203 26 222 26 c 0
 298 26 377 73 426 148 c 0
 454 192 471 254 471 318 c 0
 471 327 470 342 469 361 c 1
463 415 m 1
 457 438 457 439 454 448 c 0
 427 532 376 577 308 577 c 0
 234 577 177 511 177 425 c 0
 177 346 234 280 304 280 c 0
 341 280 381 301 413 337 c 0
 428 353 439 371 463 415 c 1
EndSplineSet
Validated: 1
EndChar

StartChar: colon
Encoding: 26 58 26
Width: 600
Flags: MW
HStem: -15 131<275.5 305 295 305> 285 132<275.5 305 295 305>
VStem: 226 148<32.5 69.5 332.5 369.5>
LayerCount: 2
Fore
SplineSet
295 116 m 2
 305 116 l 2
 344 116 374 88 374 51 c 0
 374 13 344 -15 305 -15 c 2
 295 -15 l 2
 256 -15 226 14 226 51 c 0
 226 88 256 116 295 116 c 2
295 417 m 2
 305 417 l 2
 344 417 374 388 374 351 c 0
 374 314 344 285 305 285 c 2
 295 285 l 2
 256 285 226 314 226 351 c 0
 226 388 256 417 295 417 c 2
EndSplineSet
Validated: 1
EndChar

StartChar: semicolon
Encoding: 27 59 27
Width: 600
Flags: MW
HStem: 285 132<251.5 281 271 281>
VStem: 202 148<332.5 369.5>
LayerCount: 2
Fore
SplineSet
211 145 m 1
 344 145 l 1
 199 -120 l 2
 189 -139 181 -145 168 -145 c 0
 152 -145 139 -132 139 -116 c 0
 139 -112 140 -109 141 -105 c 2
 211 145 l 1
271 417 m 2
 281 417 l 2
 320 417 350 388 350 351 c 0
 350 314 320 285 281 285 c 2
 271 285 l 2
 232 285 202 314 202 351 c 0
 202 388 232 417 271 417 c 2
EndSplineSet
Validated: 1
EndChar

StartChar: less
Encoding: 28 60 28
Width: 600
Flags: W
LayerCount: 2
Fore
SplineSet
72 281 m 1
 490 513 l 2
 495 516 499 518 502 518 c 0
 508 518 514 514 518 508 c 1
 519 505 l 1
 521 502 522 499 522 496 c 0
 522 488 518 483 509 478 c 2
 154 281 l 1
 509 84 l 2
 518 79 522 73 522 67 c 0
 522 64 521 60 519 57 c 2
 517 54 l 2
 514 48 508 44 502 44 c 0
 499 44 494 46 489 49 c 2
 72 281 l 1
EndSplineSet
Validated: 1
EndChar

StartChar: equal
Encoding: 29 61 29
Width: 600
Flags: MW
HStem: 190 41<69 522 78 522> 334 41<69 522 78 522>
VStem: 51 498<204 217.5 348 361.5>
LayerCount: 2
Fore
SplineSet
522 334 m 2
 78 334 l 2
 60 334 51 341 51 355 c 0
 51 368 60 375 78 375 c 2
 522 375 l 2
 540 375 549 368 549 355 c 0
 549 341 540 334 522 334 c 2
522 190 m 2
 78 190 l 2
 60 190 51 197 51 211 c 0
 51 224 60 231 78 231 c 2
 522 231 l 2
 540 231 549 224 549 211 c 0
 549 197 540 190 522 190 c 2
EndSplineSet
Validated: 1
EndChar

StartChar: greater
Encoding: 30 62 30
Width: 600
Flags: W
LayerCount: 2
Fore
SplineSet
528 281 m 1
 110 49 l 2
 105 46 101 44 98 44 c 0
 92 44 85 48 82 54 c 1
 81 57 l 1
 79 60 78 63 78 67 c 0
 78 74 82 79 91 84 c 2
 446 281 l 1
 91 478 l 2
 82 483 78 489 78 496 c 0
 78 499 79 502 81 505 c 2
 83 508 l 2
 86 514 92 518 98 518 c 0
 101 518 106 516 111 513 c 2
 528 281 l 1
EndSplineSet
Validated: 1
EndChar

StartChar: question
Encoding: 31 63 31
Width: 600
Flags: MW
HStem: -15 100<270 314 287 314> 536 41<283.5 345.5>
VStem: 134 41<461 502> 281 41<206 247> 446 41<394.5 456>
LayerCount: 2
Fore
SplineSet
322 247 m 1
 322 206 l 2
 322 188 315 179 302 179 c 0
 288 179 281 188 281 206 c 2
 281 274 l 1
 397 323 446 366 446 423 c 0
 446 489 387 536 304 536 c 0
 259 536 227 528 175 502 c 1
 175 461 l 2
 175 443 168 434 155 434 c 0
 141 434 134 443 134 461 c 2
 134 529 l 1
 143 532 155 538 163 541 c 0
 226 569 258 577 309 577 c 0
 415 577 487 515 487 423 c 0
 487 349 447 306 322 247 c 1
287 85 m 2
 314 85 l 2
 348 85 371 65 371 35 c 0
 371 6 348 -15 314 -15 c 2
 287 -15 l 2
 253 -15 230 5 230 35 c 0
 230 65 253 85 287 85 c 2
EndSplineSet
Validated: 1
EndChar

StartChar: at
Encoding: 32 64 32
Width: 600
Flags: MW
HStem: -62 41<280 326.5 280 336> 147 41<352 383> 376 40<379 418> 583 41<255.5 335>
VStem: 105 41<198 358> 242 41<248 303 248 314> 418 41<145 463 150 463 192 376 376 376 416 463 186 498>
LayerCount: 2
Fore
SplineSet
418 145 m 1
 418 150 l 1
 398 148 388 147 378 147 c 0
 300 147 242 201 242 272 c 0
 242 356 316 417 418 416 c 1
 418 463 l 2
 418 533 369 583 301 583 c 0
 210 583 146 490 146 358 c 2
 146 198 l 2
 146 138 163 81 193 36 c 0
 220 -3 255 -21 305 -21 c 0
 348 -21 389 -9 410 9 c 0
 421 19 422 20 429 20 c 0
 440 20 449 11 449 1 c 0
 449 -30 373 -62 299 -62 c 0
 239 -62 195 -38 159 13 c 0
 123 65 105 127 105 198 c 2
 105 361 l 2
 105 513 187 624 300 624 c 0
 391 624 459 555 459 463 c 2
 459 186 l 1
 471 184 478 177 478 166 c 0
 478 152 469 145 451 145 c 2
 418 145 l 1
418 192 m 1
 418 376 l 1
 340 376 283 333 283 273 c 0
 283 223 323 188 381 188 c 0
 392 188 406 189 418 192 c 1
EndSplineSet
Validated: 33
EndChar

StartChar: A
Encoding: 33 65 33
Width: 600
Flags: HMW
HStem: 0 41<27 67 36 67 108 187 408 484 527 564> 188 41<178 413 178 428 162 413> 522 41<117 330 126 246 286 286 286 301>
VStem: 9 205<14 27.5> 381 210<14 27.5>
LayerCount: 2
Fore
SplineSet
52 0 m 1
 262 563 l 1
 330 563 l 1
 542 0 l 1
 499 0 l 1
 428 188 l 1
 162 188 l 1
 93 0 l 1
 52 0 l 1
413 229 m 1
 301 522 l 1
 286 522 l 1
 178 229 l 1
 413 229 l 1
EndSplineSet
Validated: 1
EndChar

StartChar: B
Encoding: 34 66 34
Width: 600
Flags: HMW
HStem: 0 41<61 124 70 124 165 373 373 376> 272 41<165 312 312 314 165 312> 522 41<61 328 70 124 165 165 165 328 328 329>
VStem: 124 41<41 272 313 522> 458 41<392.5 448> 500 41<122 171>
LayerCount: 2
Fore
SplineSet
124 0 m 1
 124 563 l 1
 328 563 l 2
 425 563 499 500 499 418 c 0
 499 367 473 330 414 298 c 1
 498 268 541 220 541 153 c 0
 541 69 467 0 376 0 c 2
 124 0 l 1
165 313 m 1
 312 313 l 2
 397 313 458 357 458 419 c 0
 458 477 402 522 329 522 c 2
 165 522 l 1
 165 313 l 1
165 41 m 1
 373 41 l 2
 444 41 500 91 500 153 c 0
 500 189 478 224 441 246 c 0
 409 265 375 272 314 272 c 2
 165 272 l 1
 165 41 l 1
EndSplineSet
Validated: 1
EndChar

StartChar: C
Encoding: 35 67 35
Width: 600
Flags: HMW
HStem: -16 41<263 354> 535 41<271.5 338 271.5 349.5>
VStem: 63 41<242 248 248 319> 478 41<507 536>
LayerCount: 2
Fore
SplineSet
519 424 m 1
 519 406 512 397 498 397 c 0
 486 397 479 405 478 421 c 0
 474 482 394 535 305 535 c 0
 194 535 104 438 104 319 c 2
 104 248 l 2
 104 128 204 25 322 25 c 0
 391 25 442 51 496 115 c 0
 503 123 507 125 514 125 c 0
 526 125 534 117 534 106 c 0
 534 96 522 79 496 55 c 0
 447 9 386 -16 322 -16 c 0
 186 -16 63 107 63 242 c 2
 63 325 l 2
 63 386 91 456 134 502 c 0
 179 550 238 576 305 576 c 0
 371 576 493 545 519 424 c 1
EndSplineSet
Validated: 1
EndChar

StartChar: D
Encoding: 36 68 36
Width: 600
Flags: HMW
HStem: 0 41<61 104 70 104 145 290> 522 41<61 290 70 104 145 145 145 288>
VStem: 104 41<41 522> 479 41<245 254 254 310>
LayerCount: 2
Fore
SplineSet
291 0 m 2
 104 0 l 1
 104 563 l 1
 290 563 l 2
 291 563 293 563 294 563 c 0
 421 561 520 450 520 310 c 2
 520 254 l 2
 520 112 420 0 291 0 c 2
145 41 m 1
 295 41 l 2
 391 41 479 139 479 245 c 2
 479 318 l 2
 479 371 454 431 414 472 c 0
 379 507 342 522 288 522 c 2
 145 522 l 1
 145 41 l 1
EndSplineSet
Validated: 1
EndChar

StartChar: E
Encoding: 37 69 37
Width: 600
Flags: W
HStem: 0 41<165 520> 272 41<165 351> 522 41<165 499>
VStem: 124 41<41 272 313 522>
LayerCount: 2
Fore
SplineSet
499 522 m 1
 165 522 l 1
 165 313 l 1
 351 313 l 1
 351 272 l 1
 165 272 l 1
 165 41 l 1
 520 41 l 1
 520 0 l 1
 124 0 l 1
 124 563 l 1
 499 563 l 1
 499 522 l 1
EndSplineSet
Validated: 1
EndChar

StartChar: F
Encoding: 38 70 38
Width: 600
Flags: HMW
HStem: 0 41<61 124 70 124 165 303> 272 41<165 310 165 310> 522 41<61 520 70 124 165 165 165 479>
VStem: 124 41<41 272 313 522> 310 41<227 272 272 272 313 358> 479 41<424 522 522 522>
LayerCount: 2
Fore
SplineSet
520 522 m 1
 165 522 l 1
 165 313 l 1
 352 313 l 1
 352 272 l 1
 165 272 l 1
 165 0 l 1
 124 0 l 1
 124 563 l 1
 520 563 l 1
 520 522 l 1
EndSplineSet
Validated: 1
EndChar

StartChar: G
Encoding: 39 71 39
Width: 600
Flags: HMW
HStem: -16 41<264 362 264 364> 209 41<331 534 340 479 520 534 520 520> 418 21G<493.5 506.5> 535 41<287 346 280 359.5>
VStem: 63 41<244 317> 479 41<59 209 36 209 522 536>
LayerCount: 2
Fore
SplineSet
479 209 m 1
 340 209 l 1
 340 250 l 1
 520 250 l 1
 520 36 l 1
 461 2 395 -16 333 -16 c 0
 169 -16 63 86 63 244 c 2
 63 318 l 2
 63 389 94 463 144 511 c 0
 189 553 247 576 313 576 c 0
 379 576 500 554 520 445 c 1
 520 427 513 418 500 418 c 0
 487 418 481 426 480 443 c 0
 476 494 404 535 315 535 c 0
 259 535 214 518 176 481 c 0
 132 440 104 376 104 317 c 2
 104 244 l 2
 104 108 192 25 336 25 c 0
 388 25 423 33 479 59 c 1
 479 209 l 1
EndSplineSet
Validated: 1
EndChar

StartChar: H
Encoding: 40 72 40
Width: 600
Flags: HMW
HStem: 0 41<72 126 81 126 167 221 383 437 478 524> 272 41<167 437 167 437> 522 41<92 221 101 126 167 167 167 221 383 437 478 478 478 503>
VStem: 126 41<41 272 313 522> 437 41<41 272 272 272 313 522 41 522>
LayerCount: 2
Fore
SplineSet
167 563 m 1
 167 313 l 1
 437 313 l 1
 437 563 l 1
 478 563 l 1
 478 0 l 1
 437 0 l 1
 437 272 l 1
 167 272 l 1
 167 0 l 1
 126 0 l 1
 126 563 l 1
 167 563 l 1
EndSplineSet
Validated: 1
EndChar

StartChar: I
Encoding: 41 73 41
Width: 600
Flags: HMW
HStem: 0 41<131 279 140 279 320 459> 522 41<131 459 140 279 320 459 320 320>
VStem: 279 41<41 522 41 522>
LayerCount: 2
Fore
SplineSet
279 563 m 1
 320 563 l 1
 320 0 l 1
 279 0 l 1
 279 563 l 1
EndSplineSet
Validated: 1
EndChar

StartChar: J
Encoding: 42 74 42
Width: 600
Flags: HMW
HStem: -16 41<248 313.5 248 323.5> 522 41<251 556 260 419 460 556 460 460>
VStem: 84 41<93 223 93 223 93 232> 419 41<165 522>
LayerCount: 2
Fore
SplineSet
125 93 m 1
 176 47 223 25 273 25 c 0
 354 25 419 87 419 165 c 2
 419 563 l 1
 460 563 l 1
 460 165 l 2
 460 66 375 -16 272 -16 c 0
 208 -16 156 9 84 74 c 1
 125 93 l 1
EndSplineSet
Validated: 1
EndChar

StartChar: K
Encoding: 43 75 43
Width: 600
Flags: HMW
HStem: 0 41<61 124 70 124 165 240 489 545> 522 41<61 240 70 124 165 165 165 240 400 445 502 502 502 518>
VStem: 124 41<41 221 273 522> 372 174<536 549.5>
LayerCount: 2
Fore
SplineSet
506 0 m 1
 458 0 l 1
 385 203 341 263 246 294 c 1
 165 221 l 1
 165 0 l 1
 124 0 l 1
 124 563 l 1
 165 563 l 1
 165 273 l 1
 491 563 l 1
 548 563 l 1
 280 324 l 1
 377 284 412 242 506 0 c 1
EndSplineSet
Validated: 1
EndChar

StartChar: L
Encoding: 44 76 44
Width: 600
Flags: W
HStem: 0 41<227 541> 543 20G<186 227>
VStem: 186 41<41 563>
LayerCount: 2
Fore
SplineSet
541 41 m 1
 541 0 l 1
 186 0 l 1
 186 563 l 1
 227 563 l 1
 227 41 l 1
 541 41 l 1
EndSplineSet
Validated: 1
EndChar

StartChar: M
Encoding: 45 77 45
Width: 600
Flags: HMW
HStem: 0 41<29 72 38 72 113 187 417 491 532 566> 522 41<38 146 47 72 113 121 113 113 483 483 483 491 532 532 532 557>
VStem: 72 41<41 522 41 522> 491 41<41 522 41 522>
LayerCount: 2
Fore
SplineSet
532 0 m 1
 491 0 l 1
 491 522 l 1
 483 522 l 1
 326 169 l 1
 280 169 l 1
 121 522 l 1
 113 522 l 1
 113 0 l 1
 72 0 l 1
 72 563 l 1
 146 563 l 1
 303 215 l 1
 457 563 l 1
 532 563 l 1
 532 0 l 1
EndSplineSet
Validated: 1
EndChar

StartChar: N
Encoding: 46 78 46
Width: 600
Flags: HMW
HStem: 0 41<60 103 69 103 144 219> 522 41<40 155 49 103 386 460 501 501 501 535>
VStem: 103 41<41 504 41 522 41 522> 460 41<59 522>
LayerCount: 2
Fore
SplineSet
103 0 m 1
 103 563 l 1
 155 563 l 1
 460 59 l 1
 460 563 l 1
 501 563 l 1
 501 0 l 1
 449 0 l 1
 144 504 l 1
 144 0 l 1
 103 0 l 1
EndSplineSet
Validated: 1
EndChar

StartChar: O
Encoding: 47 79 47
Width: 600
Flags: MW
HStem: -16 41<243 356.5 243 368.5> 535 41<242.5 358>
VStem: 51 41<210 350 210 362.5> 508 41<208.5 349>
LayerCount: 2
Fore
SplineSet
300 576 m 0
 441 576 549 446 549 276 c 0
 549 115 437 -16 300 -16 c 0
 161 -16 51 115 51 280 c 0
 51 445 161 576 300 576 c 0
300 535 m 0
 185 535 92 420 92 280 c 0
 92 140 186 25 300 25 c 0
 413 25 508 140 508 277 c 0
 508 421 416 535 300 535 c 0
EndSplineSet
Validated: 1
EndChar

StartChar: P
Encoding: 48 80 48
Width: 600
Flags: HMW
HStem: 0 41<61 124 70 124 165 303> 231 41<165 299 165 296> 522 41<61 310 70 124 165 165 165 310 310 314>
VStem: 124 41<41 231 272 522> 458 41<363.5 432>
LayerCount: 2
Fore
SplineSet
124 0 m 1
 124 563 l 1
 310 563 l 2
 416 563 499 491 499 398 c 0
 499 305 410 231 296 231 c 2
 165 231 l 1
 165 0 l 1
 124 0 l 1
165 272 m 1
 299 272 l 2
 386 272 458 329 458 398 c 0
 458 466 393 522 314 522 c 2
 165 522 l 1
 165 272 l 1
EndSplineSet
Validated: 1
EndChar

StartChar: Q
Encoding: 49 81 49
Width: 600
Flags: W
HStem: -115 41<438.5 455.5 438.5 463> -89 41<307.5 330.5> 535 41<242.5 358>
VStem: 51 41<210 350 210 362.5> 508 41<208.5 349>
LayerCount: 2
Fore
SplineSet
305 -16 m 1x78
 251 -56 l 1
 281 -50 297 -48 318 -48 c 0x78
 347 -48 370 -52 400 -63 c 0
 424 -72 432 -74 445 -74 c 0
 466 -74 483 -67 514 -47 c 0
 518 -44 522 -43 526 -43 c 0
 537 -43 546 -52 546 -64 c 0
 546 -84 484 -115 442 -115 c 0xb8
 426 -115 415 -112 386 -102 c 0
 359 -92 343 -89 318 -89 c 0
 288 -89 221 -100 178 -112 c 0
 174 -113 171 -114 168 -114 c 0
 157 -114 148 -105 148 -93 c 0
 148 -86 152 -80 159 -75 c 2
 249 -10 l 1
 135 15 51 139 51 280 c 0
 51 445 161 576 300 576 c 0
 439 576 549 445 549 280 c 0
 549 116 443 -12 305 -16 c 1x78
300 535 m 0
 185 535 92 420 92 280 c 0
 92 140 186 25 300 25 c 0
 413 25 508 140 508 277 c 0
 508 421 416 535 300 535 c 0
EndSplineSet
Validated: 1
EndChar

StartChar: R
Encoding: 50 82 50
Width: 600
Flags: HMW
HStem: 0 41<61 124 70 124 165 240 531 562> 251 41<165 279 165 279 279 297> 522 41<61 318 70 124 165 165 165 318>
VStem: 124 41<41 251 292 522> 457 41<376 438>
LayerCount: 2
Fore
SplineSet
553 0 m 1
 505 0 l 1
 417 162 373 216 297 251 c 1
 165 251 l 1
 165 0 l 1
 124 0 l 1
 124 563 l 1
 318 563 l 2
 415 563 498 491 498 407 c 0
 498 342 452 294 359 262 c 1
 422 219 454 181 553 0 c 1
165 292 m 1
 279 292 l 2
 377 292 457 344 457 408 c 0
 457 468 390 522 318 522 c 2
 165 522 l 1
 165 292 l 1
EndSplineSet
Validated: 1
EndChar

StartChar: S
Encoding: 51 83 51
Width: 600
Flags: W
HStem: -16 41<208.397 389.813> 535 41<221.272 384.264>
VStem: 92 41<89.7529 165.993> 115 44<359.966 482.714> 445 41<406.007 479.9> 464 44<87.8087 216.078>
LayerCount: 2
Fore
SplineSet
92 139 m 0xe4
 92 157 99 166 113 166 c 0
 126 166 132 158 133 142 c 0
 136 76 210 25 301 25 c 0
 394 25 464 79 464 153 c 0xe4
 464 188 447 220 419 237 c 0
 395 253 374 259 303 271 c 0
 233 283 197 295 167 317 c 0
 134 340 115 379 115 421 c 0
 115 509 194 576 299 576 c 0
 427.82 576 486 484.171 486 433 c 0
 486 415 479 406 466 406 c 0
 453 406 446 414 445 430 c 0
 441 490 380 535 302 535 c 0
 220 535 159 486 159 420 c 0xd8
 159 389 173 361 198 344 c 0
 224 327 249 319 311 309 c 0
 388 296 416 288 446 269 c 0
 485 245 508 202 508 151 c 0
 508 54 422 -16 302 -16 c 0
 190 -16 92 63.5 92 139 c 0xe4
EndSplineSet
Validated: 1
EndChar

StartChar: T
Encoding: 52 84 52
Width: 600
Flags: HMW
HStem: 0 41<166 280 175 280 321 426> 522 41<113 280 113 113 321 321 321 487>
VStem: 72 41<449 522> 280 41<41 522> 487 41<449 522 522 522>
LayerCount: 2
Fore
SplineSet
72 563 m 1
 528 563 l 1
 528 522 l 1
 321 522 l 1
 321 0 l 1
 280 0 l 1
 280 522 l 1
 72 522 l 1
 72 563 l 1
EndSplineSet
Validated: 1
EndChar

StartChar: U
Encoding: 53 85 53
Width: 600
Flags: HMW
HStem: -16 41<255.5 344 255.5 356> 522 41<58 216 67 101 142 142 142 216 384 458 499 533 499 499>
VStem: 101 41<185 522> 458 41<185 522>
LayerCount: 2
Fore
SplineSet
499 563 m 1
 499 185 l 2
 499 71 412 -16 300 -16 c 0
 187 -16 101 71 101 185 c 2
 101 563 l 1
 142 563 l 1
 142 185 l 2
 142 95 211 25 300 25 c 0
 388 25 458 95 458 185 c 2
 458 563 l 1
 499 563 l 1
EndSplineSet
Validated: 1
EndChar

StartChar: V
Encoding: 54 86 54
Width: 600
Flags: HMW
HStem: 0 41<267 299 296 299 296 324> 522 41<27 187 36 67 110 110 110 187 414 492 533 533 533 564>
VStem: 9 205<536 550> 387 204<536 549.5>
LayerCount: 2
Fore
SplineSet
549 563 m 1
 324 0 l 1
 267 0 l 1
 51 563 l 1
 94 563 l 1
 296 41 l 1
 299 41 l 1
 508 563 l 1
 549 563 l 1
EndSplineSet
Validated: 1
EndChar

StartChar: W
Encoding: 55 87 55
Width: 600
Flags: HMW
HStem: 0 21<122 122 122 185 412 412 412 476> 522 41<38 196 47 62 103 103 103 196 403 499 538 538 538 553>
VStem: 20 204<536 549.5> 376 204<536 549.5>
LayerCount: 2
Fore
SplineSet
543 563 m 1
 476 0 l 1
 412 0 l 1
 300 400 l 1
 185 0 l 1
 122 0 l 1
 57 563 l 1
 98 563 l 1
 159 46 l 1
 271 438 l 1
 333 438 l 1
 442 46 l 1
 504 563 l 1
 543 563 l 1
EndSplineSet
Validated: 1
EndChar

StartChar: X
Encoding: 56 88 56
Width: 600
Flags: W
HStem: 0 21G<52 117.373 479.549 548> 543 20G<61 128.455 468.793 536>
LayerCount: 2
Fore
SplineSet
548 0 m 1
 495 0 l 1
 298 255 l 1
 102 0 l 1
 52 0 l 1
 272 288 l 1
 61 563 l 1
 113 563 l 1
 300 321 l 1
 484 563 l 1
 536 563 l 1
 325 288 l 1
 548 0 l 1
EndSplineSet
Validated: 1
EndChar

StartChar: Y
Encoding: 57 89 57
Width: 600
Flags: HMW
HStem: 0 41<167 281 176 281 322 427> 522 41<69 189 78 102 151 151 151 189 412 452 498 498 498 522>
VStem: 51 165<536 549.5> 281 41<41 254 41 254> 384 165<536.5 549 536.5 549.5>
LayerCount: 2
Fore
SplineSet
74 563 m 1
 123 563 l 1
 303 295 l 1
 479 563 l 1
 525 563 l 1
 322 254 l 1
 322 0 l 1
 281 0 l 1
 281 254 l 1
 74 563 l 1
EndSplineSet
Validated: 1
EndChar

StartChar: Z
Encoding: 58 90 58
Width: 600
Flags: W
HStem: 0 41<142 497> 522 41<121 431>
LayerCount: 2
Fore
SplineSet
121 563 m 1
 470 563 l 1
 470 505 l 1
 142 45 l 1
 142 41 l 1
 497 41 l 1
 497 0 l 1
 103 0 l 1
 103 59 l 1
 431 519 l 1
 431 522 l 1
 121 522 l 1
 121 563 l 1
EndSplineSet
Validated: 1
EndChar

StartChar: bracketleft
Encoding: 59 91 59
Width: 600
Flags: W
HStem: -124 41<321 418 321 418> 563 41<321 321 321 418>
VStem: 280 41<-83 563 -83 604> 280 165<-110 -96.5 577 590.5>
LayerCount: 2
Fore
SplineSet
321 563 m 1xe0
 321 -83 l 1xe0
 418 -83 l 2
 436 -83 445 -90 445 -103 c 0
 445 -117 436 -124 418 -124 c 2
 280 -124 l 1
 280 604 l 1
 418 604 l 2
 436 604 445 597 445 584 c 0xd0
 445 570 436 563 418 563 c 2
 321 563 l 1xe0
EndSplineSet
Validated: 1
EndChar

StartChar: backslash
Encoding: 60 92 60
Width: 600
Flags: W
LayerCount: 2
Fore
SplineSet
155 650 m 2
 482 -46 l 2
 486 -53 487 -58 487 -62 c 0
 487 -72 477 -81 467 -81 c 0
 457 -81 452 -77 445 -63 c 2
 118 633 l 2
 114 641 113 645 113 649 c 0
 113 659 123 668 134 668 c 0
 143 668 148 664 155 650 c 2
EndSplineSet
Validated: 1
EndChar

StartChar: bracketright
Encoding: 61 93 61
Width: 600
Flags: MW
HStem: -124 41<173 279 182 279 182 320> 563 41<173 320 182 279>
VStem: 279 41<-83 563 563 563>
LayerCount: 2
Fore
SplineSet
279 -83 m 1
 279 563 l 1
 182 563 l 2
 164 563 155 570 155 583 c 0
 155 597 164 604 182 604 c 2
 320 604 l 1
 320 -124 l 1
 182 -124 l 2
 164 -124 155 -117 155 -104 c 0
 155 -90 164 -83 182 -83 c 2
 279 -83 l 1
EndSplineSet
Validated: 1
EndChar

StartChar: asciicircum
Encoding: 62 94 62
Width: 600
Flags: W
LayerCount: 2
Fore
SplineSet
300 615 m 1
 478 392 l 2
 484 385 487 379 487 374 c 0
 487 363 478 354 467 354 c 0
 459 354 454 357 447 367 c 2
 300 552 l 1
 153 367 l 2
 146 357 141 354 133 354 c 0
 122 354 113 363 113 374 c 0
 113 380 115 384 122 392 c 2
 300 615 l 1
EndSplineSet
Validated: 1
EndChar

StartChar: underscore
Encoding: 63 95 63
Width: 600
Flags: MW
HStem: -125 50<-12 612 -12 612>
VStem: -12 624<-125 -75 -125 -75>
LayerCount: 2
Fore
SplineSet
612 -75 m 1
 612 -125 l 1
 -12 -125 l 1
 -12 -75 l 1
 612 -75 l 1
EndSplineSet
Validated: 1
EndChar

StartChar: quoteleft
Encoding: 64 8216 64
Width: 600
Flags: MW
HStem: 584 20G<260 393 393 393>
LayerCount: 2
Fore
SplineSet
393 604 m 1
 463 379 l 2
 464 376 465 372 465 369 c 0
 465 355 452 343 436 343 c 0
 423 343 415 348 405 365 c 2
 260 604 l 1
 393 604 l 1
EndSplineSet
Validated: 1
EndChar

StartChar: a
Encoding: 65 97 65
Width: 600
Flags: W
HStem: -16 41<150.274 324.215> 217 41<182.204 415.923> 390 41<187.177 380.833>
VStem: 72 41<59.5967 162.396> 419 41<0 67 112 202 237 354.366>
LayerCount: 2
Fore
SplineSet
419 0 m 1
 419 67 l 1
 358 10 298 -16 228 -16 c 0
 135 -16 72 36 72 112 c 0
 72 199 158 258 283 258 c 0
 329 258 360 253 419 237 c 1
 419 308 l 2
 419 357 369 390 296 390 c 0
 260 390 232 384 154 360 c 0
 150 359 146 358 144 358 c 0
 134 358 125 367 125 378 c 0
 125 388 131 395 142 399 c 0
 197 418 262 431 299 431 c 0
 392 431 460 379 460 308 c 2
 460 0 l 1
 419 0 l 1
419 112 m 1
 419 202 l 1
 383 211 335 217 291 217 c 0
 185 217 113 174 113 111 c 0
 113 59 158 25 227 25 c 0
 298 25 352 49 419 112 c 1
EndSplineSet
Validated: 1
EndChar

StartChar: b
Encoding: 66 98 66
Width: 600
Flags: W
HStem: -16 41<241.064 400.567> 390 41<241.29 404.118> 584 20G<103 144>
VStem: 103 41<0 88 124.719 291.069 328 604> 500 41<125.366 290.931>
LayerCount: 2
Fore
SplineSet
144 0 m 1
 103 0 l 1
 103 604 l 1
 144 604 l 1
 144 328 l 1
 194 399 250 431 324 431 c 0
 446 431 541 334 541 210 c 0
 541 85 444 -16 324 -16 c 0
 251 -16 191 18 144 88 c 1
 144 0 l 1
322 390 m 0
 223 390 144 309 144 208 c 0
 144 107 223 25 322 25 c 0
 419 25 500 107 500 205 c 0
 500 309 422 390 322 390 c 0
EndSplineSet
Validated: 1
EndChar

StartChar: c
Encoding: 67 99 67
Width: 600
Flags: HMW
HStem: -16 41<256.5 342> 390 41<256 344.5 247 353>
VStem: 84 41<152.5 260 152.5 270> 470 41<376 389>
LayerCount: 2
Fore
SplineSet
511 298 m 1
 511 280 504 271 491 271 c 0
 478 271 472 278 470 295 c 0
 466 348 395 390 311 390 c 0
 201 390 125 315 125 205 c 0
 125 100 202 25 311 25 c 0
 384 25 446 49 498 97 c 0
 506 105 509 107 516 107 c 0
 526 107 535 98 535 88 c 0
 535 76 520 58 492 39 c 0
 441 4 375 -16 309 -16 c 0
 178 -16 84 76 84 204 c 0
 84 336 180 431 314 431 c 0
 375 431 490 407 511 298 c 1
EndSplineSet
Validated: 1
EndChar

StartChar: d
Encoding: 68 100 68
Width: 600
Flags: W
HStem: -16 41<200.463 363.507> 390 41<200.29 364.939> 584 20G<461 502>
VStem: 63 41<125.218 290.386> 461 41<0 89 123.583 290.814 327 604>
LayerCount: 2
Fore
SplineSet
461 0 m 1
 461 89 l 1
 414 19 354 -16 279 -16 c 0
 160 -16 63 85 63 208 c 0
 63 331 160 431 279 431 c 0
 354 431 412 398 461 327 c 1
 461 604 l 1
 502 604 l 1
 502 0 l 1
 461 0 l 1
282 390 m 0
 183 390 104 309 104 208 c 0
 104 106 183 25 283 25 c 0
 381 25 461 106 461 206 c 0
 461 310 383 390 282 390 c 0
EndSplineSet
Validated: 1
EndChar

StartChar: e
Encoding: 69 101 69
Width: 600
Flags: MW
HStem: -16 41<252 337 252 350.5> 199 41<104 478 104 520 104 478> 390 41<242.5 339 227 339.5>
VStem: 63 457<199 222 199 277.5>
LayerCount: 2
Fore
SplineSet
520 199 m 1
 104 199 l 1
 118 94 198 25 306 25 c 0
 368 25 441 47 481 79 c 0
 488 84 492 86 497 86 c 0
 507 86 516 77 516 66 c 0
 516 31 396 -16 305 -16 c 0
 170 -16 63 87 63 217 c 0
 63 338 163 431 291 431 c 0
 387 431 467 380 503 297 c 0
 517 264 520 245 520 199 c 1
104 240 m 1
 478 240 l 1
 462 331 388 390 291 390 c 0
 194 390 122 332 104 240 c 1
EndSplineSet
Validated: 1
EndChar

StartChar: f
Encoding: 70 102 70
Width: 600
Flags: HMW
HStem: 0 41<123 230 132 230 271 449> 376 41<133 230 142 230 271 460> 563 41<349 393>
VStem: 230 41<41 376 41 376 417 478>
LayerCount: 2
Fore
SplineSet
230 0 m 1
 230 376 l 1
 142 376 l 2
 124 376 115 383 115 397 c 0
 115 410 124 417 142 417 c 2
 230 417 l 1
 230 478 l 2
 230 551 294 604 384 604 c 0
 422 604 491 597 523 591 c 0
 535 588 541 581 541 571 c 0
 541 559 532 551 520 551 c 0
 518 551 518 551 470 557 c 0
 443 560 404 563 382 563 c 0
 316 563 271 528 271 478 c 2
 271 417 l 1
 460 417 l 2
 478 417 487 410 487 397 c 0
 487 383 478 376 460 376 c 2
 271 376 l 1
 271 0 l 1
 230 0 l 1
EndSplineSet
Validated: 1
EndChar

StartChar: g
Encoding: 71 103 71
Width: 600
Flags: W
HStem: -186 41<175.007 384.032> 10 41<192.804 351.682> 390 41<192.582 352.337>
VStem: 63 41<139.285 299.93> 440 41<-88.3263 -22 -22 107 138.825 301.643 334 417>
LayerCount: 2
Fore
SplineSet
440 417 m 1
 481 417 l 1
 481 -28 l 2
 481 -69 468 -100 438 -132 c 0
 403 -169 366 -186 316 -186 c 2
 202 -186 l 2
 184 -186 175 -179 175 -165 c 0
 175 -152 184 -145 202 -145 c 2
 318 -145 l 2
 386 -145 440 -90 440 -22 c 2
 440 107 l 1
 395 41 341 10 269 10 c 0
 156 10 63 105 63 221 c 0
 63 337 156 431 269 431 c 0
 342 431 395 401 440 334 c 1
 440 417 l 1
272 390 m 0
 178 390 104 315 104 221 c 0
 104 126 179 51 272 51 c 0
 365 51 440 126 440 219 c 0
 440 316 367 390 272 390 c 0
EndSplineSet
Validated: 1
EndChar

StartChar: h
Encoding: 72 104 72
Width: 600
Flags: HMW
HStem: 0 41<69.5 124 78 124 165 210 392 437 478 523> 390 41<288.5 334> 563 41<61 165 70 124>
VStem: 124 41<41 296 347 563 563 563> 437 41<41 288 288 291 41 303>
LayerCount: 2
Fore
SplineSet
165 604 m 1
 165 347 l 1
 216 408 258 431 319 431 c 0
 412 431 478 372 478 291 c 2
 478 0 l 1
 437 0 l 1
 437 288 l 2
 437 318 424 344 399 364 c 0
 376 383 354 390 314 390 c 0
 258 390 230 373 176 309 c 2
 165 296 l 1
 165 0 l 1
 124 0 l 1
 124 604 l 1
 165 604 l 1
EndSplineSet
Validated: 1
EndChar

StartChar: i
Encoding: 73 105 73
Width: 600
Flags: W
HStem: 0 21G<279 320> 376 41<134.007 279> 520 104<259 318>
VStem: 259 59<520 624> 279 41<0 376>
LayerCount: 2
Fore
SplineSet
279 0 m 1xe8
 279 376 l 1
 161 376 l 2
 143 376 134 383 134 397 c 0
 134 410 143 417 161 417 c 2
 320 417 l 1
 320 0 l 1
 279 0 l 1xe8
318 624 m 1xf0
 318 520 l 1
 259 520 l 1
 259 624 l 1
 318 624 l 1xf0
EndSplineSet
Validated: 1
EndChar

StartChar: j
Encoding: 74 106 74
Width: 600
Flags: MW
HStem: -186 41<165 302 174 302 302 303> 376 41<167 458 176 417> 520 104<355 414 355 414>
VStem: 355 59<520 624 520 624> 417 41<-28 376 376 376>
LayerCount: 2
Fore
SplineSet
417 376 m 1
 176 376 l 2
 158 376 149 383 149 397 c 0
 149 410 158 417 176 417 c 2
 458 417 l 1
 458 -28 l 2
 458 -121 394 -186 303 -186 c 2
 174 -186 l 2
 156 -186 147 -179 147 -165 c 0
 147 -152 156 -145 174 -145 c 2
 302 -145 l 2
 368 -145 417 -96 417 -28 c 2
 417 376 l 1
414 624 m 1
 414 520 l 1
 355 520 l 1
 355 624 l 1
 414 624 l 1
EndSplineSet
Validated: 1
EndChar

StartChar: k
Encoding: 75 107 75
Width: 600
Flags: HMW
HStem: 0 41<81 144 90 144 90 185 383 411 469 514> 376 41<327 466 336 358 419 419 419 466> 563 41<81 185 90 144>
VStem: 144 41<41 180 229 563 563 563>
LayerCount: 2
Fore
SplineSet
144 0 m 1
 144 604 l 1
 185 604 l 1
 185 229 l 1
 407 417 l 1
 468 417 l 1
 262 245 l 1
 510 0 l 1
 452 0 l 1
 231 219 l 1
 185 180 l 1
 185 0 l 1
 144 0 l 1
EndSplineSet
Validated: 1
EndChar

StartChar: l
Encoding: 76 108 76
Width: 600
Flags: HMW
HStem: 0 41<110 279 119 279 320 480> 563 41<153 320 162 279>
VStem: 279 41<41 563 563 563>
LayerCount: 2
Fore
SplineSet
279 0 m 1
 279 563 l 1
 162 563 l 2
 144 563 135 570 135 584 c 0
 135 597 144 604 162 604 c 2
 320 604 l 1
 320 0 l 1
 279 0 l 1
EndSplineSet
Validated: 1
EndChar

StartChar: m
Encoding: 77 109 77
Width: 600
Flags: W
HStem: 0 21G<72 112 282 322 492 532> 390 41<165.139 259.547 374.82 470.596>
VStem: 72 40<0 308 365 417> 282 40<0 308> 492 40<0 367.168>
CounterMasks: 1 38
LayerCount: 2
Fore
SplineSet
532 0 m 1
 492 0 l 1
 492 319 l 2
 492 357 461 390 426 390 c 0
 390 390 360 366 322 308 c 1
 322 0 l 1
 282 0 l 1
 282 316 l 2
 282 355 251 390 217 390 c 0
 182 390 150 365 112 308 c 1
 112 0 l 1
 72 0 l 1
 72 417 l 1
 112 417 l 1
 112 365 l 1
 146 413 175 431 217 431 c 0
 260 431 292 408 314 360 c 1
 353 410 386 431 427 431 c 0
 485 431 532 382 532 323 c 2
 532 0 l 1
EndSplineSet
Validated: 1
EndChar

StartChar: n
Encoding: 78 110 78
Width: 600
Flags: W
HStem: 0 21G<126 167 439 480> 390 41<243.051 392.668>
VStem: 126 41<0 294 348 417> 439 41<0 345.31>
LayerCount: 2
Fore
SplineSet
167 417 m 1
 167 348 l 1
 225 412 261 431 323 431 c 0
 412 431 480 372 480 295 c 2
 480 0 l 1
 439 0 l 1
 439 288 l 2
 439 318 426 343 401 364 c 0
 377 384 358 390 319 390 c 0
 281 390 252 380 224 357 c 0
 209 346 199 335 167 294 c 1
 167 0 l 1
 126 0 l 1
 126 417 l 1
 167 417 l 1
EndSplineSet
Validated: 1
EndChar

StartChar: o
Encoding: 79 111 79
Width: 600
Flags: MW
HStem: -16 41<248 351.5 248 363> 390 41<248 352.5>
VStem: 72 41<157 258.5 157 269.5> 487 41<155.5 257.5>
LayerCount: 2
Fore
SplineSet
300 431 m 0
 428 431 528 332 528 205 c 0
 528 83 426 -16 300 -16 c 0
 173 -16 72 83 72 208 c 0
 72 331 173 431 300 431 c 0
300 390 m 0
 196 390 113 309 113 208 c 0
 113 106 196 25 300 25 c 0
 403 25 487 106 487 205 c 0
 487 310 405 390 300 390 c 0
EndSplineSet
Validated: 1
EndChar

StartChar: p
Encoding: 80 112 80
Width: 600
Flags: W
HStem: 10 41<237.832 405.358> 390 41<237.682 406.229>
VStem: 103 41<-186 106 143.118 298.23 335 417> 500 41<142.518 298.611>
LayerCount: 2
Fore
SplineSet
103 -186 m 1
 103 417 l 1
 144 417 l 1
 144 335 l 1
 197 404 247 431 323 431 c 0
 447 431 541 340 541 221 c 0
 541 102 446 10 323 10 c 0
 246 10 190 40 144 106 c 1
 144 -186 l 1
 103 -186 l 1
322 390 m 0
 223 390 144 315 144 221 c 0
 144 126 223 51 322 51 c 0
 420 51 500 126 500 219 c 0
 500 316 423 390 322 390 c 0
EndSplineSet
Validated: 1
EndChar

StartChar: q
Encoding: 81 113 81
Width: 600
Flags: W
HStem: 10 41<198.198 366.68> 390 41<198.423 368.514>
VStem: 63 41<142.866 298.958> 461 41<-186 106 142.423 297.975 335 417>
LayerCount: 2
Fore
SplineSet
502 417 m 1
 502 -186 l 1
 461 -186 l 1
 461 106 l 1
 415 40 359 10 281 10 c 0
 158 10 63 102 63 221 c 0
 63 340 158 431 282 431 c 0
 359 431 414 401 461 335 c 1
 461 417 l 1
 502 417 l 1
282 390 m 0
 182 390 104 316 104 221 c 0
 104 126 182 51 282 51 c 0
 381 51 461 126 461 219 c 0
 461 316 383 390 282 390 c 0
EndSplineSet
Validated: 1
EndChar

StartChar: r
Encoding: 82 114 82
Width: 600
Flags: W
HStem: 0 21G<207 248> 386 41<374.573 487.631>
VStem: 207 41<0 262 315 417>
LayerCount: 2
Fore
SplineSet
248 417 m 1
 248 315 l 1
 341 399 390 427 441 427 c 0
 470 427 492 418 518 396 c 0
 535 382 541 374 541 365 c 0
 541 353 532 344 520 344 c 0
 513 344 511 345 504 352 c 0
 480 375 460 386 438 386 c 0
 393 386 358 363 248 262 c 1
 248 0 l 1
 207 0 l 1
 207 417 l 1
 248 417 l 1
EndSplineSet
Validated: 1
EndChar

StartChar: s
Encoding: 83 115 83
Width: 600
Flags: W
HStem: -16 41<197.423 396.857> 390 41<208.379 391.891>
VStem: 102.855 41.145<66.8508 136.975> 124 45<277.368 357.759> 452 45<68.8475 163.349>
LayerCount: 2
Fore
SplineSet
124 137 m 0xd8
 124.213 137.001 l 0
 136.094 137.001 144 127.923 144 115 c 2
 144 108 l 2xe8
 144 62 213 25 298 25 c 0
 386 25 452 64 452 117 c 0
 452 140 435 165 408 180 c 0
 382 194 355 201 300 207 c 0
 226 215 198 222 170 239 c 0
 142 257 124 287 124 318 c 0
 124 383 197 431 295 431 c 1
 352.586 431 395.667 414.047 425 392.022 c 0
 456.114 368.66 471.76 339.593 472.841 319 c 0
 472.881 318.235 472.901 317.482 472.901 316.741 c 0
 472.901 303.17 466.172 293.767 453 293 c 1
 441 293 434 300 432 316 c 0
 427 361 375 390 299 390 c 0
 225 390 169 358 169 315 c 0xd8
 169 299 180 282 201 270 c 0
 223 256 229 254 317 245 c 0
 378 238 415 227 447 206 c 0
 478 185 497 151 497 116 c 0
 497 40 414 -16 301 -16 c 0
 230.969 -16 178.481 6.5791 146 34.3906 c 0
 117.231 59.0215 104.588 87.7575 103 108.544 c 0
 102.903 109.811 102.855 111.048 102.855 112.253 c 0xe8
 102.855 126.968 110.05 136.873 124 137 c 0xd8
EndSplineSet
Validated: 1
EndChar

StartChar: t
Encoding: 84 116 84
Width: 600
Flags: HMW
HStem: -16 41<263.5 326 263.5 342.5> 376 41<61.5 145 71 145 186 406>
VStem: 145 41<107 109 109 376 417 536>
LayerCount: 2
Fore
SplineSet
186 417 m 1
 406 417 l 2
 424 417 433 410 433 397 c 0
 433 383 424 376 406 376 c 2
 186 376 l 1
 186 109 l 2
 186 58 229 25 298 25 c 0
 354 25 425 42 464 65 c 0
 472 70 475 71 480 71 c 0
 490 71 499 61 499 51 c 0
 499 22 385 -16 300 -16 c 0
 206 -16 145 32 145 107 c 2
 145 376 l 1
 71 376 l 2
 52 376 43 383 43 397 c 0
 43 410 52 417 71 417 c 2
 145 417 l 1
 145 536 l 2
 145 554 152 563 166 563 c 0
 180 563 186 555 186 536 c 2
 186 417 l 1
EndSplineSet
Validated: 1
EndChar

StartChar: u
Encoding: 85 117 85
Width: 600
Flags: W
HStem: -16 41<198.63 346.339> 397 20G<124 165 439 480>
VStem: 124 41<59.3106 417> 439 41<0 66 115 417>
LayerCount: 2
Fore
SplineSet
480 417 m 1
 480 0 l 1
 439 0 l 1
 439 66 l 1
 384 12 323 -16 257 -16 c 0
 177 -16 124 36 124 115 c 2
 124 417 l 1
 165 417 l 1
 165 115 l 2
 165 65 205 25 256 25 c 0
 323 25 384 55 439 115 c 1
 439 417 l 1
 480 417 l 1
EndSplineSet
Validated: 1
EndChar

StartChar: v
Encoding: 86 118 86
Width: 600
Flags: HMW
HStem: 0 41<293 312 293 336 266 312> 376 41<48 208 57 98 143 143 143 208 391 459 502 502 502 543>
VStem: 30 206<390 403.5> 364 206<390 403.5>
LayerCount: 2
Fore
SplineSet
520 417 m 1
 336 0 l 1
 266 0 l 1
 80 417 l 1
 125 417 l 1
 293 41 l 1
 312 41 l 1
 477 417 l 1
 520 417 l 1
EndSplineSet
Validated: 1
EndChar

StartChar: w
Encoding: 87 119 87
Width: 600
Flags: HMW
HStem: 0 21<160 211 160 160 391 441 391 391> 376 41<48 168 57 76 115 115 115 168 432 482 524 524 524 543>
VStem: 30 165<390 403.5> 405 165<390 403.5>
LayerCount: 2
Fore
SplineSet
533 417 m 1
 441 0 l 1
 391 0 l 1
 300 259 l 1
 211 0 l 1
 160 0 l 1
 66 417 l 1
 106 417 l 1
 187 56 l 1
 273 311 l 1
 324 311 l 1
 413 56 l 1
 491 417 l 1
 533 417 l 1
EndSplineSet
Validated: 1
EndChar

StartChar: x
Encoding: 88 120 88
Width: 600
Flags: W
HStem: 0 21G<44 121.053 477.158 556> 397 20G<66 144.585 458.947 535>
LayerCount: 2
Fore
SplineSet
124 417 m 1
 300 246 l 1
 480 417 l 1
 535 417 l 1
 329 219 l 1
 556 0 l 1
 498 0 l 1
 300 190 l 1
 100 0 l 1
 44 0 l 1
 271 219 l 1
 66 417 l 1
 124 417 l 1
EndSplineSet
Validated: 1
EndChar

StartChar: y
Encoding: 89 121 89
Width: 600
Flags: HMW
HStem: -186 41<75 211 84 211 252 317> 376 41<69 193 78 94 141 141 141 193 412 466 508 508 508 522>
LayerCount: 2
Fore
SplineSet
528 417 m 1
 232 -186 l 1
 191 -186 l 1
 282 0 l 1
 74 417 l 1
 121 417 l 1
 305 45 l 1
 486 417 l 1
 528 417 l 1
EndSplineSet
Validated: 1
EndChar

StartChar: z
Encoding: 90 122 90
Width: 600
Flags: W
HStem: 0 41<171 489> 376 41<124 416>
LayerCount: 2
Fore
SplineSet
489 0 m 1
 115 0 l 1
 115 36 l 1
 416 376 l 1
 124 376 l 1
 124 417 l 1
 474 417 l 1
 474 381 l 1
 171 41 l 1
 489 41 l 1
 489 0 l 1
EndSplineSet
Validated: 1
EndChar

StartChar: braceleft
Encoding: 91 123 91
Width: 600
Flags: MW
VStem: 281 41<-19 154 326 499>
LayerCount: 2
Fore
SplineSet
322 499 m 2
 322 326 l 2
 322 285 311 264 278 240 c 1
 311 216 322 195 322 154 c 2
 322 -19 l 2
 322 -53 345 -80 377 -83 c 0
 396 -85 403 -90 403 -104 c 0
 403 -116 394 -124 379 -124 c 0
 324 -124 281 -78 281 -19 c 2
 281 154 l 2
 281 190 257 216 221 219 c 0
 205 220 197 226 197 240 c 0
 197 253 205 260 221 261 c 0
 257 264 281 289 281 326 c 2
 281 499 l 2
 281 558 324 604 379 604 c 0
 394 604 403 596 403 584 c 0
 403 570 396 565 377 563 c 0
 345 560 322 533 322 499 c 2
EndSplineSet
Validated: 1
EndChar

StartChar: bar
Encoding: 92 124 92
Width: 600
Flags: MW
HStem: -124 728<293.5 306.5>
VStem: 280 40<-97 577>
LayerCount: 2
Fore
SplineSet
320 577 m 2
 320 -97 l 2
 320 -115 313 -124 300 -124 c 0
 287 -124 280 -115 280 -97 c 2
 280 577 l 2
 280 595 287 604 300 604 c 0
 313 604 320 595 320 577 c 2
EndSplineSet
Validated: 1
EndChar

StartChar: braceright
Encoding: 93 125 93
Width: 600
Flags: MW
VStem: 278 41<-19 154 326 499>
LayerCount: 2
Fore
SplineSet
278 -19 m 2
 278 154 l 2
 278 195 289 216 322 240 c 1
 289 264 278 285 278 326 c 2
 278 499 l 2
 278 533 255 560 223 563 c 0
 204 565 197 570 197 584 c 0
 197 596 206 604 221 604 c 0
 276 604 319 558 319 499 c 2
 319 326 l 2
 319 290 343 264 379 261 c 0
 395 260 403 254 403 240 c 0
 403 227 395 220 379 219 c 0
 343 216 319 191 319 154 c 2
 319 -19 l 2
 319 -78 276 -124 221 -124 c 0
 206 -124 197 -116 197 -104 c 0
 197 -90 204 -85 223 -83 c 0
 255 -80 278 -53 278 -19 c 2
EndSplineSet
Validated: 1
EndChar

StartChar: asciitilde
Encoding: 94 126 94
Width: 600
Flags: MW
HStem: 212 41<378 398 378 404.5> 307 41<199 220.5>
LayerCount: 2
Fore
SplineSet
488 330 m 0
 499 330 508 321 508 311 c 0
 508 303 500 291 483 271 c 0
 449 230 420 212 389 212 c 0
 357 212 336 224 273 277 c 0
 248 297 229 307 212 307 c 0
 186 307 175 298 131 242 c 0
 124 233 119 230 111 230 c 0
 101 230 92 239 92 249 c 0
 92 257 100 271 120 294 c 0
 154 333 179 348 212 348 c 0
 244 348 259 340 313 297 c 0
 357 261 370 253 386 253 c 0
 410 253 434 270 459 305 c 0
 474 327 478 330 488 330 c 0
EndSplineSet
Validated: 1
EndChar

StartChar: exclamdown
Encoding: 95 161 95
Width: 600
Flags: W
HStem: -216 409<294 307.5 294 311.5> 317 100<279 307 294 307>
VStem: 240 120<353 381> 261 79<-188 -176>
LayerCount: 2
Fore
SplineSet
262 -161 m 2xd0
 280 165 l 2
 281 185 287 193 301 193 c 0
 314 193 320 184 321 165 c 2
 339 -161 l 2
 340 -168 340 -173 340 -177 c 0
 340 -199 323 -216 300 -216 c 0
 278 -216 261 -199 261 -177 c 0
 261 -175 261 -169 262 -161 c 2xd0
307 317 m 2
 294 317 l 2
 264 317 240 339 240 367 c 0
 240 395 264 417 294 417 c 2
 307 417 l 2
 337 417 360 395 360 367 c 0xe0
 360 339 337 317 307 317 c 2
EndSplineSet
Validated: 1
EndChar

StartChar: cent
Encoding: 96 162 96
Width: 600
Flags: W
HStem: -13 178<294 307.5> 364 114<440 451.5 440 452.5> 458 172<294 307.5 294 343>
VStem: 113 41<269 342> 280 41<14 127 497 603>
LayerCount: 2
Fore
SplineSet
280 496 m 1xb8
 280 603 l 2
 280 621 287 630 301 630 c 0xb8
 314 630 321 621 321 603 c 2
 321 497 l 1
 359 497 400 483 425 461 c 1
 428 472 435 478 445 478 c 0
 458 478 466 469 466 453 c 2
 466 392 l 2
 466 373 459 364 446 364 c 0xd8
 434 364 428 371 426 387 c 0
 420 430 375 458 311 458 c 0
 220 458 154 397 154 311 c 0
 154 227 219 165 307 165 c 0
 353 165 399 180 432 207 c 0
 441 214 444 215 450 215 c 0
 461 215 469 207 469 195 c 0
 469 168 388 130 321 127 c 1
 321 14 l 2
 321 -4 314 -13 301 -13 c 0
 287 -13 280 -4 280 14 c 2
 280 127 l 1
 183 138 113 216 113 311 c 0
 113 373 143 429 194 463 c 0
 217 478 238 487 280 496 c 1xb8
EndSplineSet
Validated: 1
EndChar

StartChar: sterling
Encoding: 97 163 97
Width: 600
Flags: W
HStem: 0 40<104 108 101 113 101 436> 273 41<81 184 90 184 90 194 234 234 234 324> 537 41<272 316 259 316.5>
VStem: 63 288<287 300 286.5 300.5> 157 41<423.5 462.5> 198 41<182 225 182 228.5>
LayerCount: 2
Fore
SplineSet
182 41 m 1xe4
 434 41 l 2
 459 41 477 60 479 92 c 0
 481 108 487 115 500 115 c 0
 512 115 520 106 520 93 c 0
 520 42 482 0 436 0 c 2
 113 0 l 2
 95 0 86 7 86 21 c 0
 86 32 94 40 108 40 c 0
 155 42 198 128 198 220 c 0xe4
 198 237 196 260 194 273 c 1
 90 273 l 2
 72 273 63 280 63 294 c 0xf0
 63 307 72 314 90 314 c 2
 184 314 l 1
 163 380 157 409 157 435 c 0
 157 514 220 578 298 578 c 0
 334 578 367 565 396 539 c 0
 415 522 427 505 427 495 c 0
 427 486 416 476 407 476 c 0
 401 476 396 479 389 488 c 0
 361 522 334 537 299 537 c 0
 245 537 198 490 198 435 c 0xe8
 198 412 201 397 221 328 c 1
 222 327 223 321 225 314 c 1
 324 314 l 2
 342 314 351 307 351 293 c 0xf0
 351 280 342 273 324 273 c 2
 234 273 l 1
 237 252 239 234 239 216 c 0
 239 148 219 87 182 41 c 1xe4
EndSplineSet
Validated: 1
EndChar

StartChar: fraction
Encoding: 98 8260 98
Width: 600
Flags: W
LayerCount: 2
Fore
SplineSet
534 430 m 2
 87 146 l 1
 83 143 l 2
 79 140 74 138 70 138 c 0
 60 138 50 148 50 159 c 0
 50 167 54 173 65 180 c 2
 512 464 l 2
 518 468 525 470 529 470 c 0
 539 470 549 460 549 450 c 0
 549 442 546 437 534 430 c 2
EndSplineSet
Validated: 1
EndChar

StartChar: yen
Encoding: 99 165 99
Width: 600
Flags: HMW
HStem: 0 41<185 280 194 280 321 407> 141 37<142 280 150 280 321 452> 238 37<142 266 150 266 150 280 334 452> 522 41<69 188 78 102 149 149 149 188 412 451 498 498 498 522>
VStem: 51 164<536 549.5> 280 41<41 141 41 141 178 238> 385 164<536 549.5>
LayerCount: 2
Fore
SplineSet
122 563 m 17
 300 295 l 1
 478.5 563 l 1
 525.5 563 l 17
 334 275 l 1
 452 275 l 2
 468 275 473 270 473 257 c 0
 473 243 468 238 452 238 c 2
 321 238 l 1
 321 178 l 1
 452 178 l 2
 467 178 473 173 473 160 c 0
 473 146 467 141 452 141 c 2
 321 141 l 1
 321 0 l 9
 280.003 0 l 17
 280 141 l 1
 150 141 l 2
 134 141 128 146 128 160 c 0
 128 173 134 178 150 178 c 2
 280 178 l 1
 280 238 l 1
 150 238 l 2
 134 238 128 243 128 257 c 0
 128 270 133 275 150 275 c 2
 266 275 l 1
 75 563 l 1
 122 563 l 17
EndSplineSet
Validated: 1
EndChar

StartChar: florin
Encoding: 100 402 100
Width: 600
Flags: MW
HStem: -93 41<169 205.5 169 215> 334 41<175 280 184 280 321 417> 577 41<401 440>
VStem: 280 41<64 334 375 462>
LayerCount: 2
Fore
SplineSet
321 375 m 1
 417 375 l 2
 435 375 444 368 444 355 c 0
 444 341 435 334 417 334 c 2
 321 334 l 1
 321 58 l 2
 321 -26 256 -93 174 -93 c 0
 149 -93 117 -86 99 -77 c 0
 91 -73 87 -67 87 -59 c 0
 87 -48 95 -39 105 -39 c 0
 110 -39 112 -40 137 -47 c 0
 145 -50 163 -52 175 -52 c 0
 236 -52 280 -4 280 64 c 2
 280 334 l 1
 184 334 l 2
 166 334 157 341 157 355 c 0
 157 368 166 375 184 375 c 2
 280 375 l 1
 280 462 l 2
 280 549 346 618 431 618 c 0
 456 618 485 613 504 604 c 0
 514 600 518 595 518 586 c 0
 518 575 509 566 499 566 c 0
 496 566 496 566 474 572 c 0
 465 575 445 577 435 577 c 0
 367 577 321 530 321 462 c 2
 321 375 l 1
EndSplineSet
Validated: 1
EndChar

StartChar: section
Encoding: 101 167 101
Width: 600
Flags: W
HStem: -62 40<105 373.67> 563 40<227.959 496>
VStem: 66 43<316.998 389.25> 156 40<443.515 532.606> 404 41<6.60841 96.8453> 491 43<153.334 225.591>
LayerCount: 2
Fore
SplineSet
105 -22 m 17
 311 -22 l 2
 363.999 -22 404 11 404 53 c 0
 404 88 369 121 273 175 c 2
 208 211 l 2
 110 266 66 312 66 358 c 0
 66 403 107 436 169 441 c 1
 160 456 156 469 156 487 c 0
 156 550 215 603 284 603 c 2
 496 603 l 1
 496 563 l 17
 287 563 l 2
 238 563 196 528 196 487 c 0
 196 450 226 424 345 358 c 2
 401 327 l 2
 495 276 534 234 534 185 c 0
 534 159 521 137 498 121 c 0
 481 110 466 105 432 101 c 1
 441 86 445 71 445 52 c 0
 445 -13 388 -62 312 -62 c 2
 105 -62 l 1
 105 -22 l 17
384 290 m 2
 320 326 l 2
 256 361 228 379 201 403 c 1
 195 402 195 402 183 402 c 0
 141 402 109 383 109 357 c 0
 109 328 151 290 234 243 c 2
 296 208 l 2
 351 177 382 157 400 139 c 1
 404 141 404 141 418 142 c 0
 463 143 491 159 491 184 c 0
 491 213 449 255 384 290 c 2
EndSplineSet
Validated: 1
EndChar

StartChar: currency
Encoding: 102 164 102
Width: 600
Flags: MW
HStem: 127 41<281.5 318.5> 417 41<281.5 318.5 281.5 334.5>
VStem: 135 41<274 310.5> 424 42<274.5 311 274.5 326>
LayerCount: 2
Fore
SplineSet
199 162 m 1
 142 106 l 2
 134 97 130 95 124 95 c 0
 112 95 103 104 103 115 c 0
 103 122 106 127 114 135 c 2
 170 191 l 1
 146 223 135 256 135 292 c 0
 135 329 147 366 169 394 c 1
 114 450 l 2
 105 458 103 462 103 469 c 0
 103 480 112 489 123 489 c 0
 130 489 134 486 142 478 c 2
 198 423 l 1
 227 446 263 458 300 458 c 0
 337 458 374 445 402 423 c 1
 457 478 l 2
 466 487 470 489 477 489 c 0
 488 489 497 480 497 468 c 0
 497 461 496 459 487 450 c 2
 432 394 l 1
 455 362 466 329 466 293 c 0
 466 256 454 220 431 191 c 1
 486 135 l 2
 492 129 496 121 496 115 c 0
 496 104 487 95 476 95 c 0
 470 95 464 98 457 106 c 2
 401 162 l 1
 369 138 337 127 300 127 c 0
 263 127 229 139 199 162 c 1
300 417 m 0
 232 417 176 361 176 293 c 0
 176 224 232 168 300 168 c 0
 367 168 424 224 424 291 c 0
 424 361 369 417 300 417 c 0
EndSplineSet
Validated: 1
EndChar

StartChar: quotesingle
Encoding: 103 39 103
Width: 600
Flags: MW
HStem: 584 20G<236 364 364 364>
LayerCount: 2
Fore
SplineSet
236 604 m 1
 364 604 l 1
 330 351 l 2
 327 326 318 315 300 315 c 0
 282 315 273 326 270 351 c 2
 236 604 l 1
EndSplineSet
Validated: 1
EndChar

StartChar: quotedblleft
Encoding: 104 8220 104
Width: 600
Flags: MW
HStem: 584 20G<93 218 218 218 310 435 435 435>
LayerCount: 2
Fore
SplineSet
435 604 m 1
 505 379 l 2
 506 376 507 372 507 369 c 0
 507 355 494 343 478 343 c 0
 465 343 456 349 447 365 c 2
 310 604 l 1
 435 604 l 1
218 604 m 1
 288 379 l 2
 289 376 290 372 290 369 c 0
 290 355 277 343 261 343 c 0
 248 343 239 349 230 365 c 2
 93 604 l 1
 218 604 l 1
EndSplineSet
Validated: 1
EndChar

StartChar: guillemotleft
Encoding: 105 171 105
Width: 600
Flags: W
LayerCount: 2
Fore
SplineSet
63 209 m 1
 271 406 l 2
 279 414 285 417 292 417 c 0
 303 417 312 408 312 397 c 0
 312 390 311 388 301 377 c 2
 158 209 l 1
 301 40 l 2
 311 29 312 27 312 20 c 0
 312 9 303 0 292 0 c 0
 286 0 279 4 271 11 c 2
 63 209 l 1
292 209 m 1
 500 406 l 2
 508 414 514 417 521 417 c 0
 532 417 541 408 541 397 c 0
 541 390 540 388 530 377 c 2
 387 209 l 1
 530 40 l 2
 540 29 541 27 541 20 c 0
 541 9 532 0 521 0 c 0
 515 0 508 4 500 11 c 2
 292 209 l 1
EndSplineSet
Validated: 1
EndChar

StartChar: guilsinglleft
Encoding: 106 8249 106
Width: 600
Flags: W
LayerCount: 2
Fore
SplineSet
63 209 m 1
 271 406 l 2
 279 414 285 417 292 417 c 0
 303 417 312 408 312 397 c 0
 312 390 311 388 301 377 c 2
 158 209 l 1
 301 40 l 2
 311 29 312 27 312 20 c 0
 312 9 303 0 292 0 c 0
 286 0 279 4 271 11 c 2
 63 209 l 1
EndSplineSet
Validated: 1
EndChar

StartChar: guilsinglright
Encoding: 107 8250 107
Width: 600
Flags: W
LayerCount: 2
Fore
SplineSet
541 208 m 1
 334 11 l 2
 326 3 320 0 313 0 c 0
 302 0 293 9 293 20 c 0
 293 27 294 29 304 40 c 2
 446 208 l 1
 304 377 l 2
 294 388 293 390 293 397 c 0
 293 408 302 417 313 417 c 0
 319 417 326 413 334 406 c 2
 541 208 l 1
EndSplineSet
Validated: 1
EndChar

StartChar: fi
Encoding: 108 64257 108
Width: 600
Flags: W
HStem: 0 21G<120 161 442 483> 376 41<16.0066 120 161 259.993 358.007 442> 520 104<423 482> 563 41<185.179 305.023>
VStem: 120 41<0 376 417 537.149> 423 59<520 624> 442 41<0 376>
LayerCount: 2
Fore
SplineSet
120 0 m 1xd8
 120 376 l 1
 43 376 l 2
 25 376 16 383 16 397 c 0
 16 410 25 417 43 417 c 2
 120 417 l 1
 120 476 l 2
 120 547 168 604 227 604 c 0
 247 604 282 597 302 589 c 0
 312 585 318 578 318 569 c 0
 318 558 310 549 299 549 c 0
 297 549 297 549 286 552 c 0
 259 560 242 563 228 563 c 0
 190 563 161 525 161 476 c 2
 161 417 l 1
 233 417 l 2
 251 417 260 410 260 397 c 0
 260 383 251 376 233 376 c 2
 161 376 l 1
 161 0 l 1
 120 0 l 1xd8
442 0 m 1xca
 442 376 l 1
 385 376 l 2
 367 376 358 383 358 397 c 0
 358 410 367 417 385 417 c 2
 483 417 l 1
 483 0 l 1
 442 0 l 1xca
482 624 m 1xec
 482 520 l 1
 423 520 l 1
 423 624 l 1
 482 624 l 1xec
EndSplineSet
Validated: 1
LCarets2: 1 0 
Ligature2: "'liga' Standard Ligatures in Latin lookup 0 subtable" f i
EndChar

StartChar: fl
Encoding: 109 64258 109
Width: 600
Flags: HMW
HStem: 0 41<28 120 37 120 161 233 365 442 483 560> 376 41<34 120 43 120 161 233> 563 41<208.5 235 385 442>
VStem: 120 41<41 376 41 376 417 476> 442 41<41 563 563 563>
LayerCount: 2
Fore
SplineSet
442 0 m 1
 442 563 l 1
 385 563 l 2
 367 563 358 570 358 584 c 0
 358 597 367 604 385 604 c 2
 483 604 l 1
 483 0 l 1
 442 0 l 1
120 0 m 1
 120 376 l 1
 43 376 l 2
 25 376 16 383 16 397 c 0
 16 410 25 417 43 417 c 2
 120 417 l 1
 120 476 l 2
 120 547 168 604 227 604 c 0
 247 604 282 597 302 589 c 0
 312 585 318 578 318 569 c 0
 318 558 310 549 299 549 c 0
 297 549 297 549 286 552 c 0
 259 560 242 563 228 563 c 0
 190 563 161 525 161 476 c 2
 161 417 l 1
 233 417 l 2
 251 417 260 410 260 397 c 0
 260 383 251 376 233 376 c 2
 161 376 l 1
 161 0 l 1
 120 0 l 1
EndSplineSet
Validated: 1
LCarets2: 1 0 
Ligature2: "'liga' Standard Ligatures in Latin lookup 0 subtable" f l
EndChar

StartChar: endash
Encoding: 110 8211 110
Width: 600
Flags: MW
HStem: 261 41<90 501 99 501>
VStem: 72 456<275 288.5>
LayerCount: 2
Fore
SplineSet
501 261 m 2
 99 261 l 2
 81 261 72 268 72 282 c 0
 72 295 81 302 99 302 c 2
 501 302 l 2
 519 302 528 295 528 282 c 0
 528 268 519 261 501 261 c 2
EndSplineSet
Validated: 1
EndChar

StartChar: dagger
Encoding: 111 8224 111
Width: 600
Flags: MW
HStem: 376 41<144 145 144 151 144 279 320 448>
VStem: 279 41<-36 376 418 577>
LayerCount: 2
Fore
SplineSet
320 376 m 1
 320 -36 l 2
 320 -54 313 -63 300 -63 c 0
 286 -63 279 -54 279 -36 c 2
 279 376 l 1
 151 376 l 2
 133 376 124 383 124 396 c 0
 124 403 128 410 134 414 c 0
 135 415 135 415 144 417 c 1
 146 417 148 417 151 418 c 1
 279 418 l 1
 279 577 l 2
 279 595 286 604 300 604 c 0
 313 604 320 595 320 577 c 2
 320 417 l 1
 448 417 l 2
 467 417 476 410 476 396 c 0
 476 383 467 376 448 376 c 2
 320 376 l 1
EndSplineSet
Validated: 1
EndChar

StartChar: daggerdbl
Encoding: 112 8225 112
Width: 600
Flags: MW
HStem: 124 41<142 279 151 279 320 448> 376 41<144 145 144 151 144 279 320 448>
VStem: 279 41<-35 124 165 376 418 577>
LayerCount: 2
Fore
SplineSet
320 376 m 1
 320 165 l 1
 448 165 l 2
 467 165 476 158 476 145 c 0
 476 131 467 124 448 124 c 2
 320 124 l 1
 320 -35 l 2
 320 -53 313 -62 300 -62 c 0
 286 -62 279 -53 279 -35 c 2
 279 124 l 1
 151 124 l 2
 133 124 124 131 124 145 c 0
 124 158 133 165 151 165 c 2
 279 165 l 1
 279 376 l 1
 151 376 l 2
 133 376 124 383 124 396 c 0
 124 403 128 410 134 414 c 0
 135 415 135 415 144 417 c 1
 146 417 148 417 151 418 c 1
 279 418 l 1
 279 577 l 2
 279 595 286 604 300 604 c 0
 313 604 320 595 320 577 c 2
 320 417 l 1
 448 417 l 2
 467 417 476 410 476 396 c 0
 476 383 467 376 448 376 c 2
 320 376 l 1
EndSplineSet
Validated: 1
EndChar

StartChar: periodcentered
Encoding: 113 183 113
Width: 600
Flags: W
LayerCount: 2
Fore
SplineSet
295 348 m 2
 305 348 l 2
 344 348 374 320 374 283 c 0
 374 245 344 217 305 217 c 2
 295 217 l 2
 256 217 226 246 226 283 c 0
 226 320 256 348 295 348 c 2
EndSplineSet
Validated: 1
EndChar

StartChar: paragraph
Encoding: 114 182 114
Width: 600
Flags: W
HStem: -62.4444 0.444401<325 326.948 395.016 397> 260 47<210.524 284> 563 41<224.408 284 325 397 437 522.993>
VStem: 79 70<361.228 503.986> 284 41<-62 260 307 558> 397 40<-62 563>
LayerCount: 2
Fore
SplineSet
437 -62 m 1
 437 -62 413.444 -62.4444 401.593 -62.4444 c 0
 397.609 -62.4444 394.947 -62.3942 394.947 -62.26 c 0
 394.947 -62.1946 395.58 -62.1092 397 -62 c 1
 397 563 l 1
 325 563 l 1
 325 -62 l 1
 326.397 -62.1074 327.02 -62.1918 327.02 -62.2568 c 0
 327.02 -62.3934 324.264 -62.4444 320.148 -62.4444 c 0
 308 -62.4444 284 -62 284 -62 c 1
 284 260 l 1
 237 263 203 271 173 284 c 0
 115 310 79 357 79 406 c 2
 79 453 l 2
 79 543 168 604 298 604 c 2
 498 604 l 2
 514 604 523 596 523 584 c 0
 523 571 514 563 498 563 c 2
 437 563 l 1
 437 -62 l 1
284 307 m 1
 284 558 l 1
 207 550 149 504 149 451 c 2
 149 414 l 2
 149 361 207 315 284 307 c 1
EndSplineSet
Validated: 1
EndChar

StartChar: bullet
Encoding: 115 8226 115
Width: 600
Flags: W
LayerCount: 2
Fore
SplineSet
302 337 m 0
 354 337 398 292 398 239 c 0
 398 185 354 141 300 141 c 0
 246 141 202 185 202 240 c 0
 202 294 246 337 302 337 c 0
EndSplineSet
Validated: 1
EndChar

StartChar: quotesinglbase
Encoding: 116 8218 116
Width: 600
Flags: W
LayerCount: 2
Fore
SplineSet
207 145 m 1
 340 145 l 1
 195 -120 l 2
 185 -139 177 -145 164 -145 c 0
 148 -145 135 -132 135 -116 c 0
 135 -112 136 -109 137 -105 c 2
 207 145 l 1
EndSplineSet
Validated: 1
EndChar

StartChar: quotedblbase
Encoding: 117 8222 117
Width: 600
Flags: W
LayerCount: 2
Fore
SplineSet
165 145 m 1
 290 145 l 1
 153 -94 l 2
 144 -110 135 -116 122 -116 c 0
 106 -116 93 -104 93 -90 c 0
 93 -87 94 -83 95 -80 c 2
 165 145 l 1
382 145 m 1
 507 145 l 1
 370 -94 l 2
 361 -110 352 -116 339 -116 c 0
 323 -116 310 -104 310 -90 c 0
 310 -87 311 -83 312 -80 c 2
 382 145 l 1
EndSplineSet
Validated: 1
EndChar

StartChar: quotedblright
Encoding: 118 8221 118
Width: 600
Flags: MW
HStem: 584 20G<165 290 290 290 382 507 507 507>
LayerCount: 2
Fore
SplineSet
165 604 m 1
 290 604 l 1
 153 365 l 2
 144 349 135 343 122 343 c 0
 106 343 93 355 93 369 c 0
 93 372 94 376 95 379 c 2
 165 604 l 1
382 604 m 1
 507 604 l 1
 370 365 l 2
 361 349 352 343 339 343 c 0
 323 343 310 355 310 369 c 0
 310 372 311 376 312 379 c 2
 382 604 l 1
EndSplineSet
Validated: 1
EndChar

StartChar: guillemotright
Encoding: 119 187 119
Width: 600
Flags: W
LayerCount: 2
Fore
SplineSet
311 208 m 1
 104 11 l 2
 96 3 90 0 83 0 c 0
 72 0 63 9 63 20 c 0
 63 27 64 29 74 40 c 2
 216 208 l 1
 74 377 l 2
 64 388 63 390 63 397 c 0
 63 408 72 417 83 417 c 0
 89 417 96 413 104 406 c 2
 311 208 l 1
541 208 m 1
 334 11 l 2
 326 3 320 0 313 0 c 0
 302 0 293 9 293 20 c 0
 293 27 294 29 304 40 c 2
 446 208 l 1
 304 377 l 2
 294 388 293 390 293 397 c 0
 293 408 302 417 313 417 c 0
 319 417 326 413 334 406 c 2
 541 208 l 1
EndSplineSet
Validated: 1
EndChar

StartChar: ellipsis
Encoding: 120 8230 120
Width: 600
Flags: MW
HStem: -15 99<87 114 285.5 312.5 486.5 513>
VStem: 51 99<20.5 48> 250 99<20.5 47.5> 450 99<21 48 20.5 48.5>
LayerCount: 2
Fore
SplineSet
100 84 m 0
 128 84 150 62 150 34 c 0
 150 7 127 -15 101 -15 c 0
 73 -15 51 7 51 34 c 0
 51 62 73 84 100 84 c 0
299 84 m 0
 327 84 349 62 349 34 c 0
 349 7 326 -15 299 -15 c 0
 272 -15 250 7 250 34 c 0
 250 61 272 84 299 84 c 0
500 84 m 0
 527 84 549 62 549 34 c 0
 549 7 526 -15 500 -15 c 0
 472 -15 450 7 450 35 c 0
 450 62 473 84 500 84 c 0
EndSplineSet
Validated: 1
EndChar

StartChar: perthousand
Encoding: 121 8240 121
Width: 600
Flags: MW
HStem: -9 34<161 203 161 212 433 475> 180 34<161 203.5 433 475.5> 391 34<123 165 123 174> 580 34<123 165.5>
VStem: 34 34<481.5 524 481.5 533.5> 72 34<81.5 124 81.5 133.5> 220 34<481 524> 258 34<81 124> 344 34<81.5 124 81.5 133.5> 530 34<81 124>
LayerCount: 2
Fore
SplineSet
144 614 m 0
 205 614 254 564 254 501 c 0
 254 441 204 391 144 391 c 0
 84 391 34 441 34 503 c 0
 34 564 84 614 144 614 c 0
144 580 m 0
 102 580 68 545 68 503 c 0
 68 460 102 425 144 425 c 0
 186 425 220 460 220 502 c 0
 220 546 187 580 144 580 c 0
496 388 m 2
 122 266 l 2
 118 265 114 264 111 264 c 0
 104 264 96 272 96 280 c 0
 96 289 101 294 112 297 c 2
 486 419 l 2
 490 420 494 421 497 421 c 0
 505 421 512 413 512 405 c 0
 512 396 507 391 496 388 c 2
182 214 m 0
 243 214 292 164 292 101 c 0
 292 41 242 -9 182 -9 c 0
 122 -9 72 41 72 103 c 0
 72 164 122 214 182 214 c 0
182 180 m 0
 140 180 106 145 106 103 c 0
 106 60 140 25 182 25 c 0
 224 25 258 60 258 102 c 0
 258 146 225 180 182 180 c 0
454 214 m 0
 515 214 564 164 564 101 c 0
 564 41 514 -9 454 -9 c 0
 394 -9 344 41 344 103 c 0
 344 164 394 214 454 214 c 0
454 180 m 0
 412 180 378 145 378 103 c 0
 378 60 412 25 454 25 c 0
 496 25 530 60 530 102 c 0
 530 146 497 180 454 180 c 0
EndSplineSet
Validated: 1
EndChar

StartChar: questiondown
Encoding: 122 191 122
Width: 600
Flags: HMW
HStem: -175 41<254.5 316.5> 317 100<269 313 286 313>
VStem: 113 41<-54 7.5 -54 16> 278 41<155 196 128 205> 425 41<-100 -59 -126 -50>
LayerCount: 2
Fore
SplineSet
425 -100 m 9
 466 -126 l 1
 456 -131 448 -134 437 -139 c 0
 374 -167 342 -175 291 -175 c 0
 185 -175 113 -113 113 -21 c 0
 113 53 153 96 278 155 c 1
 278 196 l 2
 278 214 285 223 298 223 c 0
 312 223 319 214 319 196 c 2
 319 128 l 1
 203 80 154 36 154 -21 c 0
 154 -87 213 -134 296 -134 c 0
 341 -134 372 -126 425 -100 c 9
313 317 m 2
 286 317 l 2
 252 317 229 338 229 367 c 0
 229 396 252 417 286 417 c 2
 313 417 l 2
 347 417 370 397 370 367 c 0
 370 337 347 317 313 317 c 2
EndSplineSet
Validated: 1
EndChar

StartChar: grave
Encoding: 123 96 123
Width: 600
Flags: W
LayerCount: 2
Fore
SplineSet
194 630 m 2
 308 530 l 1
 315 522 l 2
 320 517 320 517 320 511 c 0
 320 499 311 490 299 490 c 0
 294 490 288 493 281 499 c 2
 167 599 l 2
 158 607 155 611 155 619 c 0
 155 630 164 639 175 639 c 0
 181 639 186 636 194 630 c 2
EndSplineSet
Validated: 1
EndChar

StartChar: acute
Encoding: 124 180 124
Width: 600
Flags: W
LayerCount: 2
Fore
SplineSet
433 599 m 2
 319 499 l 2
 310 492 306 490 300 490 c 0
 289 490 280 499 280 511 c 0
 280 518 282 521 292 530 c 2
 406 630 l 2
 415 637 419 639 425 639 c 0
 436 639 445 630 445 618 c 0
 445 611 442 607 433 599 c 2
EndSplineSet
Validated: 1
EndChar

StartChar: circumflex
Encoding: 125 710 125
Width: 600
Flags: W
LayerCount: 2
Fore
SplineSet
300 639 m 1
 432 531 l 2
 443 522 445 518 445 510 c 0
 445 499 436 490 425 490 c 0
 420 490 414 493 407 498 c 2
 300 586 l 1
 193 498 l 2
 186 493 180 490 175 490 c 0
 164 490 155 499 155 510 c 0
 155 518 158 523 168 530 c 2
 300 639 l 1
EndSplineSet
Validated: 1
EndChar

StartChar: tilde
Encoding: 126 732 126
Width: 600
Flags: MW
HStem: 516 41<355.5 370.5 355.5 375.5> 564 41<230 246>
LayerCount: 2
Fore
SplineSet
435 603 m 0
 445 603 455 594 455 583 c 0
 455 575 451 569 433 552 c 0
 407 526 387 516 364 516 c 0
 342 516 323 523 283 547 c 0
 263 560 252 564 240 564 c 0
 220 564 211 558 182 527 c 0
 178 522 171 519 165 519 c 0
 154 519 145 527 145 538 c 0
 145 546 151 555 164 568 c 0
 193 595 214 605 239 605 c 0
 259 605 271 601 303 582 c 0
 341 561 349 557 362 557 c 0
 379 557 389 564 419 595 c 0
 425 601 429 603 435 603 c 0
EndSplineSet
Validated: 1
EndChar

StartChar: macron
Encoding: 127 175 127
Width: 600
Flags: MW
HStem: 536 40<173 418 182 418>
VStem: 155 290<549.5 562.5>
LayerCount: 2
Fore
SplineSet
418 536 m 2
 182 536 l 2
 164 536 155 543 155 556 c 0
 155 569 164 576 182 576 c 2
 418 576 l 2
 436 576 445 569 445 556 c 0
 445 543 436 536 418 536 c 2
EndSplineSet
Validated: 1
EndChar

StartChar: breve
Encoding: 128 728 128
Width: 600
Flags: MW
HStem: 490 41<272 328 272 341>
LayerCount: 2
Fore
SplineSet
176 620 m 0
 188 620 194 613 196 598 c 0
 199 560 244 531 300 531 c 0
 356 531 400 560 404 598 c 0
 406 613 412 620 425 620 c 0
 436 620 445 611 445 597 c 0
 445 537 382 490 300 490 c 0
 218 490 155 537 155 597 c 0
 155 611 163 620 176 620 c 0
EndSplineSet
Validated: 1
EndChar

StartChar: dotaccent
Encoding: 129 729 129
Width: 600
Flags: MW
HStem: 511 100<286.5 313.5>
VStem: 250 100<547.5 574 547 574.5>
LayerCount: 2
Fore
SplineSet
300 611 m 0
 328 611 350 588 350 560 c 0
 350 534 327 511 300 511 c 0
 273 511 250 534 250 561 c 0
 250 588 273 611 300 611 c 0
EndSplineSet
Validated: 1
EndChar

StartChar: dieresis
Encoding: 130 168 130
Width: 600
Flags: MW
HStem: 511 100<176.5 203.5 397.5 424.5>
VStem: 140 100<547.5 574 547 574.5> 361 100<547.5 574 547 574.5>
LayerCount: 2
Fore
SplineSet
190 611 m 0
 218 611 240 588 240 560 c 0
 240 534 217 511 190 511 c 0
 163 511 140 534 140 561 c 0
 140 588 163 611 190 611 c 0
411 611 m 0
 439 611 461 588 461 560 c 0
 461 534 438 511 411 511 c 0
 384 511 361 534 361 561 c 0
 361 588 384 611 411 611 c 0
EndSplineSet
Validated: 1
EndChar

StartChar: ring
Encoding: 131 730 131
Width: 600
Flags: MW
HStem: 480 33<283.5 316.5 283.5 325.5> 628 33<283.5 316.5>
VStem: 207 33<555 586.5 555 595.5> 360 33<554.5 586>
LayerCount: 2
Fore
SplineSet
300 661 m 0
 352 661 393 621 393 569 c 0
 393 521 351 480 300 480 c 0
 249 480 207 521 207 571 c 0
 207 620 249 661 300 661 c 0
300 628 m 0
 267 628 240 602 240 571 c 0
 240 539 267 513 300 513 c 0
 333 513 360 539 360 570 c 0
 360 602 333 628 300 628 c 0
EndSplineSet
Validated: 1
EndChar

StartChar: cedilla
Encoding: 132 184 132
Width: 600
Flags: MW
HStem: -173 38<288.5 309 288.5 321.5> -81 81<274 294 274 312>
VStem: 274 38<-47 0 -47 0 -47 0> 340 37<-114.5 -97.5>
LayerCount: 2
Fore
SplineSet
274 0 m 1
 312 0 l 1
 312 -47 l 1
 353 -48 377 -70 377 -108 c 0
 377 -147 345 -173 298 -173 c 0
 278 -173 247 -165 228 -155 c 0
 214 -148 210 -143 210 -133 c 0
 210 -122 219 -114 230 -114 c 0
 234 -114 237 -115 245 -119 c 0
 267 -131 281 -135 296 -135 c 0
 322 -135 340 -123 340 -106 c 0
 340 -89 325 -81 294 -81 c 2
 274 -81 l 1
 274 0 l 1
EndSplineSet
Validated: 1
EndChar

StartChar: hungarumlaut
Encoding: 133 733 133
Width: 600
Flags: W
LayerCount: 2
Fore
SplineSet
291 593 m 2
 194 499 l 2
 187 493 181 490 175 490 c 0
 164 490 155 499 155 511 c 0
 155 518 156 520 167 530 c 2
 265 624 l 2
 271 630 277 633 283 633 c 0
 294 633 303 624 303 612 c 0
 303 606 301 603 291 593 c 2
433 593 m 2
 335 499 l 2
 328 493 322 490 316 490 c 0
 305 490 296 499 296 511 c 0
 296 517 299 522 305 527 c 2
 308 530 l 1
 406 624 l 2
 413 630 419 633 425 633 c 0
 436 633 445 624 445 612 c 0
 445 606 444 603 433 593 c 2
EndSplineSet
Validated: 1
EndChar

StartChar: ogonek
Encoding: 134 731 134
Width: 600
Flags: MW
HStem: -155 32<347.5 372 347.5 375> -20 20<357 404 404 404>
VStem: 280 39<-100.5 -75.5 -100.5 -73.5>
LayerCount: 2
Fore
SplineSet
404 0 m 1
 377 -15 l 2
 340 -36 319 -62 319 -89 c 0
 319 -112 333 -123 362 -123 c 0
 382 -123 387 -121 411 -107 c 0
 414 -105 417 -104 419 -104 c 0
 426 -104 433 -111 433 -119 c 0
 433 -136 394 -155 356 -155 c 0
 308 -155 280 -132 280 -94 c 0
 280 -53 302 -26 357 0 c 1
 404 0 l 1
EndSplineSet
Validated: 1
EndChar

StartChar: caron
Encoding: 135 711 135
Width: 600
Flags: W
LayerCount: 2
Fore
SplineSet
300 490 m 1
 168 599 l 2
 158 606 155 610 155 619 c 0
 155 630 164 639 175 639 c 0
 180 639 186 636 193 631 c 2
 300 543 l 1
 407 631 l 2
 414 636 420 639 425 639 c 0
 435 639 445 629 445 619 c 0
 445 611 443 607 432 598 c 2
 300 490 l 1
EndSplineSet
Validated: 1
EndChar

StartChar: emdash
Encoding: 136 8212 136
Width: 600
Flags: MW
HStem: 261 41<19 572 28 572>
VStem: 1 598<275 288.5>
LayerCount: 2
Fore
SplineSet
572 261 m 2
 28 261 l 2
 10 261 1 268 1 282 c 0
 1 295 10 302 28 302 c 2
 572 302 l 2
 590 302 599 295 599 282 c 0
 599 268 590 261 572 261 c 2
EndSplineSet
Validated: 1
EndChar

StartChar: AE
Encoding: 137 198 137
Width: 600
Flags: W
HStem: 0 41<338 590> 189 41<167 297> 273 41<338 456> 522 41<247 297 338 570>
VStem: 297 41<41 189 230 273 314 522>
LayerCount: 2
Fore
SplineSet
103.5 0 m 9
 62.5 0 l 1
 218 563 l 9
 570 563 l 1
 570 522 l 17
 338 522 l 1
 338 314 l 1
 456 314 l 9
 456 273 l 17
 338 273 l 1
 338 41 l 1
 590 41 l 9
 590 0 l 1
 297 0 l 17
 297 189 l 1
 156 189 l 1
 103.5 0 l 9
297 230 m 1
 297 522 l 1
 247 522 l 1
 167 230 l 1
 297 230 l 1
EndSplineSet
Validated: 1
EndChar

StartChar: ordfeminine
Encoding: 138 170 138
Width: 600
Flags: W
HStem: 279 37<200.539 332.848> 420 35<222.154 359.92> 537 37<221.906 349.003>
VStem: 155 37<326.998 393.247> 361 37<282 308 350 409 446 523.797>
LayerCount: 2
Fore
SplineSet
398 282 m 9
 361 282 l 1
 361 308 l 1
 320 286 293 279 254 279 c 0
 195 279 155 311 155 358 c 0
 155 415 211 455 288 455 c 0
 311 455 331 452 361 446 c 1
 361 490 l 2
 361 518 335 537 296 537 c 0
 278 537 250 530 220 518 c 0
 212 514 210 514 206 514 c 0
 197 514 189 523 189 533 c 0
 189 542 193 547 203 552 c 0
 233 564 274 574 298 574 c 0
 356 574 398 539 398 490 c 2
 398 282 l 9
361 350 m 1
 361 409 l 1
 345 415 313 420 290 420 c 0
 233 420 192 393 192 356 c 0
 192 332 217 316 254 316 c 0
 292 316 326 327 361 350 c 1
EndSplineSet
Validated: 1
EndChar

StartChar: Lslash
Encoding: 139 321 139
Width: 600
Flags: W
HStem: 0 41<227 541> 543 20<186 227>
VStem: 186 41<41 563>
LayerCount: 2
Fore
SplineSet
80 184 m 1
 74 180 67 178 63 178 c 0
 54 178 44 188 44 199 c 0
 44 207 48 212 60 219 c 1
 361 390 l 1
 366 392 374 395 378 395 c 0
 389 395 398 385 398 375 c 0
 398 366 393.841 362.295 381 355 c 2
 80 184 l 1
EndSplineSet
Refer: 44 76 N 1 0 0 1 0 0 2
Validated: 5
EndChar

StartChar: Oslash
Encoding: 140 216 140
Width: 600
Flags: MW
HStem: -16 41<275.5 357 275.5 369.5> 535 41<242.5 324.5>
VStem: 51 41<249 350 249 363> 508 41<210 311.5>
LayerCount: 2
Fore
SplineSet
141 51 m 1
 76 -31 l 2
 69 -40 64 -43 58 -43 c 0
 48 -43 40 -35 40 -25 c 0
 40 -21 41 -18 48 -9 c 2
 117 78 l 1
 72 138 51 204 51 280 c 0
 51 446 161 576 300 576 c 0
 360 576 409 555 458 510 c 1
 524 593 l 2
 531 602 535 605 542 605 c 0
 552 605 560 597 560 587 c 0
 560 582 558 579 552 571 c 2
 482 483 l 1
 525 430 549 356 549 280 c 0
 549 115 439 -16 300 -16 c 0
 240 -16 186 7 141 51 c 1
144 112 m 1
 432 476 l 1
 392 516 349 535 300 535 c 0
 185 535 92 420 92 280 c 0
 92 218 109 164 144 112 c 1
456 449 m 1
 167 84 l 1
 206 45 251 25 300 25 c 0
 414 25 508 140 508 280 c 0
 508 343 490 400 456 449 c 1
EndSplineSet
Validated: 1
EndChar

StartChar: OE
Encoding: 141 338 141
Width: 600
Flags: W
HStem: 0 41<165.173 297 338 590> 272 41<338 457> 522 41<166.479 297 338 570>
VStem: 10 41<170.727 391.916> 297 41<41 272 313 522>
LayerCount: 2
Fore
SplineSet
590 41 m 9
 590 0 l 1
 263 0 l 2
 111 0 10 112 10 282 c 0
 10 449 109 563 255 563 c 2
 570 563 l 1
 570 522 l 17
 338 522 l 1
 338 313 l 1
 457 313 l 9
 457 272 l 17
 338 272 l 1
 338 41 l 1
 590 41 l 9
297 522 m 1
 265 522 l 2
 192 522 142 500 104 452 c 0
 69 408 51 349 51 281 c 0
 51 213 69 155 104 111 c 0
 142 63 193 41 265 41 c 2
 297 41 l 1
 297 522 l 1
EndSplineSet
Validated: 1
EndChar

StartChar: ordmasculine
Encoding: 142 186 142
Width: 600
Flags: MW
HStem: 284 37<271 331 271 341> 540 37<270.5 332>
VStem: 154 37<400.5 461 400.5 471> 411 37<399.5 460>
LayerCount: 2
Fore
SplineSet
301 577 m 0
 383 577 448 512 448 429 c 0
 448 350 381 284 301 284 c 0
 220 284 154 350 154 431 c 0
 154 511 220 577 301 577 c 0
301 540 m 0
 240 540 191 491 191 431 c 0
 191 370 241 321 301 321 c 0
 361 321 411 370 411 429 c 0
 411 491 363 540 301 540 c 0
EndSplineSet
Validated: 1
EndChar

StartChar: ae
Encoding: 143 230 143
Width: 600
Flags: W
HStem: -16 41<131.5 180.5 131.5 182 421 460> 199 41<320 535 320 577 319 535> 216 41<179.5 209 170.5 212.5> 390 41<184 216.5 406 446.5>
VStem: 12 45<93 133 93 149> 280 40<27 52 52 52>
LayerCount: 2
Fore
SplineSet
320 61 m 1xdc
 320 27 l 2
 320 9 313 0 300 0 c 0
 287 0 280 9 280 27 c 2
 280 52 l 1
 241 5 204 -16 160 -16 c 0
 75 -16 12 47 12 132 c 0
 12 166 27 193 57 217 c 0
 88 240 146 257 195 257 c 0xbc
 223 257 251 253 280 245 c 1
 280 305 l 2
 280 352 241 390 192 390 c 0
 165 390 133 381 108 365 c 0
 101 361 94 358 90 358 c 0
 81 358 71 369 71 378 c 0
 71 389 79 397 100 406 c 0
 138 423 169 431 199 431 c 0
 248 431 293 398 312 347 c 1
 336 399 382 431 430 431 c 0
 490 431 538 392 559 325 c 0
 571 288 576 252 577 199 c 1
 319 199 l 1
 326 97 379 25 446 25 c 0
 475 25 497 38 545 82 c 0
 549 85 554 87 558 87 c 0
 569 87 578 77 578 67 c 0
 578 57 570 48 547 29 c 0
 506 -2 476 -16 444 -16 c 0
 398 -16 352 12 320 61 c 1xdc
280 110 m 1
 280 203 l 1
 253 211 224 216 201 216 c 0
 158 216 100 197 78 176 c 0
 64 162 57 145 57 121 c 0
 57 65 101 25 162 25 c 0
 199 25 233 50 280 110 c 1
320 240 m 1xdc
 535 240 l 1
 529 288 523 313 512 335 c 0
 495 370 464 390 429 390 c 0
 369 390 333 340 320 240 c 1xdc
EndSplineSet
Validated: 1
EndChar

StartChar: dotlessi
Encoding: 144 305 144
Width: 600
Flags: HMW
HStem: 0 41<110 279 119 279 320 480> 376 41<152 320 161 279>
VStem: 279 41<41 376 376 376>
LayerCount: 2
Fore
SplineSet
279 0 m 1xe8
 279 376 l 1
 161 376 l 2
 143 376 134 383 134 397 c 0
 134 410 143 417 161 417 c 2
 320 417 l 1
 320 0 l 1
 279 0 l 1xe8
EndSplineSet
Validated: 1
EndChar

StartChar: lslash
Encoding: 145 322 145
Width: 600
Flags: HMW
HStem: 0 41<110 278 119 278 319 481> 563 41<152 319 161 278>
VStem: 278 41<41 280 280 280 343 563 563 563>
LayerCount: 2
Fore
SplineSet
278 0 m 1
 278 280 l 1
 191 230 l 2
 182 225 180 224 174 224 c 0
 164 224 155 234 155 245 c 0
 155 254 159 259 171 266 c 2
 278 327 l 1
 278 563 l 1
 161 563 l 2
 143 563 134 570 134 584 c 0
 134 597 143 604 161 604 c 2
 319 604 l 1
 319 343 l 1
 407 394 l 2
 414 398 419 400 424 400 c 0
 434 400 443 391 443 380 c 0
 443 370 439 366 427 359 c 2
 319 297 l 1
 319 0 l 1
 278 0 l 1
EndSplineSet
Validated: 1
EndChar

StartChar: oslash
Encoding: 146 248 146
Width: 600
Flags: MW
HStem: -16 41<278 352 278 363.5> 390 41<248 321.5>
VStem: 72 41<186 258.5 186 270> 487 41<156.5 230>
LayerCount: 2
Fore
SplineSet
154 35 m 1
 88 -33 l 2
 80 -41 76 -43 71 -43 c 0
 61 -43 53 -35 53 -25 c 0
 53 -20 55 -16 63 -8 c 2
 129 59 l 1
 92 102 72 153 72 208 c 0
 72 332 173 431 300 431 c 0
 354 431 402 415 444 382 c 1
 508 448 l 2
 517 456 520 458 526 458 c 0
 535 458 543 450 543 440 c 0
 543 435 541 431 533 423 c 2
 469 358 l 1
 508 315 528 264 528 207 c 0
 528 83 427 -16 300 -16 c 0
 245 -16 198 1 154 35 c 1
441 329 m 1
 183 65 l 1
 216 39 256 25 300 25 c 0
 404 25 487 106 487 207 c 0
 487 253 471 294 441 329 c 1
158 89 m 1
 415 352 l 1
 382 377 343 390 300 390 c 0
 196 390 113 309 113 208 c 0
 113 164 129 122 158 89 c 1
EndSplineSet
Validated: 1
EndChar

StartChar: oe
Encoding: 147 339 147
Width: 600
Flags: MW
HStem: -16 41<136.5 194 414 460> 199 41<320 536 320 577 319 536> 390 41<136 192 123.5 197 415.5 447>
VStem: 12 41<159.5 256.5 159.5 271> 280 297<199 225.5 199 255.5>
LayerCount: 2
Fore
SplineSet
577 199 m 1
 319 199 l 1
 327 100 382 25 446 25 c 0
 475 25 497 38 545 82 c 0
 549 85 554 87 558 87 c 0
 568 87 578 77 578 67 c 0
 578 57 570 48 547 29 c 0
 506 -2 476 -16 444 -16 c 0
 384 -16 329 30 299 103 c 1
 270 27 222 -16 166 -16 c 0
 83 -16 12 89 12 212 c 0
 12 330 82 431 165 431 c 0
 219 431 271 387 299 317 c 1
 316 360 326 376 346 395 c 0
 371 419 400 431 431 431 c 0
 490 431 538 392 560 325 c 0
 572 288 577 252 577 199 c 1
320 240 m 1
 536 240 l 1
 530 288 524 313 513 335 c 0
 495 370 465 390 429 390 c 0
 370 390 333 340 320 240 c 1
166 390 m 0
 106 390 53 305 53 208 c 0
 53 111 106 25 167 25 c 0
 226 25 280 111 280 206 c 0
 280 305 228 390 166 390 c 0
EndSplineSet
Validated: 1
EndChar

StartChar: germandbls
Encoding: 148 223 148
Width: 600
Flags: W
HStem: -16 41<320.063 412.69> 334 41<247.007 334.397> 563 41<201.602 326.515>
VStem: 124 41<0 528.462> 259 41<44.6182 123.993> 371 41<409.598 518.628> 458 41<77.9219 240.316>
LayerCount: 2
Fore
SplineSet
124 0 m 1
 124 476 l 2
 124 547 188 604 266 604 c 0
 347 604 412 539 412 458 c 0
 412 417 394 386 354 359 c 1
 450 320 499 253 499 161 c 0
 499 60 441 -16 365 -16 c 0
 305 -16 259 35 259 101 c 0
 259 115 267 124 279 124 c 0
 292 124 299 116 300 100 c 0
 303 54 327 25 365 25 c 0
 417 25 458 85 458 162 c 0
 458 212 436 258 397 290 c 0
 365 316 317 334 279 334 c 2
 274 334 l 2
 256 334 247 341 247 355 c 0
 247 367 256 375 270 375 c 2
 275 375 l 2
 326 375 371 415 371 459 c 0
 371 516 324 563 266 563 c 0
 210 563 165 525 165 476 c 2
 165 0 l 1
 124 0 l 1
EndSplineSet
Validated: 1
EndChar

StartChar: Aacute
Encoding: 150 193 150
Width: 600
Flags: HMW
HStem: 0 41<27 67 36 67 108 187 408 484 527 564> 188 41<178 413 178 428 162 413> 522 41<117 330 126 246 286 286 286 301>
VStem: 9 205<14 27.5> 381 210<14 27.5>
LayerCount: 2
Fore
SplineSet
371 749 m 2
 257 649 l 2
 248 642 244 640 238 640 c 0
 227 640 218 649 218 661 c 0
 218 668 220 671 230 680 c 2
 344 780 l 2
 353 787 357 789 363 789 c 0
 374 789 383 780 383 768 c 0
 383 761 380 757 371 749 c 2
EndSplineSet
Refer: 33 65 S 1 0 0 1 0 0 2
Validated: 1
EndChar

StartChar: Agrave
Encoding: 151 192 151
Width: 600
Flags: HMW
HStem: 0 41<27 67 36 67 108 187 408 484 527 564> 188 41<178 413 178 428 162 413> 522 41<117 330 126 246 286 286 286 301>
VStem: 9 205<14 27.5> 381 210<14 27.5>
LayerCount: 2
Fore
SplineSet
204 780 m 2
 318 680 l 1
 325 672 l 2
 330 667 330 667 330 661 c 0
 330 649 321 640 309 640 c 0
 304 640 298 643 291 649 c 2
 177 749 l 2
 168 757 165 761 165 769 c 0
 165 780 174 789 185 789 c 0
 191 789 196 786 204 780 c 2
EndSplineSet
Refer: 33 65 S 1 0 0 1 0 0 2
Validated: 1
EndChar

StartChar: Abreve
Encoding: 153 258 153
Width: 600
Flags: HMW
HStem: 0 41<27 67 36 67 108 187 408 484 527 564> 188 41<178 413 178 428 162 413> 522 41<117 330 126 246 286 286 286 301> 640 41<272 328 272 341>
VStem: 9 205<14 27.5> 381 210<14 27.5>
LayerCount: 2
Fore
SplineSet
176 770 m 0
 188 770 194 763 196 748 c 0
 199 710 244 681 300 681 c 0
 356 681 400 710 404 748 c 0
 406 763 412 770 425 770 c 0
 436 770 445 761 445 747 c 0
 445 687 382 640 300 640 c 0
 218 640 155 687 155 747 c 0
 155 761 163 770 176 770 c 0
EndSplineSet
Refer: 33 65 S 1 0 0 1 0 0 2
Validated: 1
EndChar

StartChar: Aogonek
Encoding: 156 260 156
Width: 600
Flags: W
HStem: -155 32<490.504 577.544> 0 41<27 67 36 67 108 187 408 484 527 564> 188 41<178 413 178 428 162 413> 522 41<117 330 126 246 286 286 286 301>
VStem: 9 205<14 27.5> 381 210<14 27.5> 447 39<-118.778 -46.055> 524 67<0 40.7501>
LayerCount: 2
Fore
SplineSet
524 41 m 2xfb
 564 41 l 2
 582 41 591 34 591 21 c 0xfc
 591 9 588 6 567 -3 c 0
 519 -24 486 -58 486 -89 c 0
 486 -112 500 -123 529 -123 c 0
 549 -123 554 -121 578 -107 c 0
 581 -105 584 -104 586 -104 c 0
 593 -104 600 -111 600 -119 c 0
 600 -136 561 -155 523 -155 c 0
 475 -155 447 -132 447 -94 c 0
 447 -52 468 -27 524 0 c 1
 524 41 l 2xfb
EndSplineSet
Refer: 33 65 N 1 0 0 1 0 0 2
Validated: 5
EndChar

StartChar: Ccedilla
Encoding: 157 199 157
Width: 600
Flags: HMW
HStem: -173 38<293.5 314 293.5 326.5> -16 41<317 317 317 330> 535 41<271.5 338 271.5 349.5>
VStem: 63 41<242 248 248 319> 279 38<-47 -16 -47 -12 -47 -12> 345 37<-114.5 -97.5> 478 41<507 536>
LayerCount: 2
Fore
SplineSet
300 10 m 2
 317 -16 l 1
 317 -47 l 1
 358 -48 382 -70 382 -108 c 0
 382 -147 350 -173 303 -173 c 0
 283 -173 252 -165 233 -155 c 0
 219 -148 215 -143 215 -133 c 0
 215 -122 224 -114 235 -114 c 0
 238 -114 242 -115 250 -119 c 0
 273 -131 286 -135 301 -135 c 0
 327 -135 345 -123 345 -106 c 0
 345 -89 330 -81 299 -81 c 2
 279 -81 l 1
 279 -12 l 1
 267.777 -9.19436 300 10 300 10 c 2
EndSplineSet
Refer: 35 67 S 1 0 0 1 0 0 2
Validated: 37
EndChar

StartChar: Ccaron
Encoding: 159 268 159
Width: 600
Flags: HMW
HStem: -16 41<263 354> 535 41<271.5 338 271.5 349.5>
VStem: 63 41<242 248 248 319> 478 41<507 536>
LayerCount: 2
Fore
SplineSet
300 640 m 1
 168 749 l 2
 158 756 155 760 155 769 c 0
 155 780 164 789 175 789 c 0
 180 789 186 786 193 781 c 2
 300 693 l 1
 407 781 l 2
 414 786 420 789 425 789 c 0
 435 789 445 779 445 769 c 0
 445 761 443 757 432 748 c 2
 300 640 l 1
EndSplineSet
Refer: 35 67 S 1 0 0 1 0 0 2
Validated: 1
EndChar

StartChar: Dcaron
Encoding: 160 270 160
Width: 600
Flags: HMW
HStem: 0 41<61 104 70 104 145 290> 522 41<61 290 70 104 145 145 145 288>
VStem: 104 41<41 522> 479 41<245 254 254 310>
LayerCount: 2
Fore
SplineSet
300 640 m 1
 168 749 l 2
 158 756 155 760 155 769 c 0
 155 780 164 789 175 789 c 0
 180 789 186 786 193 781 c 2
 300 693 l 1
 407 781 l 2
 414 786 420 789 425 789 c 0
 435 789 445 779 445 769 c 0
 445 761 443 757 432 748 c 2
 300 640 l 1
EndSplineSet
Refer: 36 68 S 1 0 0 1 0 0 2
Validated: 1
EndChar

StartChar: Egrave
Encoding: 163 200 163
Width: 600
Flags: W
HStem: 0 41<165 520> 272 41<165 351> 522 41<165 499>
VStem: 124 41<41 272 313 522>
LayerCount: 2
Fore
SplineSet
215 780 m 2
 329 680 l 1
 336 672 l 2
 341 667 341 667 341 661 c 0
 341 649 332 640 320 640 c 0
 315 640 309 643 302 649 c 2
 188 749 l 2
 179 757 176 761 176 769 c 0
 176 780 185 789 196 789 c 0
 202 789 207 786 215 780 c 2
EndSplineSet
Refer: 37 69 S 1 0 0 1 0 0 2
Validated: 1
EndChar

StartChar: Ecaron
Encoding: 165 282 165
Width: 600
Flags: W
HStem: 0 41<165 520> 272 41<165 351> 522 41<165 499>
VStem: 124 41<41 272 313 522>
LayerCount: 2
Fore
SplineSet
300 640 m 1
 168 749 l 2
 158 756 155 760 155 769 c 0
 155 780 164 789 175 789 c 0
 180 789 186 786 193 781 c 2
 300 693 l 1
 407 781 l 2
 414 786 420 789 425 789 c 0
 435 789 445 779 445 769 c 0
 445 761 443 757 432 748 c 2
 300 640 l 1
EndSplineSet
Refer: 37 69 S 1 0 0 1 0 0 2
Validated: 1
EndChar

StartChar: Edotaccent
Encoding: 166 278 166
Width: 600
Flags: W
HStem: 0 41<165 520> 272 41<165 351> 522 41<165 499> 661 100<259.396 340.604>
VStem: 124 41<41 272 313 522> 250 100<670.396 751.544>
LayerCount: 2
Fore
SplineSet
300 761 m 0
 328 761 350 738 350 710 c 0
 350 684 327 661 300 661 c 0
 273 661 250 684 250 711 c 0
 250 738 273 761 300 761 c 0
EndSplineSet
Refer: 37 69 S 1 0 0 1 0 0 2
Validated: 1
EndChar

StartChar: Eogonek
Encoding: 167 280 167
Width: 600
Flags: W
HStem: -155 32<439.041 525.863> 0 41<165 520> 272 41<165 351> 522 41<165 499>
VStem: 124 41<41 272 313 522> 395 39<-118.602 -45.5576>
LayerCount: 2
Fore
SplineSet
520 33.8262 m 1
 520 0 l 1
 493 -15 l 2
 455 -36 434 -62 434 -89 c 0
 434 -112 449 -123 478 -123 c 0
 497 -123 502 -121 526 -107 c 0
 530 -105 533 -104 535 -104 c 0
 542 -104 549 -111 549 -119 c 0
 549 -136 509 -155 472 -155 c 0
 424 -155 395 -132 395 -94 c 0
 395 -53 416 -27 473 0 c 1
 520 33.8262 l 1
EndSplineSet
Refer: 37 69 N 1 0 0 1 0 0 2
Validated: 5
EndChar

StartChar: Igrave
Encoding: 171 204 171
Width: 600
Flags: HMW
HStem: 0 41<131 279 140 279 320 459> 522 41<131 459 140 279 320 459 320 320>
VStem: 279 41<41 522 41 522>
LayerCount: 2
Fore
SplineSet
230 780 m 2
 344 680 l 1
 351 672 l 2
 356 667 356 667 356 661 c 0
 356 649 347 640 335 640 c 0
 330 640 324 643 317 649 c 2
 203 749 l 2
 194 757 191 761 191 769 c 0
 191 780 200 789 211 789 c 0
 217 789 222 786 230 780 c 2
EndSplineSet
Refer: 41 73 N 1 0 0 1 0 0 2
Validated: 1
EndChar

StartChar: Idotaccent
Encoding: 173 304 173
Width: 600
Flags: HMW
HStem: 0 41<131 279 140 279 320 459> 522 41<131 459 140 279 320 459 320 320> 661 100<286.5 313.5>
VStem: 279 41<41 522 41 522>
LayerCount: 2
Fore
SplineSet
300 761 m 0
 328 761 350 738 350 710 c 0
 350 684 327 661 300 661 c 0
 273 661 250 684 250 711 c 0
 250 738 273 761 300 761 c 0
EndSplineSet
Refer: 41 73 N 1 0 0 1 0 0 2
Validated: 1
EndChar

StartChar: Lcaron
Encoding: 175 317 175
Width: 600
Flags: HMW
HStem: 0 41<81 186 90 186 227 500> 522 41<81 323 90 186 227 323 227 227>
VStem: 186 41<41 522 41 522> 500 41<41 201 0 210>
LayerCount: 2
Fore
SplineSet
501 529 m 1
 417 403 l 2
 409 392 405 389 396 389 c 0
 385 389 376 398 376 410 c 0
 376 414 378 419 383 426 c 2
 467 552 l 2
 474 562 480 566 488 566 c 0
 500 566 509 557 509 545 c 0
 509 542 507 538 504 533 c 2
 501 529 l 1
EndSplineSet
Refer: 44 76 S 1 0 0 1 0 0 2
Validated: 1
EndChar

StartChar: Ncaron
Encoding: 177 327 177
Width: 600
Flags: HMW
HStem: 0 41<60 103 69 103 144 219> 522 41<40 155 49 103 386 460 501 501 501 535>
VStem: 103 41<41 504 41 522 41 522> 460 41<59 522>
LayerCount: 2
Fore
SplineSet
300 640 m 1
 168 749 l 2
 158 756 155 760 155 769 c 0
 155 780 164 789 175 789 c 0
 180 789 186 786 193 781 c 2
 300 693 l 1
 407 781 l 2
 414 786 420 789 425 789 c 0
 435 789 445 779 445 769 c 0
 445 761 443 757 432 748 c 2
 300 640 l 1
EndSplineSet
Refer: 46 78 S 1 0 0 1 0 0 2
Validated: 1
EndChar

StartChar: Ograve
Encoding: 181 210 181
Width: 600
Flags: HMW
HStem: -16 41<243 356.5 243 368.5> 535 41<242.5 358>
VStem: 51 41<210 350 210 362.5> 508 41<208.5 349>
LayerCount: 2
Fore
SplineSet
224 780 m 2
 338 680 l 1
 345 672 l 2
 350 667 350 667 350 661 c 0
 350 649 341 640 329 640 c 0
 324 640 318 643 311 649 c 2
 197 749 l 2
 188 757 185 761 185 769 c 0
 185 780 194 789 205 789 c 0
 211 789 216 786 224 780 c 2
EndSplineSet
Refer: 47 79 S 1 0 0 1 0 0 2
Validated: 1
EndChar

StartChar: Rcaron
Encoding: 186 344 186
Width: 600
Flags: HMW
HStem: 0 41<61 124 70 124 165 240 531 562> 251 41<165 279 165 279 279 297> 522 41<61 318 70 124 165 165 165 318>
VStem: 124 41<41 251 292 522> 457 41<376 438>
LayerCount: 2
Fore
SplineSet
300 640 m 1
 168 749 l 2
 158 756 155 760 155 769 c 0
 155 780 164 789 175 789 c 0
 180 789 186 786 193 781 c 2
 300 693 l 1
 407 781 l 2
 414 786 420 789 425 789 c 0
 435 789 445 779 445 769 c 0
 445 761 443 757 432 748 c 2
 300 640 l 1
EndSplineSet
Refer: 50 82 S 1 0 0 1 0 0 2
Validated: 1
EndChar

StartChar: Scaron
Encoding: 188 352 188
Width: 600
Flags: W
HStem: -16 41<208.397 389.813> 535 41<221.272 384.264>
VStem: 92 41<89.7529 165.993> 115 44<359.966 482.714> 445 41<406.007 479.9> 464 44<87.8087 216.078>
LayerCount: 2
Fore
SplineSet
310 640 m 1xc0
 178 749 l 2
 168 756 165 760 165 769 c 0
 165 780 174 789 185 789 c 0
 190 789 196 786 203 781 c 2
 310 693 l 1
 417 781 l 2
 424 786 430 789 435 789 c 0
 445 789 455 779 455 769 c 0
 455 761 453 757 442 748 c 2
 310 640 l 1xc0
EndSplineSet
Refer: 51 83 N 1 0 0 1 0 0 2
Validated: 1
EndChar

StartChar: Tcaron
Encoding: 190 356 190
Width: 600
Flags: HMW
HStem: 0 41<166 280 175 280 321 426> 522 41<113 280 113 113 321 321 321 487>
VStem: 72 41<449 522> 280 41<41 522> 487 41<449 522 522 522>
LayerCount: 2
Fore
SplineSet
300 640 m 1
 168 749 l 2
 158 756 155 760 155 769 c 0
 155 780 164 789 175 789 c 0
 180 789 186 786 193 781 c 2
 300 693 l 1
 407 781 l 2
 414 786 420 789 425 789 c 0
 435 789 445 779 445 769 c 0
 445 761 443 757 432 748 c 2
 300 640 l 1
EndSplineSet
Refer: 52 84 S 1 0 0 1 0 0 2
Validated: 1
EndChar

StartChar: Ugrave
Encoding: 193 217 193
Width: 600
Flags: HMW
HStem: -16 41<255.5 344 255.5 356> 522 41<58 216 67 101 142 142 142 216 384 458 499 533 499 499>
VStem: 101 41<185 522> 458 41<185 522>
LayerCount: 2
Fore
SplineSet
227 780 m 2
 341 680 l 1
 348 672 l 2
 353 667 353 667 353 661 c 0
 353 649 344 640 332 640 c 0
 327 640 321 643 314 649 c 2
 200 749 l 2
 191 757 188 761 188 769 c 0
 188 780 197 789 208 789 c 0
 214 789 219 786 227 780 c 2
EndSplineSet
Refer: 53 85 S 1 0 0 1 0 0 2
Validated: 1
EndChar

StartChar: Uring
Encoding: 195 366 195
Width: 600
Flags: HMW
HStem: -16 41<255.5 344 255.5 356> 522 41<58 216 67 101 142 142 142 216 384 458 499 533 499 499> 630 33<283.5 316.5 283.5 325.5> 778 33<283.5 316.5>
VStem: 101 41<185 522> 207 33<705 736.5 705 745.5> 360 33<704.5 736> 458 41<185 522>
LayerCount: 2
Fore
SplineSet
300 811 m 0
 352 811 393 771 393 719 c 0
 393 671 351 630 300 630 c 0
 249 630 207 671 207 721 c 0
 207 770 249 811 300 811 c 0
300 778 m 0
 267 778 240 752 240 721 c 0
 240 689 267 663 300 663 c 0
 333 663 360 689 360 720 c 0
 360 752 333 778 300 778 c 0
EndSplineSet
Refer: 53 85 S 1 0 0 1 0 0 2
Validated: 1
EndChar

StartChar: Uhungarumlaut
Encoding: 196 368 196
Width: 600
Flags: HMW
HStem: -16 41<255.5 344 255.5 356> 522 41<58 216 67 101 142 142 142 216 384 458 499 533 499 499>
VStem: 101 41<185 522> 458 41<185 522>
LayerCount: 2
Fore
SplineSet
331 743 m 2
 234 649 l 2
 227 643 221 640 215 640 c 0
 204 640 195 649 195 661 c 0
 195 668 196 670 207 680 c 2
 305 774 l 2
 311 780 317 783 323 783 c 0
 334 783 343 774 343 762 c 0
 343 756 341 753 331 743 c 2
473 743 m 2
 375 649 l 2
 368 643 362 640 356 640 c 0
 345 640 336 649 336 661 c 0
 336 667 339 672 345 677 c 2
 348 680 l 1
 446 774 l 2
 453 780 459 783 465 783 c 0
 476 783 485 774 485 762 c 0
 485 756 484 753 473 743 c 2
EndSplineSet
Refer: 53 85 S 1 0 0 1 0 0 2
Validated: 1
EndChar

StartChar: Zcaron
Encoding: 199 381 199
Width: 600
Flags: W
HStem: 0 41<142 497> 522 41<121 431>
LayerCount: 2
Fore
SplineSet
296 640 m 1
 164 749 l 2
 154 756 151 760 151 769 c 0
 151 780 160 789 171 789 c 0
 176 789 182 786 189 781 c 2
 296 693 l 1
 403 781 l 2
 410 786 416 789 421 789 c 0
 431 789 441 779 441 769 c 0
 441 761 439 757 428 748 c 2
 296 640 l 1
EndSplineSet
Refer: 58 90 N 1 0 0 1 0 0 2
Validated: 1
EndChar

StartChar: Tcommaaccent
Encoding: 202 354 202
Width: 600
Flags: HMW
HStem: 0 41<166 280 175 280 321 426> 522 41<113 280 113 113 321 321 321 487>
VStem: 72 41<449 522> 280 41<41 522> 487 41<449 522 522 522>
LayerCount: 2
Fore
SplineSet
318 -97 m 1
 234 -223 l 2
 226 -234 222 -237 213 -237 c 0
 202 -237 193 -228 193 -216 c 0
 193 -212 195 -207 200 -200 c 2
 284 -74 l 2
 291 -64 297 -60 305 -60 c 0
 317 -60 326 -69 326 -81 c 0
 326 -84 324 -88 321 -93 c 2
 318 -97 l 1
EndSplineSet
Refer: 52 84 S 1 0 0 1 0 0 2
Validated: 1
EndChar

StartChar: Ydieresis
Encoding: 203 376 203
Width: 600
Flags: HMW
HStem: 0 41<167 281 176 281 322 427> 522 41<69 189 78 102 151 151 151 189 412 452 498 498 498 522> 661 100<175.5 202.5 396.5 423.5>
VStem: 139 100<697.5 724 697 724.5> 281 41<41 254 41 254> 360 100<697.5 724 697 724.5>
LayerCount: 2
Fore
SplineSet
189 761 m 0
 217 761 239 738 239 710 c 0
 239 684 216 661 189 661 c 0
 162 661 139 684 139 711 c 0
 139 738 162 761 189 761 c 0
410 761 m 0
 438 761 460 738 460 710 c 0
 460 684 437 661 410 661 c 0
 383 661 360 684 360 711 c 0
 360 738 383 761 410 761 c 0
EndSplineSet
Refer: 57 89 S 1 0 0 1 0 0 2
Validated: 1
EndChar

StartChar: Iogonek
Encoding: 206 302 206
Width: 600
Flags: MW
HStem: -155 32<414.5 439 414.5 442> 0 41<131 279 140 279 320 424> 522 41<131 459 140 279 320 459 320 320>
VStem: 279 41<41 522 41 522> 347 39<-100.5 -80.5 -100.5 -73>
LayerCount: 2
Fore
SplineSet
320 522 m 1
 320 41 l 1
 459 41 l 2
 478 41 487 34 487 21 c 0
 487 11 482 5 468 -1 c 0
 451 -10 421 -30 409 -41 c 0
 394 -55 386 -72 386 -89 c 0
 386 -112 400 -123 429 -123 c 0
 449 -123 454 -121 478 -107 c 0
 481 -105 484 -104 486 -104 c 0
 493 -104 500 -111 500 -119 c 0
 500 -136 461 -155 423 -155 c 0
 375 -155 347 -132 347 -94 c 0
 347 -52 368 -27 424 0 c 1
 140 0 l 2
 122 0 113 7 113 21 c 0
 113 34 122 41 140 41 c 2
 279 41 l 1
 279 522 l 1
 140 522 l 2
 122 522 113 529 113 543 c 0
 113 556 122 563 140 563 c 2
 459 563 l 2
 478 563 487 556 487 543 c 0
 487 529 478 522 459 522 c 2
 320 522 l 1
EndSplineSet
Validated: 1
EndChar

StartChar: Kcommaaccent
Encoding: 207 310 207
Width: 600
Flags: HMW
HStem: 0 41<61 124 70 124 165 240 489 545> 522 41<61 240 70 124 165 165 165 240 400 445 502 502 502 518>
VStem: 124 41<41 221 273 522> 372 174<536 549.5>
LayerCount: 2
Fore
SplineSet
358 -97 m 1
 274 -223 l 2
 266 -234 262 -237 253 -237 c 0
 242 -237 233 -228 233 -216 c 0
 233 -212 235 -207 240 -200 c 2
 324 -74 l 2
 331 -64 337 -60 345 -60 c 0
 357 -60 366 -69 366 -81 c 0
 366 -84 364 -88 361 -93 c 2
 358 -97 l 1
506 0 m 1
 458 0 l 1
 385 203 341 263 246 294 c 1
 165 221 l 1
 165 0 l 1
 124 0 l 1
 124 563 l 1
 165 563 l 1
 165 273 l 1
 491 563 l 1
 548 563 l 1
 280 324 l 1
 377 284 412 242 506 0 c 1
EndSplineSet
Validated: 1
EndChar

StartChar: Lcommaaccent
Encoding: 208 315 208
Width: 600
Flags: W
HStem: 0 41<227 541> 543 20<186 227>
VStem: 186 41<41 563>
LayerCount: 2
Fore
SplineSet
328 -97 m 1
 244 -223 l 2
 236 -234 232 -237 223 -237 c 0
 212 -237 203 -228 203 -216 c 0
 203 -212 205 -207 210 -200 c 2
 294 -74 l 2
 301 -64 307 -60 315 -60 c 0
 327 -60 336 -69 336 -81 c 0
 336 -84 334 -88 331 -93 c 2
 328 -97 l 1
EndSplineSet
Refer: 44 76 S 1 0 0 1 0 0 2
Validated: 1
EndChar

StartChar: Ncommaaccent
Encoding: 209 325 209
Width: 600
Flags: HMW
HStem: 0 41<60 103 69 103 144 219> 522 41<40 155 49 103 386 460 501 501 501 535>
VStem: 103 41<41 504 41 522 41 522> 460 41<59 522>
LayerCount: 2
Fore
SplineSet
338 -97 m 1
 254 -223 l 2
 246 -234 242 -237 233 -237 c 0
 222 -237 213 -228 213 -216 c 0
 213 -212 215 -207 220 -200 c 2
 304 -74 l 2
 311 -64 317 -60 325 -60 c 0
 337 -60 346 -69 346 -81 c 0
 346 -84 344 -88 341 -93 c 2
 338 -97 l 1
103 0 m 1
 103 563 l 1
 155 563 l 1
 460 59 l 1
 460 563 l 1
 501 563 l 1
 501 0 l 1
 449 0 l 1
 144 504 l 1
 144 0 l 1
 103 0 l 1
EndSplineSet
Validated: 1
EndChar

StartChar: Rcommaaccent
Encoding: 211 342 211
Width: 600
Flags: HMW
HStem: 0 41<61 124 70 124 165 240 531 562> 251 41<165 279 165 279 279 297> 522 41<61 318 70 124 165 165 165 318>
VStem: 124 41<41 251 292 522> 457 41<376 438>
LayerCount: 2
Fore
SplineSet
358 -97 m 1
 274 -223 l 2
 266 -234 262 -237 253 -237 c 0
 242 -237 233 -228 233 -216 c 0
 233 -212 235 -207 240 -200 c 2
 324 -74 l 2
 331 -64 337 -60 345 -60 c 0
 357 -60 366 -69 366 -81 c 0
 366 -84 364 -88 361 -93 c 2
 358 -97 l 1
EndSplineSet
Refer: 50 82 S 1 0 0 1 0 0 2
Validated: 1
EndChar

StartChar: Gcommaaccent
Encoding: 212 290 212
Width: 600
Flags: HMW
HStem: -16 41<264 362 264 364> 209 41<331 534 340 479 520 534 520 520> 418 21G<493.5 506.5> 535 41<287 346 280 359.5>
VStem: 63 41<244 317> 479 41<59 209 36 209 522 536>
LayerCount: 2
Fore
SplineSet
358 -97 m 1
 274 -223 l 2
 266 -234 262 -237 253 -237 c 0
 242 -237 233 -228 233 -216 c 0
 233 -212 235 -207 240 -200 c 2
 324 -74 l 2
 331 -64 337 -60 345 -60 c 0
 357 -60 366 -69 366 -81 c 0
 366 -84 364 -88 361 -93 c 2
 358 -97 l 1
479 209 m 1
 340 209 l 1
 340 250 l 1
 520 250 l 1
 520 36 l 1
 461 2 395 -16 333 -16 c 0
 169 -16 63 86 63 244 c 2
 63 318 l 2
 63 389 94 463 144 511 c 0
 189 553 247 576 313 576 c 0
 379 576 500 554 520 445 c 1
 520 427 513 418 500 418 c 0
 487 418 481 426 480 443 c 0
 476 494 404 535 315 535 c 0
 259 535 214 518 176 481 c 0
 132 440 104 376 104 317 c 2
 104 244 l 2
 104 108 192 25 336 25 c 0
 388 25 423 33 479 59 c 1
 479 209 l 1
EndSplineSet
Validated: 1
EndChar

StartChar: Uogonek
Encoding: 214 370 214
Width: 600
Flags: HMW
HStem: -155 32<368.5 392 368.5 395> -16 41<255.5 308.5> 522 41<58 216 67 101 142 142 142 216 384 458 499 533 499 499>
VStem: 101 41<185 522> 300 39<-100.5 -76> 458 41<185 522>
LayerCount: 2
Fore
SplineSet
399.332 38.6777 m 1
 399.001 3.00391 l 1
 360.787 -27.4856 338.743 -64.0045 339 -89 c 1
 339 -112 353 -123 382 -123 c 0
 402 -123 407 -121 431 -107 c 0
 434 -105 437 -104 439 -104 c 0
 446 -104 453 -111 453 -119 c 0
 453 -136 414 -155 376 -155 c 0
 328 -155 300 -132 300 -94 c 0
 300 -53 322 -26 377 0 c 1
 399.332 38.6777 l 1
EndSplineSet
Refer: 53 85 N 1 0 0 1 0 0 2
Validated: 37
EndChar

StartChar: aogonek
Encoding: 222 261 222
Width: 600
Flags: W
HStem: -155 32<446.604 533.544> -16 41<150.274 324.215> 0 41<419 480> 217 41<182.204 415.923> 390 41<187.177 380.833>
VStem: 72 41<59.5967 162.396> 403 39<-118.602 -45.6211> 419 41<0 67 112 202 237 354.366>
LayerCount: 2
Fore
SplineSet
419 41 m 5xbd
 514 41 l 2
 532 41 541 34 541 21 c 0
 541 12 537 6 529 2 c 0
 467 -31 442 -58 442 -89 c 0
 442 -112 457 -123 485 -123 c 0
 505 -123 510 -121 534 -107 c 0
 537 -105 540 -104 542 -104 c 0
 549 -104 556 -111 556 -119 c 0
 556 -136 517 -155 479 -155 c 0
 431 -155 403 -132 403 -94 c 0xbe
 403 -52 424 -27 480 0 c 1
 419 0 l 1
 419 41 l 5xbd
EndSplineSet
Refer: 65 97 N 1 0 0 1 0 0 2
Validated: 5
EndChar

StartChar: cacute
Encoding: 223 263 223
Width: 600
Flags: HMW
HStem: -16 41<256.5 342> 390 41<256 344.5 247 353>
VStem: 84 41<152.5 260 152.5 270> 470 41<376 389>
LayerCount: 2
Fore
SplineSet
433 599 m 2
 319 499 l 2
 310 492 306 490 300 490 c 0
 289 490 280 499 280 511 c 0
 280 518 282 521 292 530 c 2
 406 630 l 2
 415 637 419 639 425 639 c 0
 436 639 445 630 445 618 c 0
 445 611 442 607 433 599 c 2
EndSplineSet
Refer: 67 99 S 1 0 0 1 0 0 2
Validated: 1
EndChar

StartChar: ccaron
Encoding: 224 269 224
Width: 600
Flags: HMW
HStem: -16 41<256.5 342> 390 41<256 344.5 247 353>
VStem: 84 41<152.5 260 152.5 270> 470 41<376 389>
LayerCount: 2
Fore
SplineSet
330 490 m 1
 198 599 l 2
 188 606 185 610 185 619 c 0
 185 630 194 639 205 639 c 0
 210 639 216 636 223 631 c 2
 330 543 l 1
 437 631 l 2
 444 636 450 639 455 639 c 0
 465 639 475 629 475 619 c 0
 475 611 473 607 462 598 c 2
 330 490 l 1
EndSplineSet
Refer: 67 99 S 1 0 0 1 0 0 2
Validated: 1
EndChar

StartChar: dcaron
Encoding: 226 271 226
Width: 600
Flags: W
HStem: -16 41<200.463 363.507> 390 41<200.29 364.939> 584 20<461 502> 596 20G<625 635>
VStem: 63 41<125.218 290.386> 461 41<0 89 123.583 290.814 327 604>
LayerCount: 2
Fore
SplineSet
642 579 m 1xdc
 558 453 l 2
 550 442 546 439 537 439 c 0
 526 439 517 448 517 460 c 0
 517 464 519 469 524 476 c 2
 608 602 l 2
 615 612 621 616 629 616 c 0
 641 616 650 607 650 595 c 0
 650 592 648 588 645 583 c 2
 642 579 l 1xdc
EndSplineSet
Refer: 68 100 S 1 0 0 1 0 0 2
Validated: 1
EndChar

StartChar: ecaron
Encoding: 231 283 231
Width: 600
Flags: HMW
HStem: -16 41<252 337 252 350.5> 199 41<104 478 104 520 104 478> 390 41<242.5 339 227 339.5>
VStem: 63 457<199 222 199 277.5>
LayerCount: 2
Fore
SplineSet
300 490 m 1
 168 599 l 2
 158 606 155 610 155 619 c 0
 155 630 164 639 175 639 c 0
 180 639 186 636 193 631 c 2
 300 543 l 1
 407 631 l 2
 414 636 420 639 425 639 c 0
 435 639 445 629 445 619 c 0
 445 611 443 607 432 598 c 2
 300 490 l 1
EndSplineSet
Refer: 69 101 S 1 0 0 1 0 0 2
Validated: 1
EndChar

StartChar: edotaccent
Encoding: 232 279 232
Width: 600
Flags: W
HStem: -16 41<252 337 252 350.5> 199 41<104 478 104 520 104 478> 390 41<242.5 339 227 339.5> 511 100<259.396 340.604>
VStem: 63 457<199 222 199 277.5> 250 100<520.396 601.544>
LayerCount: 2
Fore
SplineSet
300 611 m 0xf4
 328 611 350 588 350 560 c 0
 350 534 327 511 300 511 c 0
 273 511 250 534 250 561 c 0
 250 588 273 611 300 611 c 0xf4
EndSplineSet
Refer: 69 101 S 1 0 0 1 0 0 2
Validated: 1
EndChar

StartChar: eogonek
Encoding: 233 281 233
Width: 600
Flags: W
HStem: -155 32<350.504 437.544> -16 41<252 337 252 350.5> 199 41<104 478 104 520 104 478> 390 41<242.5 339 227 339.5>
VStem: 63 457<199 222 199 277.5> 307 39<-118.778 -45.3411>
LayerCount: 2
Fore
SplineSet
361 -11 m 1xf4
 353.485 -16.7686 481.823 29.8989 468 22 c 0
 370 -32 346 -54 346 -89 c 0
 346 -112 360 -123 389 -123 c 0
 409 -123 414 -121 438 -107 c 0
 441 -105 444 -104 446 -104 c 0
 453 -104 460 -111 460 -119 c 0
 460 -136 421 -155 383 -155 c 0
 335 -155 307 -132 307 -94 c 0
 307 -60 325 -33 361 -11 c 1xf4
EndSplineSet
Refer: 69 101 S 1 0 0 1 0 0 2
Validated: 37
EndChar

StartChar: uring
Encoding: 259 367 259
Width: 600
Flags: W
HStem: -16 41<198.63 346.339> 397 20<124 165 439 480> 480 33<259.248 340.752> 628 33<259.248 340.97>
VStem: 124 41<59.3106 417> 207 33<531.838 609.423> 360 33<532.367 609.195> 439 41<0 66 115 417>
LayerCount: 2
Fore
SplineSet
300 661 m 0
 352 661 393 621 393 569 c 0
 393 521 351 480 300 480 c 0
 249 480 207 521 207 571 c 0
 207 620 249 661 300 661 c 0
300 628 m 0
 267 628 240 602 240 571 c 0
 240 539 267 513 300 513 c 0
 333 513 360 539 360 570 c 0
 360 602 333 628 300 628 c 0
EndSplineSet
Refer: 85 117 S 1 0 0 1 0 0 2
Validated: 1
EndChar

StartChar: zcaron
Encoding: 263 382 263
Width: 600
Flags: W
HStem: 0 41<171 489> 376 41<124 416>
LayerCount: 2
Fore
SplineSet
298 490 m 1
 166 599 l 2
 156 606 153 610 153 619 c 0
 153 630 162 639 173 639 c 0
 178 639 184 636 191 631 c 2
 298 543 l 1
 405 631 l 2
 412 636 418 639 423 639 c 0
 433 639 443 629 443 619 c 0
 443 611 441 607 430 598 c 2
 298 490 l 1
EndSplineSet
Refer: 90 122 N 1 0 0 1 0 0 2
Validated: 1
EndChar

StartChar: zdotaccent
Encoding: 264 380 264
Width: 600
Flags: W
HStem: 0 41<171 489> 376 41<124 416> 511 100<259.396 340.604>
VStem: 250 100<520.396 601.544>
LayerCount: 2
Fore
SplineSet
300 611 m 0
 328 611 350 588 350 560 c 0
 350 534 327 511 300 511 c 0
 273 511 250 534 250 561 c 0
 250 588 273 611 300 611 c 0
EndSplineSet
Refer: 90 122 N 1 0 0 1 0 0 2
Validated: 1
EndChar

StartChar: kcommaaccent
Encoding: 270 311 270
Width: 600
Flags: HMW
HStem: 0 41<81 144 90 144 90 185 383 411 469 514> 376 41<327 466 336 358 419 419 419 466> 563 41<81 185 90 144>
VStem: 144 41<41 180 229 563 563 563>
LayerCount: 2
Fore
SplineSet
144 0 m 1
 144 604 l 1
 185 604 l 1
 185 229 l 1
 407 417 l 1
 468 417 l 1
 262 245 l 1
 510 0 l 1
 452 0 l 1
 231 219 l 1
 185 180 l 1
 185 0 l 1
 144 0 l 1
EndSplineSet
Refer: 301 -1 N 1 0 0 1 -41 0 2
Validated: 1
EndChar

StartChar: uogonek
Encoding: 276 371 276
Width: 600
Flags: W
HStem: -155 32<446.604 533.544> -16 41<198.63 346.339> 0 41<439 480> 397 20<124 165 439 480>
VStem: 124 41<59.3106 417> 403 39<-118.602 -45.6211> 439 41<0 66 115 417> 439 102<0.457481 40.7501>
LayerCount: 2
Fore
SplineSet
439 41 m 1xba
 514 41 l 2
 532 41 541 34 541 21 c 0xb9
 541 12 537 6 528 2 c 0
 468 -31 442 -58 442 -89 c 0
 442 -112 457 -123 485 -123 c 0
 505 -123 510 -121 534 -107 c 0
 537 -105 540 -104 542 -104 c 0
 549 -104 556 -111 556 -119 c 0
 556 -136 517 -155 479 -155 c 0
 431 -155 403 -132 403 -94 c 0xbc
 403 -52 424 -27 480 0 c 1
 439 0 l 1
 439 41 l 1xba
EndSplineSet
Refer: 85 117 N 1 0 0 1 0 0 2
Validated: 5
EndChar

StartChar: iogonek
Encoding: 280 303 280
Width: 600
Flags: W
HStem: -155 32<410.504 497.544> 0 21<279 320> 0 41<319.645 444> 376 41<134.007 279> 520 104<259 318>
VStem: 259 59<520 624> 279 41<0 376> 367 39<-118.778 -44.5933>
LayerCount: 2
Fore
SplineSet
320 41 m 0xbb
 480 41 l 2xbb
 499 41 508 34 508 21 c 0xdb
 508 12 504 6 495 2 c 0
 426 -35 406 -56 406 -89 c 0
 406 -112 420 -123 449 -123 c 0
 469 -123 474 -121 498 -107 c 0
 501 -105 504 -104 506 -104 c 0
 513 -104 520 -111 520 -119 c 0
 520 -136 481 -155 443 -155 c 0
 395 -155 367 -132 367 -94 c 0
 367 -52 388 -27 444 0 c 1xbb
 306 0 l 2xdb
 288 0 320 27 320 41 c 0xbb
EndSplineSet
Refer: 73 105 N 1 0 0 1 0 0 2
Validated: 37
EndChar

StartChar: Eth
Encoding: 282 208 282
Width: 600
Flags: MW
HStem: 0 41<61 104 70 104 145 290> 272 41<18 104 27 104 145 307> 522 41<61 290 70 104 145 288 145 145>
VStem: 104 41<41 272 41 272 313 522> 479 41<245 254 254 310>
LayerCount: 2
Fore
SplineSet
27.001 272.001 m 5
 9 272 0 279 0 293 c 0
 0 306 9 313 26.9902 312.999 c 1
 307 313 l 2
 324.999 313 334 306 334 293 c 0
 334 279 325 272 307 272 c 2
 27.001 272.001 l 5
EndSplineSet
Refer: 36 68 N 1 0 0 1 0 0 2
Validated: 37
EndChar

StartChar: Dcroat
Encoding: 283 272 283
Width: 600
Flags: HMW
HStem: 0 41<61 104 70 104 145 290> 272 41<18 104 27 104 145 307> 522 41<61 290 70 104 145 288 145 145>
VStem: 104 41<41 272 41 272 313 522> 479 41<245 254 254 310>
LayerCount: 2
Fore
SplineSet
27.001 272.001 m 5
 9 272 0 279 0 293 c 0
 0 306 9 313 26.9902 312.999 c 1
 307 313 l 2
 324.999 313 334 306 334 293 c 0
 334 279 325 272 307 272 c 2
 27.001 272.001 l 5
EndSplineSet
Refer: 36 68 N 1 0 0 1 0 0 2
Validated: 37
EndChar

StartChar: Thorn
Encoding: 284 222 284
Width: 600
Flags: MW
HStem: 0 41<61 124 70 124 165 303> 131 41<165 299 165 296> 422 41<165 310 310 314 165 310> 522 41<61 303 70 124 165 165 165 303>
VStem: 124 41<41 131 172 422 463 522> 458 41<263.5 332>
LayerCount: 2
Fore
SplineSet
165 131 m 1
 165 41 l 1
 303 41 l 2
 322 41 331 34 331 21 c 0
 331 7 321 0 303 0 c 2
 70 0 l 2
 52 0 43 7 43 21 c 0
 43 34 52 41 70 41 c 2
 124 41 l 1
 124 522 l 1
 70 522 l 2
 52 522 43 529 43 543 c 0
 43 556 52 563 70 563 c 2
 303 563 l 2
 322 563 331 556 331 543 c 0
 331 529 322 522 303 522 c 2
 165 522 l 1
 165 463 l 1
 310 463 l 2
 416 463 499 391 499 298 c 0
 499 205 410 131 296 131 c 2
 165 131 l 1
165 172 m 1
 299 172 l 2
 386 172 458 229 458 298 c 0
 458 366 393 422 314 422 c 2
 165 422 l 1
 165 172 l 1
EndSplineSet
Validated: 1
EndChar

StartChar: dcroat
Encoding: 285 273 285
Width: 600
Flags: W
HStem: -16 41<200.463 363.507> 390 41<200.29 364.939> 479 41<296.007 582.994> 584 20<461 502>
VStem: 63 41<125.218 290.386> 461 41<0 89 123.583 290.814 327 604>
LayerCount: 2
Fore
SplineSet
557 479 m 1
 323 479 l 2
 305 479 296 486 296 500 c 0
 296 513 305 520 323 520 c 2
 557 520 l 1
 575 520 583 513 583 500 c 0
 583 486 575 479 557 479 c 1
EndSplineSet
Refer: 68 100 N 1 0 0 1 0 0 2
Validated: 5
EndChar

StartChar: eth
Encoding: 286 240 286
Width: 600
Flags: MW
HStem: -17 42<249 331> 390 40<249 325.5 235.5 353.5>
VStem: 72 42<157 258.5 157 268.5> 488 40<184.5 257.5>
LayerCount: 2
Fore
SplineSet
440 577 m 2
 365 543 l 1
 465 457 528 331 528 221 c 0
 528 148 507 93 462 48 c 0
 419 6 362 -17 300 -17 c 0
 173 -17 72 82 72 207 c 0
 72 330 173 430 298 430 c 0
 353 430 390 416 444 377 c 1
 410 441 365 495 323 525 c 1
 232 483 l 2
 230 482 228 482 225 482 c 0
 215 482 205 493 205 505 c 0
 205 512 208 519 214 521 c 2
 277 549 l 1
 239 565 219 572 179 580 c 0
 165 583 159 588 159 598 c 0
 159 611 168 620 180 620 c 0
 207 620 269 600 328 572 c 1
 423 614 l 1
 430 615 l 1
 440 615 449 606 449 594 c 0
 449 586 445 579 440 577 c 2
301 390 m 0
 197 390 114 309 114 208 c 0
 114 106 197 25 301 25 c 0
 404 25 488 106 488 205 c 0
 488 310 406 390 301 390 c 0
EndSplineSet
Validated: 1
EndChar

StartChar: thorn
Encoding: 287 254 287
Width: 600
Flags: MW
HStem: -186 41<40 103 49 103 144 242> 10 41<284.5 371 272.5 384.5> 390 41<285 372.5> 549 41<40 144 49 103>
VStem: 103 41<-145 106 173.5 268 335 549 549 549> 500 41<172.5 267.5>
LayerCount: 2
Fore
SplineSet
144 590 m 1
 144 335 l 1
 197 404 247 431 323 431 c 0
 447 431 541 340 541 221 c 0
 541 102 446 10 323 10 c 0
 246 10 190 40 144 106 c 1
 144 -145 l 1
 242 -145 l 2
 260 -145 269 -152 269 -165 c 0
 269 -179 260 -186 242 -186 c 2
 49 -186 l 2
 31 -186 22 -179 22 -165 c 0
 22 -152 31 -145 49 -145 c 2
 103 -145 l 1
 103 549 l 1
 49 549 l 2
 31 549 22 556 22 570 c 0
 22 583 31 590 49 590 c 2
 144 590 l 1
322 390 m 0
 223 390 144 315 144 221 c 0
 144 126 223 51 322 51 c 0
 420 51 500 126 500 219 c 0
 500 316 423 390 322 390 c 0
EndSplineSet
Validated: 1
EndChar

StartChar: Euro
Encoding: 288 8364 288
Width: 600
Flags: HMW
HStem: -16 41<269 354> 217 37<25 63 33 63 33 65 106 365 106 106> 314 37<25 65 33 63 106 394> 535 41<255 338 243.5 349.5>
VStem: 63 41<254 314 254 314> 478 41<507 536>
LayerCount: 2
Fore
SplineSet
519 424 m 1
 519 406 512 397 498 397 c 0
 486 397 479 405 478 421 c 0
 474 482 394 535 305 535 c 0
 205 535 124 460 106 351 c 1
 394 351 l 2
 410 351 415 346 415 333 c 0
 415 319 410 314 394 314 c 2
 104 314 l 1
 104 254 l 1
 365 254 l 2
 381 254 386 249 386 236 c 0
 386 222 380 217 365 217 c 2
 106 217 l 1
 124 107 216 25 322 25 c 0
 391 25 442 51 496 115 c 0
 503 123 507 125 514 125 c 0
 526 125 534 117 534 106 c 0
 534 96 522 79 496 55 c 0
 446 9 386 -16 322 -16 c 0
 196 -16 80 89 65 217 c 1
 33 217 l 2
 17 217 11 222 11 236 c 0
 11 249 17 254 33 254 c 2
 63 254 l 1
 63 314 l 1
 33 314 l 2
 17 314 11 319 11 333 c 0
 11 346 16 351 33 351 c 2
 65 351 l 1
 80 480 182 576 305 576 c 0
 371 576 497 544 519 424 c 1
EndSplineSet
Validated: 1
EndChar

StartChar: onesuperior
Encoding: 289 185 289
Width: 600
Flags: HMW
HStem: 259 37<211.5 212 212 226 211.5 390>
VStem: 283 36<295 563 563 563>
LayerCount: 2
Fore
SplineSet
283 259 m 1
 283 563 l 1
 218 542 l 2
 214 541 211 540 209 540 c 0
 201 540 192 549 192 558 c 0
 192 573 192 573 319 612 c 1
 319 259 l 1
 283 259 l 1
EndSplineSet
Validated: 1
EndChar

StartChar: twosuperior
Encoding: 290 178 290
Width: 600
Flags: W
HStem: 259 36<219 405> 576 36<244.49 343.076>
VStem: 186 35<508.015 552.591> 367 36<470.163 551.886>
LayerCount: 2
Fore
SplineSet
405 259 m 1
 175 259 l 1
 175 302 l 1
 307 425 l 2
 357 475 367 489 367 511 c 0
 367 546 333 576 295 576 c 0
 261 576 230 555 221 524 c 0
 218 513 212 508 203 508 c 0
 194 508 186 516 186 525 c 0
 186 536 194 554 205 568 c 0
 227 596 260 612 295 612 c 0
 353 612 403 565 403 511 c 0
 403 468 386 448 219 295 c 1
 405 295 l 1
 405 259 l 1
EndSplineSet
Validated: 1
EndChar

StartChar: threesuperior
Encoding: 291 179 291
Width: 600
Flags: W
HStem: 251 36<280 318 280 328> 431 36 576 36<285.5 319.5>
VStem: 368 36<505 536> 380 36<339 376 328.5 378>
LayerCount: 2
Fore
SplineSet
358 446 m 1xf0
 397 422 416 394 416 358 c 0
 416 299 361 251 295 251 c 0
 245 251 181 281 181 304 c 0
 181 313 189 321 198 321 c 0
 203 321 206 320 211 316 c 0
 241 295 265 287 295 287 c 0
 341 287 380 320 380 358 c 0xe8
 380 398 341 430 288 431 c 0
 275 432 267 438 267 449 c 0
 267 455 270 461 276 465 c 0
 279 467 279 467 304 467 c 0
 341 467 368 490 368 520 c 0
 368 552 339 576 300 576 c 0
 271 576 246 566 231 549 c 0
 225 541 221 539 215 539 c 0
 205 539 197 547 197 556 c 0
 197 581 254 612 300 612 c 0
 359 612 404 572 404 520 c 0
 404 490 391 468 358 446 c 1xf0
EndSplineSet
Validated: 1
EndChar

StartChar: degree
Encoding: 292 176 292
Width: 600
Flags: MW
HStem: 346 41<271 328.5 271 340> 595 41<271.5 328.5>
VStem: 155 41<463 520 463 532> 404 41<462.5 519.5>
LayerCount: 2
Fore
SplineSet
300 636 m 0
 380 636 445 571 445 491 c 0
 445 411 380 346 300 346 c 0
 219 346 155 411 155 493 c 0
 155 571 221 636 300 636 c 0
300 595 m 0
 243 595 196 548 196 492 c 0
 196 434 242 387 300 387 c 0
 357 387 404 434 404 491 c 0
 404 548 357 595 300 595 c 0
EndSplineSet
Validated: 1
EndChar

StartChar: minus
Encoding: 293 8722 293
Width: 600
Flags: MW
HStem: 261 41<90 501 99 501>
VStem: 72 456<275 288.5>
LayerCount: 2
Fore
SplineSet
99 302 m 2
 501 302 l 2
 519 302 528 295 528 282 c 0
 528 268 519 261 501 261 c 2
 99 261 l 2
 81 261 72 268 72 282 c 0
 72 295 81 302 99 302 c 2
EndSplineSet
Validated: 1
EndChar

StartChar: multiply
Encoding: 294 215 294
Width: 600
Flags: W
LayerCount: 2
Fore
SplineSet
300 311 m 1
 442 453 l 2
 451 462 455 464 461 464 c 0
 472 464 482 455 482 443 c 0
 482 437 479 432 471 424 c 2
 329 282 l 1
 471 139 l 2
 480 131 482 127 482 120 c 0
 482 109 473 100 461 100 c 0
 455 100 450 102 442 110 c 2
 300 253 l 1
 158 110 l 2
 150 103 145 100 139 100 c 0
 127 100 118 109 118 120 c 0
 118 127 121 132 128 139 c 2
 271 282 l 1
 128 424 l 2
 121 432 118 437 118 443 c 0
 118 455 127 464 139 464 c 0
 145 464 149 461 157 453 c 2
 300 311 l 1
EndSplineSet
Validated: 1
EndChar

StartChar: divide
Encoding: 295 247 295
Width: 600
Flags: W
HStem: 25 99<286.5 313.5> 262 40<90 501 99 501> 441 99<286.5 313.5>
VStem: 72 456<275.5 288.5> 251 99<61 88 477 504>
LayerCount: 2
Fore
SplineSet
501 262 m 2xf0
 99 262 l 2
 81 262 72 269 72 282 c 0
 72 295 81 302 99 302 c 2
 501 302 l 2
 519 302 528 295 528 282 c 0
 528 269 519 262 501 262 c 2xf0
300 124 m 0
 328 124 350 102 350 74 c 0
 350 47 327 25 300 25 c 0
 273 25 251 47 251 75 c 0xe8
 251 101 273 124 300 124 c 0
300 540 m 0
 328 540 350 518 350 490 c 0
 350 463 327 441 300 441 c 0
 273 441 251 463 251 491 c 0
 251 517 273 540 300 540 c 0
EndSplineSet
Validated: 1
EndChar

StartChar: trademark
Encoding: 296 8482 296
Width: 600
Flags: HMW
HStem: 243 33<49 108 55 108 141 195 287 301 334 371 494 531 564 579> 530 33<37 108 37 37 141 212 141 141 291 301 564 564 564 574>
VStem: 4 33<457 530> 108 33<276 530 276 530> 212 34<457 530 530 530> 301 33<276 520 276 530 276 530> 531 33<276 520 520 520>
LayerCount: 2
Fore
SplineSet
4 530 m 9
 4 563 l 1
 246 563 l 1
 246 530 l 17
 141 530 l 1
 141 243 l 9
 108 243 l 17
 108 530 l 1
 4 530 l 9
564 563 m 17
 564 243 l 9
 531 243 l 17
 531 520 l 1
 449 336 l 1
 417 336 l 1
 334 520 l 1
 334 243 l 9
 301 243 l 17
 301 563 l 9
 350 563 l 1
 433 379 l 1
 514 563 l 1
 564 563 l 17
EndSplineSet
Validated: 1
Ligature2: "'dlig' Discretionary Ligatures lookup 0-1" T M
LCarets2: 1 0 
EndChar

StartChar: plusminus
Encoding: 297 177 297
Width: 600
Flags: MW
HStem: 0 40<90 501 99 501> 301 40<90 279 99 279 320 500>
VStem: 279 41<139 301 341 502>
LayerCount: 2
Fore
SplineSet
320 301 m 1
 320 139 l 2
 320 121 313 112 300 112 c 0
 286 112 279 121 279 139 c 2
 279 301 l 1
 99 301 l 2
 81 301 72 308 72 321 c 0
 72 334 81 341 99 341 c 2
 279 341 l 1
 279 502 l 2
 279 520 286 529 300 529 c 0
 313 529 320 520 320 502 c 2
 320 341 l 1
 500 341 l 2
 519 341 528 335 528 321 c 0
 528 308 519 301 500 301 c 2
 320 301 l 1
99 40 m 2
 501 40 l 2
 519 40 528 33 528 20 c 0
 528 7 519 0 501 0 c 2
 99 0 l 2
 81 0 72 7 72 20 c 0
 72 33 81 40 99 40 c 2
EndSplineSet
Validated: 1
EndChar

StartChar: onehalf
Encoding: 298 189 298
Width: 600
Flags: W
HStem: 0 36<387 573> 317 36<412.49 511.076> 592 20G<87.5 151>
VStem: 115 36<259 563> 354 35<249.015 293.591> 535 36<211.163 292.886>
LayerCount: 2
Fore
SplineSet
485 477 m 2
 134 63 l 2
 126 53 122 51 116 51 c 0
 105 51 96 60 96 71 c 0
 96 75 99 81 105 88 c 2
 455 502 l 2
 464 512 467 514 473 514 c 0
 484 514 493 505 493 494 c 0
 493 490 489 483 485 477 c 2
115 259 m 9
 115 563 l 1
 50 542 l 2
 46 541 43 540 41 540 c 0
 33 540 24 549 24 558 c 0
 24 573 24 573 151 612 c 1
 151 259 l 1
 138.536 258.792 130.12 258.715 124.582 258.715 c 0
 117.311 258.715 115 258.849 115 259 c 9
573 0 m 1
 343 0 l 1
 343 43 l 1
 475 166 l 2
 525 216 535 230 535 252 c 0
 535 287 501 317 463 317 c 0
 429 317 398 296 389 265 c 0
 386 254 380 249 371 249 c 0
 362 249 354 257 354 266 c 0
 354 277 362 295 373 309 c 0
 395 337 428 353 463 353 c 0
 521 353 571 306 571 252 c 0
 571 209 554 189 387 36 c 1
 573 36 l 1
 573 0 l 1
EndSplineSet
Validated: 1
EndChar

StartChar: onequarter
Encoding: 299 188 299
Width: 600
Flags: HMW
HStem: 0 36<467.5 510 489.5 510 546 559> 93 36<401 510 401 510 546 555> 259 37<36.5 37 37 51 36.5 215> 309 36<508 510 508 508>
VStem: 108 36<295 563 563 563> 510 36<36 93 36 93 129 309 309 309>
LayerCount: 2
Fore
SplineSet
109 259 m 9
 109 563 l 1
 44 542 l 2
 40 541 37 540 35 540 c 0
 27 540 18 549 18 558 c 0
 18 573 18 573 145 612 c 1
 145 259 l 1
 132.531 258.793 124.114 258.715 118.575 258.715 c 0
 111.31 258.715 109 258.849 109 259 c 9
492 477 m 2
 141 63 l 2
 133 53 129 51 123 51 c 0
 112 51 103 60 103 71 c 0
 103 75 106 81 112 88 c 2
 462 502 l 2
 471 512 474 514 480 514 c 0
 491 514 500 505 500 494 c 0
 500 490 496 483 492 477 c 2
510 0 m 1
 510 93 l 1
 361 93 l 1
 361 127 l 1
 489 345 l 1
 546 345 l 1
 546 129 l 1
 559 129 l 2
 572 129 580 122 580 111 c 0
 580 99 571 93 555 93 c 2
 546 93 l 1
 546 0 l 1
 546 0 469 0 510 0 c 1
510 129 m 1
 510 309 l 1
 508 309 l 1
 401 129 l 1
 510 129 l 1
EndSplineSet
Validated: 37
EndChar

StartChar: threequarters
Encoding: 300 190 300
Width: 600
Flags: W
HStem: 0 21G<497.975 546> 93 36<401 510 546 579.993> 251 36<54.3697 174.982> 431 36<101.139 172.43> 576 36<66.1709 175.553>
VStem: 193 36<483.277 558.226> 205 36<316.216 401.119> 510 36<0 93 129 309>
LayerCount: 2
Fore
SplineSet
510 0 m 1xf9
 510 93 l 1
 361 93 l 1
 361 127 l 1
 489 345 l 1
 546 345 l 1
 546 129 l 1
 559 129 l 2
 572 129 580 122 580 111 c 0
 580 99 571 93 555 93 c 2
 546 93 l 1
 546 0 l 1
 497.975 0 l 0
 510 0 l 1xf9
510 129 m 1
 510 309 l 1
 508 309 l 1
 401 129 l 1
 510 129 l 1
183 446 m 1
 222 422 241 394 241 358 c 0
 241 299 186 251 120 251 c 0
 70 251 6 281 6 304 c 0
 6 313 14 321 23 321 c 0
 28 321 31 320 36 316 c 0
 66 295 90 287 120 287 c 0
 166 287 205 320 205 358 c 0xfb
 205 398 166 430 113 431 c 0
 100 432 92 438 92 449 c 0
 92 455 95 461 101 465 c 0
 104 467 104 467 129 467 c 0
 166 467 193 490 193 520 c 0
 193 552 164 576 125 576 c 0
 96 576 71 566 56 549 c 0
 50 541 46 539 40 539 c 0
 30 539 22 547 22 556 c 0
 22 581 79 612 125 612 c 0
 184 612 229 572 229 520 c 0xfd
 229 490 216 468 183 446 c 1
491 477 m 2
 140 63 l 2
 132 53 128 51 122 51 c 0
 111 51 102 60 102 71 c 0
 102 76 104 80 111 88 c 2
 461 502 l 2
 470 512 473 514 479 514 c 0
 490 514 499 505 499 494 c 0
 499 490 495 483 491 477 c 2
EndSplineSet
Validated: 5
EndChar

StartChar: commaaccent
Encoding: 301 -1 301
Width: 600
Flags: W
LayerCount: 2
Fore
SplineSet
359 -97 m 1
 275 -223 l 2
 267 -234 263 -237 254 -237 c 0
 243 -237 234 -228 234 -216 c 0
 234 -212 236 -207 241 -200 c 2
 325 -74 l 2
 332 -64 338 -60 346 -60 c 0
 358 -60 367 -69 367 -81 c 0
 367 -84 365 -88 362 -93 c 2
 359 -97 l 1
EndSplineSet
Validated: 1
EndChar

StartChar: copyright
Encoding: 302 169 302
Width: 600
Flags: HMW
HStem: -15 41<227.5 368.5 227.5 380> 111 36<271 320 271 320> 414 36<264 308 254 315.5> 537 41<229.5 370>
VStem: 3 41<212 352.5 212 363.5> 153 36<260 263 263 302> 381 36<421 423> 555 41<210.5 352>
LayerCount: 2
Fore
SplineSet
417 358 m 1
 417 344.667 411 338 399 338 c 0
 389 338 383 344.333 381 357 c 0
 379.667 372.333 370.333 385.667 353 397 c 128
 335.667 408.333 315.667 414 293 414 c 0
 264.333 414 239.833 403.167 219.5 381.5 c 128
 199.167 359.833 189 333.333 189 302 c 2
 189 263 l 2
 189 231.667 200.167 204.5 222.5 181.5 c 128
 244.833 158.5 271.333 147 302 147 c 0
 335.333 147 365.333 162.667 392 194 c 0
 396.667 199.333 402 202 408 202 c 0
 412.667 202 416.667 200.333 420 197 c 128
 423.333 193.667 425 189.667 425 185 c 0
 425 176.333 417.333 165.333 402 152 c 0
 372.667 124.667 339.333 111 302 111 c 0
 262.667 111 228 126 198 156 c 128
 168 186 153 220.667 153 260 c 2
 153 305 l 2
 153 345 166.667 379.167 194 407.5 c 128
 221.333 435.833 254 450 292 450 c 0
 306 450 320.667 448.167 336 444.5 c 128
 351.333 440.833 367.5 431.5 384.5 416.5 c 128
 401.5 401.5 412.333 382 417 358 c 1
300 578 m 0
 381.333 578 451 549 509 491 c 128
 567 433 596 363.333 596 282 c 0
 596 198.667 567 128.333 509 71 c 128
 451 13.6667 380 -15 296 -15 c 0
 216 -15 147.167 14.1667 89.5 72.5 c 128
 31.8333 130.833 3 200.667 3 282 c 128
 3 363.333 32 433 90 491 c 128
 148 549 218 578 300 578 c 0
300 537 m 0
 229.333 537 169 512.167 119 462.5 c 128
 69 412.833 44 352.667 44 282 c 0
 44 212 68.8333 151.833 118.5 101.5 c 128
 168.167 51.1667 227.333 26 296 26 c 0
 368.667 26 430 50.8333 480 100.5 c 128
 530 150.167 555 210.667 555 282 c 0
 555 352 530 412 480 462 c 128
 430 512 370 537 300 537 c 0
EndSplineSet
Validated: 1
EndChar

StartChar: registered
Encoding: 303 174 303
Width: 600
Flags: HMW
HStem: -15 41<227.5 368.5 227.5 380> 120 36<166.5 197 173 197 233 269 431 446> 258 36<233 289 233 289 289 296> 407 36<166.5 311 173 197 233 233 233 310> 537 41<229.5 370>
VStem: 3 41<212 352.5 212 363.5> 197 36<156 258 294 407> 380 36<334 368> 555 41<210.5 352>
LayerCount: 2
Fore
SplineSet
446 120 m 9
 407 120 l 1
 370 198 331 246 296 258 c 1
 233 258 l 1
 233 120 l 9
 197 120 l 17
 197 443 l 9
 311 443 l 2
 372 443 416 404 416 350 c 0
 416 312 389 281 346 269 c 1
 381.5 246.5 429.25 168.25 446 120 c 9
233 294 m 1
 289 294 l 2
 345 294 380 316 380 352 c 0
 380 384 351 407 310 407 c 2
 233 407 l 1
 233 294 l 1
300 578 m 0
 463 578 596 445 596 282 c 0
 596 116 464 -15 296 -15 c 0
 136 -15 3 120 3 282 c 0
 3 445 136 578 300 578 c 0
300 537 m 0
 159 537 44 423 44 282 c 0
 44 142 159 26 296 26 c 0
 441 26 555 139 555 282 c 0
 555 422 440 537 300 537 c 0
EndSplineSet
Validated: 1
EndChar

StartChar: lozenge
Encoding: 304 9674 304
Width: 600
Flags: W
LayerCount: 2
Fore
SplineSet
299 575 m 1
 511 283 l 1
 299 -11 l 1
 89 283 l 1
 299 575 l 1
299 509 m 1
 143 283 l 1
 299 57 l 1
 456 283 l 1
 299 509 l 1
EndSplineSet
Validated: 1
EndChar

StartChar: Delta
Encoding: 305 916 305
Width: 600
Flags: MW
HStem: 0 40<103 497 103 557> 543 20<278 322 322 322>
LayerCount: 2
Fore
SplineSet
43 0 m 1
 278 563 l 1
 322 563 l 1
 557 0 l 1
 43 0 l 1
103 40 m 1
 497 40 l 1
 300 513 l 1
 103 40 l 1
EndSplineSet
Validated: 1
EndChar

StartChar: notequal
Encoding: 306 8800 306
Width: 600
Flags: MW
HStem: 190 40<69 251 78 231 78 276 297 522> 334 40<69 323 78 303 78 349 369 522>
VStem: 51 498<203.5 216.5 203.5 217 347.5 360.5>
LayerCount: 2
Fore
SplineSet
231 190 m 1
 78 190 l 2
 60 190 51 197 51 210 c 0
 51 224 60 230 78 230 c 2
 251 230 l 1
 303 334 l 1
 78 334 l 2
 60 334 51 341 51 354 c 0
 51 367 60 374 78 374 c 2
 323 374 l 1
 363 453 l 2
 367 460 372 464 380 464 c 0
 392 464 403 455 403 444 c 0
 403 442 402 439 401 437 c 2
 369 374 l 1
 522 374 l 2
 540 374 549 367 549 354 c 0
 549 341 540 334 522 334 c 2
 349 334 l 1
 297 230 l 1
 522 230 l 2
 540 230 549 223 549 210 c 0
 549 197 540 190 522 190 c 2
 276 190 l 1
 233 105 l 2
 229 98 224 94 216 94 c 0
 204 94 194 102 194 113 c 0
 194 116 195 118 196 121 c 2
 231 190 l 1
EndSplineSet
Validated: 1
EndChar

StartChar: radical
Encoding: 307 8730 307
Width: 600
Flags: MW
HStem: 272 37<42 147 49 115> 663 36<431 606 431 431>
LayerCount: 2
Fore
SplineSet
147 309 m 1
 202 99 l 1
 402 699 l 1
 606 699 l 2
 620 699 628 693 628 681 c 0
 628 670 620 663 606 663 c 2
 431 663 l 1
 199 0 l 1
 115 272 l 1
 49 272 l 2
 35 272 27 279 27 290 c 2
 27 291 l 2
 27 302 35 309 49 309 c 2
 147 309 l 1
EndSplineSet
Validated: 1
EndChar

StartChar: lessequal
Encoding: 308 8804 308
Width: 600
Flags: MW
HStem: 0 37<68 494 75 494>
VStem: 53 463<18 19 12.5 24.5 12.5 326>
LayerCount: 2
Fore
SplineSet
132 325 m 1
 511 147 l 2
 521 142 525 137 525 129 c 0
 525 120 517 111 509 111 c 0
 506 111 501 112 496 115 c 2
 53 326 l 1
 496 532 l 2
 501 534 505 535 508 535 c 0
 517 535 525 526 525 517 c 0
 525 509 521 504 511 500 c 2
 132 325 l 1
516 19 m 2
 516 18 l 2
 516 7 508 0 494 0 c 2
 75 0 l 2
 61 0 53 7 53 18 c 2
 53 19 l 2
 53 30 61 37 75 37 c 2
 494 37 l 2
 508 37 516 30 516 19 c 2
EndSplineSet
Validated: 1
EndChar

StartChar: greaterequal
Encoding: 309 8805 309
Width: 600
Flags: MW
HStem: 0 37<83 509 90 509>
VStem: 68 463<18 19 12.5 24.5>
LayerCount: 2
Fore
SplineSet
531 326 m 1
 88 115 l 2
 83 112 78 111 76 111 c 0
 67 111 59 120 59 129 c 0
 59 137 63 143 73 147 c 2
 453 325 l 1
 73 500 l 2
 63 504 59 509 59 517 c 0
 59 526 67 535 76 535 c 0
 79 535 83 534 88 532 c 2
 531 326 l 1
90 37 m 2
 509 37 l 2
 523 37 531 30 531 19 c 2
 531 18 l 2
 531 7 523 0 509 0 c 2
 90 0 l 2
 76 0 68 7 68 18 c 2
 68 19 l 2
 68 30 76 37 90 37 c 2
EndSplineSet
Validated: 1
EndChar

StartChar: logicalnot
Encoding: 310 172 310
Width: 600
Flags: MW
HStem: 397 41<90 528 99 487>
VStem: 487 41<195 397 397 397>
LayerCount: 2
Fore
SplineSet
487 397 m 1
 99 397 l 2
 81 397 72 404 72 418 c 0
 72 431 81 438 99 438 c 2
 528 438 l 1
 528 195 l 2
 528 177 521 168 507 168 c 0
 494 168 487 177 487 195 c 2
 487 397 l 1
EndSplineSet
Validated: 1
EndChar

StartChar: summation
Encoding: 311 8721 311
Width: 600
Flags: W
HStem: -127 40<127.5 464 156 464 156 485> -127 175<135 491> 523 40<162 454 162 162>
VStem: 113 387<531 541 404.5 544 404.5 550> 113 394<-108 -105 -105 -92 -92 -88>
LayerCount: 2
Fore
SplineSet
454 523 m 1xb0
 162 523 l 1
 336 267 l 2
 341 261 342 258 342 254 c 0
 342 250 341 248 338 242 c 2
 156 -87 l 1
 464 -87 l 1xb0
 469 27 l 2
 470 39 476 48 485 48 c 2
 491 48 l 2
 500 48 507 39 507 26 c 2
 507 -105 l 2
 507 -121 501 -127 485 -127 c 2
 135 -127 l 2
 120 -127 113 -120 113 -108 c 2
 113 -92 l 2x68
 113 -84 113 -84 117 -76 c 2
 298 257 l 1
 119 513 l 2
 113 521 113 521 113 531 c 2
 113 544 l 2
 113 556 121 563 135 563 c 2
 478 563 l 2
 494 563 500 557 500 541 c 2
 500 411 l 2
 500 398 494 389 484 389 c 2
 479 389 l 2
 470 389 464 397 463 410 c 2
 454 523 l 1xb0
EndSplineSet
Validated: 1
EndChar

StartChar: partialdiff
Encoding: 312 8706 312
Width: 600
Flags: MW
HStem: -17 42<248 351.5 248 362.5> 390 42<248 328 237.5 352.5> 541 41
VStem: 71 42<157 258.5 157 269> 487 42<155.5 252.5 146 257.5>
LayerCount: 2
Fore
SplineSet
156 560 m 1
 155 565 l 2
 155 568 162 577 166 579 c 0
 171 581 188 582 225 582 c 0
 288 582 384 534 430 480 c 0
 487 413 529 298 529 207 c 0
 529 85 425 -17 300 -17 c 0
 175 -17 71 85 71 208 c 0
 71 330 175 432 300 432 c 0
 356 432 406 413 451 376 c 1
 394 483 308 540 203 541 c 0
 187 540 178 540 177 540 c 0
 164 540 157 547 156 558 c 2
 156 560 l 1
300 390 m 0
 196 390 113 309 113 208 c 0
 113 106 196 25 300 25 c 0
 403 25 487 106 487 205 c 0
 487 310 405 390 300 390 c 0
EndSplineSet
Validated: 1
EndChar

StartChar: brokenbar
Encoding: 313 166 313
Width: 600
Flags: MW
HStem: -124 321<293.5 306.5> 283 321<293.5 306.5>
VStem: 280 40<-97 170 310 577>
LayerCount: 2
Fore
SplineSet
320 577 m 2
 320 310 l 2
 320 292 313 283 300 283 c 0
 287 283 280 292 280 310 c 2
 280 577 l 2
 280 595 287 604 300 604 c 0
 313 604 320 595 320 577 c 2
320 170 m 2
 320 -97 l 2
 320 -115 313 -124 300 -124 c 0
 287 -124 280 -115 280 -97 c 2
 280 170 l 2
 280 188 287 197 300 197 c 0
 313 197 320 188 320 170 c 2
EndSplineSet
Validated: 1
EndChar

StartChar: mu
Encoding: 314 956 314
Width: 600
Flags: W
HStem: -16 40<237.5 290 229 290.5> 0 40<480 514 480 514> 377 40<61 165 70 124 365 439>
VStem: 124 41<-173 16 88 115 115 377 377 377> 439 41<40 59 59 59 115 377 377 377>
LayerCount: 2
Fore
SplineSet
165 16 m 1xb8
 165 -173 l 2
 165 -191 158 -200 144 -200 c 0
 131 -200 124 -191 124 -173 c 2
 124 377 l 1
 70 377 l 2
 52 377 43 384 43 397 c 0
 43 411 52 417 70 417 c 2
 165 417 l 1
 165 115 l 2
 165 61 202 24 256 24 c 0xb8
 324 24 384 54 439 115 c 1
 439 377 l 1
 365 377 l 2
 346 377 337 384 337 397 c 0
 337 411 346 417 365 417 c 2
 480 417 l 1
 480 40 l 1
 514 40 l 2
 532 40 541 34 541 20 c 0
 541 7 532 0 514 0 c 2
 439 0 l 1x78
 439 59 l 1
 387 10 323 -16 258 -16 c 0
 217 -16 192 -8 165 16 c 1xb8
EndSplineSet
Validated: 1
EndChar

StartChar: afii10018
Encoding: 316 1041 316
Width: 600
Flags: W
HStem: 0 41<174 452.279> 272 41<174 438.965> 522 41<174 517>
VStem: 134 40<41 272 313 522> 510 39<95.9823 207.271>
LayerCount: 2
Fore
SplineSet
517 522 m 6
 174 522 l 1
 174 313 l 1
 320 313 l 2
 504 313 549 220 549 153 c 0
 549 69 476 0 384 0 c 2
 134 0 l 2
 134 563 l 2
 517 563 l 1
 517 522 l 6
174 41 m 1
 382 41 l 2
 452 41 510 91 510 153 c 0
 510 189 486 225 448 247 c 0
 418 264 382 272 324 272 c 2
 174 272 l 1
 174 41 l 1
EndSplineSet
Validated: 1
EndChar

StartChar: afii10019
Encoding: 317 1042 317
Width: 600
Flags: HMW
HStem: 0 41<70 132 80 132 173 382 382 384> 272 41<173 320 320 322 173 320> 522 41<70 336 80 132 173 173 173 336 336 338>
VStem: 132 41<41 272 313 522> 466 40<392 447> 508 41<122 171>
LayerCount: 2
Fore
SplineSet
130 0 m 1
 130 563 l 1
 334 563 l 2
 431 563 505 500 505 418 c 0
 505 367 479 330 420 298 c 1
 504 268 547 220 547 153 c 0
 547 69 473 0 382 0 c 2
 130 0 l 1
318 313 m 2
171 313 m 1
 318 313 l 2
 403 313 464 357 464 419 c 0
 464 477 408 522 335 522 c 2
 171 522 l 1
 171 313 l 1
171 41 m 1
 379 41 l 2
 450 41 506 91 506 153 c 0
 506 189 484 224 447 246 c 0
 415 265 381 272 320 272 c 2
 171 272 l 1
 171 41 l 1
EndSplineSet
Validated: 1
EndChar

StartChar: afii10020
Encoding: 318 1043 318
Width: 600
Flags: HMW
HStem: 0 41<80 142 88 142 184 322> 522 41<80 539 88 142 184 184 184 498>
VStem: 142 42<41 522> 498 41<423 522 522 522>
LayerCount: 2
Fore
SplineSet
539 522 m 2
 184 522 l 1
 184 0 l 2
 142 0 l 2
 142 563 l 2
 539 563 l 1
 539 522 l 2
EndSplineSet
Validated: 1
EndChar

StartChar: afii10021
Encoding: 319 1044 319
Width: 600
Flags: HMW
HStem: 0 41<73 140 184 428 469 526 73 73> 522 41<139 494 148 174 215 215 215 428 469 469 469 494>
VStem: 32 41<-99 0> 174 41<108 522> 428 41<41 522 41 522> 526 41<-99 0 0 0>
LayerCount: 2
Fore
SplineSet
469 563 m 2
 469 41 l 1
 567 41 l 1
 567 -99 l 2
 567 -116 562 -126 548 -126 c 0
 532 -126 526 -116 526 -99 c 2
 526 0 l 1
 73 0 l 1
 73 -99 l 2
 73 -116 68 -126 54 -126 c 0
 40 -126 32 -116 32 -99 c 2
 32 41 l 1
 140 41 l 1
 140 41 174 75 174 108 c 2
 174 563 l 2
 469 563 l 2
184 41 m 1
 428 41 l 1
 428 522 l 1
 215 522 l 1
 215 108 l 2
 215 57 184 41 184 41 c 1
EndSplineSet
Validated: 1
EndChar

StartChar: afii10023
Encoding: 321 1025 321
Width: 600
Flags: HMW
HStem: 0 41<81 144 90 144 185 500> 272 41<185 330 185 330> 522 41<81 518 90 144 185 185 185 478>
VStem: 144 41<41 272 313 522> 200 65<668 725 658.5 734> 330 41<226 272 272 272 313 358> 376 65<668 725 658.5 734> 500 39<41 160 0 169>
LayerCount: 2
Fore
SplineSet
200 751 m 2
 226 751 l 2
 238 751 245 743 245 725 c 2
 245 668 l 2
 245 649 238 641 226 641 c 2
 200 641 l 2
 188 641 180 649 180 668 c 2
 180 725 l 2
 180 743 188 751 200 751 c 2
376 751 m 2
 402 751 l 2
 412 751 421 743 421 725 c 2
 421 668 l 2
 421 649 412 641 402 641 c 2
 376 641 l 2
 364 641 356 649 356 668 c 2
 356 725 l 2
 356 743 364 751 376 751 c 2
EndSplineSet
Refer: 37 69 N 1 0 0 1 0 0 2
Validated: 1
EndChar

StartChar: afii10024
Encoding: 322 1046 322
Width: 600
Flags: HMW
HStem: 0 41<28 60 36 60 36 92 250 280 322 348 538 564> 522 41<29 126 38 58 108 108 108 126 250 280 322 348 322 322 474 492 542 542 542 560>
VStem: 280 42<41 286 41 286 336 522>
LayerCount: 2
Fore
SplineSet
549 -0.000976562 m 1
 549 0 l 1
 508 0 l 1
 464 190 415 244 322 286 c 1
 322 0 l 1
 280 0 l 1
 280 286 l 1
 186 244 134 190 92 0 c 1
 51.0039 -0.00488281 l 1
 78.667 200 158 274 246 316 c 1
 20 563 l 1
 70 563 l 1
 280 336 l 1
 280 563 l 1
 322 563 l 1
 322 336 l 1
 529 563 l 1
 580 563 l 1
 354 316 l 1
 442 274 522 200.667 549 -0.000976562 c 1
 549 -0.000976562 l 1
EndSplineSet
Validated: 5
EndChar

StartChar: afii10025
Encoding: 323 1047 323
Width: 600
Flags: W
HStem: -16 41<209.988 388.81> 269 42<214.029 382.751> 535 42<215.478 380.494>
VStem: 92 41<88.5671 166.993> 114 44<407.082 483.29> 442 44<359.562 481.178> 464 44<87.7735 215.989>
LayerCount: 2
Fore
SplineSet
114 434 m 0xec
 114 521 212.003 580.25 305 577 c 0
 398.134 573.745 486 508 486 421 c 0xec
 486 379 468 340 434 316 c 1
 422 310 412 303 398 299 c 1
 398 291 l 1
 418 285 432 278 446 269 c 0
 486 245 508 201 508 151 c 0
 508 53 407.481 -13.29 305 -16 c 0
 202.069 -18.7217 92 37.0332 92 140 c 0
 92 158 98 167 112 167 c 0
 126 167 131 157 133 142 c 0
 134 77 210 25 300 25 c 0
 394 25 464 79 464 153 c 0xf2
 464 189 446 220 418 237 c 0
 394 253 368 269 302 269 c 2
 242 269 l 2
 224 269 214 277 214 291 c 0
 214 303 224 311 242 311 c 2
 288 311 l 2
 346 311 376 327 402 343 c 0
 428 360 442 390 442 420 c 0
 442 486 380 535 298 535 c 0
 220 535 160 491 158 429 c 0
 156 414 148 407 134 407 c 0
 122 407 114 415 114 434 c 0xec
EndSplineSet
Validated: 33
EndChar

StartChar: afii10026
Encoding: 324 1048 324
Width: 600
Flags: HMW
HStem: 0 41<69 124 78 124 165 220 382 436 475 524> 522 41<90 220 98 124 165 165 165 220 382 436 475 475 475 502>
VStem: 124 41<41 108 162 522> 436 39<41 377 377 377 429 522 41 522>
LayerCount: 2
Fore
SplineSet
124.001 0.00292969 m 2
 124.005 562.999 l 2
 164.997 563 l 2
 165 162 l 1
 436 429 l 1
 436.001 563 l 2
 474.997 562.998 l 2
 474.997 0 l 2
 436.002 -0.000976562 l 2
 436 377 l 1
 165 108 l 1
 165.001 0.00292969 l 2
 124.001 0.00292969 l 2
EndSplineSet
Validated: 1
EndChar

StartChar: afii10027
Encoding: 325 1049 325
Width: 600
Flags: HMW
HStem: 0 41<69 124 78 124 165 220 382 436 475 524> 522 41<90 220 98 124 165 165 165 220 382 436 475 475 475 502> 642 40<272 327 272 341>
VStem: 124 41<41 108 162 522> 436 39<41 377 377 377 429 522 41 522>
LayerCount: 2
Fore
SplineSet
176 770 m 0
 188 770 192 764 196 748 c 0
 200 711 244 682 300 682 c 0
 354 682 400 711 404 748 c 0
 406 764 412 770 424 770 c 0
 436 770 444 763 444 747 c 0
 444 689 382 642 300 642 c 0
 220 642 156 689 156 747 c 0
 156 763 162 770 176 770 c 0
EndSplineSet
Refer: 324 1048 N 1 0 0 1 0 0 2
Validated: 1
EndChar

StartChar: afii10029
Encoding: 327 1051 327
Width: 600
Flags: HMW
HStem: 0 41<135 149 135 160 380 434 475 520> 522 41<153 227 162 186 162 227 227 434 475 475 475 500>
VStem: 54 42<77 80 80 99 66.5 107.5> 186 41<80 522> 434 41<41 522 41 522>
LayerCount: 2
Fore
SplineSet
434 0 m 6
 434 522 l 1
 227 522 l 1
 227 77 l 2
 227 24 182 0 138 0 c 0
 110 0 54 25 54 77 c 2
 54 99 l 2
 54 116 60 127 72 127 c 0
 86 127 96 118 96 99 c 2
 96 80 l 2
 96 53 128 41 142 41 c 0
 156 41 185.986 46 186 80 c 2
 186.192 563 l 1
 475 563 l 2
 475 0 l 2
 434 0 l 6
EndSplineSet
Validated: 1
EndChar

StartChar: afii10033
Encoding: 331 1055 331
Width: 600
Flags: HMW
HStem: 0 41<71 124 80 124 165 220 382 434 476 522> 522 41<91 502 100 124 165 434 165 165 476 476 476 502>
VStem: 124 41<41 522 41 522> 434 42<41 522 41 522>
LayerCount: 2
Fore
SplineSet
476 563 m 6
 476 0 l 2
 434 0 l 2
 434 522 l 1
 165 522 l 1
 165 0 l 2
 124 0 l 2
 124 563 l 2
 476 563 l 6
EndSplineSet
Validated: 1
EndChar

StartChar: afii10037
Encoding: 335 1059 335
Width: 600
Flags: HMW
HStem: 0 41<111 184 120 184 234 252> 522 41<67 186 76 92 144 144 144 186 412 458 508 508 508 524>
LayerCount: 2
Fore
SplineSet
161 0 m 6
 288 226 l 1
 65 563 l 2
 117 563 l 2
 314 264 l 1
 481 563 l 2
 531 563 l 2
 211 0 l 2
 161 0 l 6
EndSplineSet
Validated: 1
EndChar

StartChar: afii10038
Encoding: 336 1060 336
Width: 600
Flags: HMW
HStem: 0 41<154 280 162 280 321 434> 131 40<198 200 200 280 321 398> 421 41<170 280 214 280 321 384 384 386> 522 41<154 434 162 280 321 321 321 434>
VStem: 14 38<261 330.5 261 342> 280 41<41 131 41 131 171 421 462 522> 546 39<261 330.5>
LayerCount: 2
Fore
SplineSet
280 421 m 1
 214 421 l 2
 126 421 52 365 52 296 c 0
 52 226 120 171 198 171 c 2
 280 171 l 1
 280 421 l 1
280 0 m 6
 280 131 l 1
 200 131 l 2
 96 131 14 201 14 296 c 0
 14 388 102 462 214 462 c 2
 280 462 l 1
 280 563 l 2
 321 563 l 2
 321 462 l 1
 384 462 l 2
 496 462 585 388 585 296 c 0
 585 201 504 131 398 131 c 2
 321 131 l 1
 321 0 l 2
 280 0 l 6
321 421 m 1
 321 171 l 1
 400 171 l 2
 482 171 546 226 546 296 c 0
 546 365 476 421 386 421 c 2
 321 421 l 1
EndSplineSet
Validated: 1
EndChar

StartChar: afii10040
Encoding: 338 1062 338
Width: 600
Flags: HMW
HStem: 0 41<89 124 98 124 164 434 476 508> 522 41<68 220 76 124 164 164 164 220 380 434 476 476 476 522>
VStem: 124 40<41 522 41 522> 434 42<41 522 41 522> 508 42<-99 0 0 0>
LayerCount: 2
Fore
SplineSet
124 0 m 6
 124 563 l 2
 164 563 l 2
 164 41 l 1
 434 41 l 1
 434 563 l 2
 476 563 l 2
 476 41 l 1
 550 41 l 1
 550 -99 l 2
 550 -116 542 -126 530 -126 c 0
 516 -126 508 -116 508 -99 c 2
 508 0 l 1
 124 0 l 6
EndSplineSet
Validated: 1
EndChar

StartChar: afii10041
Encoding: 339 1063 339
Width: 600
Flags: HMW
HStem: 0 41<362 426 370 426 465 512> 230 39<256 309> 522 41<79 208 88 116 156 156 156 208 370 426 465 465 465 492>
VStem: 116 40<357 365 365 522> 426 39<41 267 267 267 314 522 41 522>
LayerCount: 2
Fore
SplineSet
426 0 m 6
 426 267 l 1
 390 241 326 230 292 230 c 0
 220 230 116 252.923 116 357 c 2
 116 563 l 2
 156 563 l 2
 156 365 l 2
 156 310 184 269 296 269 c 0
 332 269 398 283 426 314 c 1
 426 563 l 2
 465 563 l 2
 465 0 l 2
 426 0 l 6
EndSplineSet
Validated: 1
EndChar

StartChar: afii10042
Encoding: 340 1064 340
Width: 600
Flags: HMW
HStem: 0 41<-7 24 2 24 2 67 67 280 321 530 573 598> 522 41<-29 122 -20 24 67 67 67 122 226 280 321 321 321 366 478 530 573 573 573 618>
VStem: 24 43<41 522> 280 41<41 522> 530 43<0 522 41 522 41 522>
LayerCount: 2
Fore
SplineSet
24 0 m 5
 24 563 l 2
 67 563 l 2
 67 41 l 1
 280 41 l 1
 280 563 l 2
 321 563 l 2
 321 41 l 1
 530 41 l 1
 530 563 l 2
 573 563 l 2
 573 0 l 2
 24 0 l 5
EndSplineSet
Validated: 1
EndChar

StartChar: afii10043
Encoding: 341 1065 341
Width: 600
Flags: HMW
HStem: 0 41<25 60 34 60 99 268 309 478 519 554> 522 41<25 126 34 60 99 99 99 126 244 268 309 309 309 334 454 478 519 519 519 544>
VStem: 60 39<41 522 41 522> 268 41<41 522 41 522> 478 41<41 522 41 522> 554 41<-99 0 0 0>
LayerCount: 2
Fore
SplineSet
60 0 m 6
 60 563 l 2
 99 563 l 2
 99 41 l 1
 268 41 l 1
 268 563 l 2
 309 563 l 2
 309 41 l 1
 478 41 l 1
 478 563 l 2
 519 563 l 2
 519 41 l 1
 595 41 l 1
 595 -99 l 2
 595 -116 586 -126 574 -126 c 0
 560 -126 554 -116 554 -99 c 2
 554 0 l 1
 60 0 l 6
EndSplineSet
Validated: 1
EndChar

StartChar: afii10044
Encoding: 342 1066 342
Width: 600
Flags: HMW
HStem: 0 41<128 192 136 192 233 378> 291 41<233 364 233 364 364 366> 522 41<74 74 74 192 233 233 233 262>
VStem: 34 40<423 522> 192 41<41 291 332 522> 526 41<131 199.5>
LayerCount: 2
Fore
SplineSet
192 0 m 6
 192 522 l 1
 34 522 l 2
 34 563 l 1
 233 563 l 2
 233 332 l 1
 364 332 l 2
 478 332 567 258 567 165 c 0
 567 72 484 0 378 0 c 2
 192 0 l 6
233 291 m 1
 233 41 l 1
 382 41 l 2
 460 41 526 97 526 165 c 0
 526 234 452 291 366 291 c 2
 233 291 l 1
EndSplineSet
Validated: 1
EndChar

StartChar: afii10045
Encoding: 343 1067 343
Width: 600
Flags: HMW
HStem: 0 41<27 64 36 64 105 250 462 494 535 564> 291 41<105 236 105 236 236 240> 522 41<27 138 36 64 105 105 105 138 462 494 535 564 535 535>
VStem: 64 41<41 291 332 522> 398 41<131 199.5> 494 41<41 522 41 522>
LayerCount: 2
Fore
SplineSet
535 0 m 2
 494 0 l 2
 494 563 l 2
 535 563 l 2
 535 0 l 2
64 0 m 6
 64 563 l 2
 105 563 l 2
 105 332 l 1
 236 332 l 2
 352 332 439 258 439 165 c 0
 439 72 356 0 250 0 c 2
 64 0 l 6
105 291 m 1
 105 41 l 1
 256 41 l 2
 334 41 398 97 398 165 c 0
 398 234 328 291 240 291 c 2
 105 291 l 1
EndSplineSet
Validated: 1
EndChar

StartChar: afii10046
Encoding: 344 1068 344
Width: 600
Flags: HMW
HStem: -2 41<74 136 84 136 177 358> 289 43<177 344 177 344 344 346> 520 41<74 294 84 136 177 177 177 294>
VStem: 136 41<39 289 332 520> 506 41<130 198.5>
LayerCount: 2
Fore
SplineSet
177 289 m 1
 177 39 l 1
 360 39 l 2
 440 39 506 96 506 164 c 0
 506 233 434 289 346 289 c 2
 177 289 l 1
136 -2 m 6
 136 561 l 2
 177 561 l 2
 177 332 l 1
 344 332 l 2
 458 332 547 258 547 164 c 0
 547 72 462 -2 358 -2 c 2
 136 -2 l 6
EndSplineSet
Validated: 1
EndChar

StartChar: afii10047
Encoding: 345 1069 345
Width: 600
Flags: HMW
HStem: -16 41<243 334 241 343> 272 41<215 494 224 494> 535 42<261 327 261 349>
VStem: 80 40<508 536> 494 42<247 272 272 272 313 319 319 325>
LayerCount: 2
Fore
SplineSet
80 423 m 5
 80 432 94 484 120 508 c 5
 168 552 228 577 294 577 c 0
 360 577 420 550 464 503 c 0
 508 456 536 385 536 325 c 2
 536 242 l 2
 536 107 412 -16 274 -16 c 0
 212 -16 150 8 102 55 c 0
 76 79 64 96 64 105 c 0
 64 116 72 126 82 126 c 0
 92 126 96 123 102 115 c 0
 158 50 208 25 274 25 c 0
 394 25 494 127 494 247 c 2
 494 272 l 1
 224 272 l 2
 206 272 198 280 198 292 c 0
 198 307 206 313 224 313 c 2
 494 313 l 1
 494 319 l 2
 494 439 404 535 294 535 c 0
 204 535 124 481 120 421 c 0
 120 406 112 396 98 396 c 0
 86 396 80 407 80 423 c 5
EndSplineSet
Validated: 1
EndChar

StartChar: afii10048
Encoding: 346 1070 346
Width: 600
Flags: W
HStem: -16 41<308.772 456.298> 272 41<97 170> 535 42<309.554 457.463>
VStem: 56 41<0 272 313 563> 170 41<153.442 272 313 405.854> 558 39<156.698 403.808>
LayerCount: 2
Fore
SplineSet
97 0 m 6
 56 0 l 2
 56 563 l 2
 97 563 l 2
 97 313 l 1
 172 313 l 1
 172 464 252 577 384 577 c 0
 524 577 597 447 597 275 c 0
 597 115 520 -16 384 -16 c 0
 248 -16 172 110 170 272 c 1
 97 272 l 1
 97 0 l 6
384 535 m 0
 270 535 211 420 211 280 c 0
 211 140 270 25 384 25 c 0
 496 25 558 140 558 277 c 0
 558 421 498 535 384 535 c 0
EndSplineSet
Validated: 1
EndChar

StartChar: afii10049
Encoding: 347 1071 347
Width: 600
Flags: HMW
HStem: 0 41<43 86 52 86 52 110 376 450 491 544> 252 40<334 450 334 450 318 450> 522 41<262 544 298 450 491 491 491 544>
VStem: 118 41<375 438 375 449.5> 450 41<41 252 252 252 292 522 41 522>
LayerCount: 2
Fore
SplineSet
62 0 m 1
 161 181 193 219 256 262 c 1
 163 294 117 342 117 407 c 0
 117 491 200 563 297 563 c 2
 491 563 l 1
 491 0 l 1
 450 0 l 1
 450 251 l 1
 318 251 l 1
 242 216 198 162 110 0 c 1
 62 0 l 1
450 292 m 1
 450 522 l 1
 298 522 l 2
 226 522 159 469 159 407 c 0
 159 343 238 292 334 292 c 2
 450 292 l 1
EndSplineSet
Validated: 1
EndChar

StartChar: afii10066
Encoding: 349 1073 349
Width: 600
Flags: W
HStem: -16 41<219.478 379.077> 390 41<217.619 381.706> 519 42<277.347 484>
VStem: 82 41<125.43 352.973> 478 41<122.992 290.996>
LayerCount: 2
Fore
SplineSet
484 561 m 6
 484 519 l 1
 313 520 134 538 134 354 c 1
 192 417 228 431 302 431 c 0
 422 431 519 333 519 211 c 0
 519 85 428 -14 302 -16 c 0
 176 -17 82 82 82 211 c 0
 82 486 100 563 442 561 c 1
 484 561 l 6
300 390 m 0
 200 390 123 310 123 208 c 0
 123 107 200 25 300 25 c 0
 396 25 478 107 478 204 c 0
 478 310 400 390 300 390 c 0
EndSplineSet
Validated: 33
EndChar

StartChar: afii10067
Encoding: 350 1074 350
Width: 600
Flags: W
HStem: 0 41<210 434.137> 197 40<210 396.25> 376 42<210 406.082>
VStem: 168 42<41 197 237 376> 424 41<262.191 356.957> 452 41<58.5654 160.144>
LayerCount: 2
Fore
SplineSet
168 0 m 6xf4
 168 418 l 2
 320 418 l 2
 418 418 465 369 465 310 c 0xf8
 465 272 442 228 404 220 c 1
 464 201 493 168 493 113 c 0
 493 50 458 0 368 0 c 2
 168 0 l 6xf4
210 237 m 1
 304 237 l 2
 390 237 424 264 424 310 c 0
 424 354 396 376 322 376 c 2
 210 376 l 1
 210 237 l 1
210 41 m 1
 366 41 l 2
 430 41 452 66 452 113 c 0xf4
 452 171 388 197 304 197 c 2
 210 197 l 1
 210 41 l 1
EndSplineSet
Validated: 1
EndChar

StartChar: afii10068
Encoding: 351 1075 351
Width: 600
Flags: HMW
HStem: 0 41<132 186 142 186 227 274> 376 42<143 485 152 186 227 444 227 227>
VStem: 186 41<41 376 41 376> 444 41<285 376 376 376>
LayerCount: 2
Fore
SplineSet
485 376 m 6
 227 376 l 1
 227 0 l 2
 186 0 l 2
 186 418 l 2
 485 418 l 1
 485 376 l 6
EndSplineSet
Validated: 1
EndChar

StartChar: afii10069
Encoding: 352 1076 352
Width: 600
Flags: HMW
HStem: 0 41<93 168 212 406 447 508 93 93> 376 42<139 482 148 182 222 222 222 406 447 447 447 482>
VStem: 52 41<-91 0> 182 40<82 376> 406 41<41 376 41 376> 508 41<-91 0 0 0>
LayerCount: 2
Fore
SplineSet
447 418 m 6
 447 41 l 1
 549 41 l 1
 549 -91 l 2
 549 -108 544 -118 528 -118 c 0
 516 -118 508 -108 508 -91 c 2
 508 0 l 1
 93 0 l 1
 93 -91 l 2
 93 -108 84 -118 74 -118 c 0
 56 -118 52 -108 52 -91 c 2
 52 41 l 1
 168 41 l 1
 168 41 182 52 182 82 c 2
 182 418 l 2
 447 418 l 6
222 82 m 2
 222 57 212 41 212 41 c 1
 406 41 l 1
 406 376 l 1
 222 376 l 1
 222 82 l 2
EndSplineSet
Validated: 1
EndChar

StartChar: afii10072
Encoding: 355 1078 355
Width: 600
Flags: HMW
HStem: 0 41<28 64 38 64 110 140 244 280 321 354 462 490 536 562> 376 42<39 146 48 66 126 126 126 146 244 280 321 321 321 354 454 476 534 534 534 552>
VStem: 280 41<41 190 41 190 241 376>
LayerCount: 2
Fore
SplineSet
541 0 m 1
 495 0 l 5
 482.5 105.5 395 151 321 190 c 1
 321 0 l 2
 280 0 l 2
 280 190 l 1
 206 151 117.667 105 105 0 c 1
 59 0 l 1
 71 114 159 176 246 217 c 1
 18 418 l 2
 78 418 l 2
 280 241 l 1
 280 418 l 2
 321 418 l 2
 321 241 l 1
 525 418 l 2
 583 418 l 2
 354 217 l 1
 442 173 531.5 107.5 541 0 c 1
EndSplineSet
Validated: 1
EndChar

StartChar: afii10073
Encoding: 356 1079 356
Width: 600
Flags: W
HStem: -16 41<199.133 395.539> 206 41<204.007 393.002> 390 41<207.777 385.974>
VStem: 104 41<69.0693 136.967> 124 40<292.053 351.788> 428 45<275.918 356.718> 450 46<68.5845 162.996>
LayerCount: 2
Fore
SplineSet
104 110 m 0xf2
 104 123.104 110.148 137.077 124 137 c 0xe8
 134 137 145 127 145 115 c 2
 145 108 l 2
 145 61 214 25 298 25 c 0
 384 25 450 64 450 116 c 0xf2
 450 140 434 165 406 179 c 0
 382 193 358 206 300 206 c 2
 230 206 l 2
 214 206 204 214 204 226 c 0
 204 241 214 247 230 247 c 2
 280 247 l 2
 368 247 374 256 396 269 c 0
 418 281 428 299 428 316 c 0
 428 358 372 390 298 390 c 0
 222 390 170 360 164 316 c 0xec
 162 300 158 292 145 292 c 0xf0
 131 292 124 307.035 124 321 c 0
 124 391.5 222.399 431.71 305 431 c 0
 383.959 430.321 473 384 473 318 c 0
 473 286 454 258 428 239 c 1xec
 412 231 l 1
 412 225 l 1
 424 219 436 214 446 206 c 0
 478 184 496 151 496 116 c 0
 496 39 393.502 -14.5986 302 -16 c 0
 210.481 -17.4004 104 22.5 104 110 c 0xf2
EndSplineSet
Validated: 33
EndChar

StartChar: afii10074
Encoding: 357 1080 357
Width: 600
Flags: HMW
HStem: 0 41<83 126 92 126 167 212 388 434 475 508> 376 42<83 212 92 126 167 212 167 167 388 434 475 475 475 508>
VStem: 126 41<41 83 137 376> 434 41<41 272 272 272 325 376 41 376>
LayerCount: 2
Fore
SplineSet
477 0 m 2
 433.997 0.00390625 l 2
 434 272 l 1
 167 83 l 1
 167 0.404297 l 2
 126 0 l 2
 125.995 417.998 l 2
 167.004 418 l 2
 167 137 l 1
 434 325 l 1
 434 418 l 1
 477 418 l 2
 477 0 l 2
EndSplineSet
Validated: 1
EndChar

StartChar: afii10075
Encoding: 358 1081 358
Width: 600
Flags: HMW
HStem: 0 41<83 126 92 126 167 212 388 434 475 508> 376 42<83 212 92 126 167 212 167 167 388 434 475 475 475 508> 517 41<272 327 272 341>
VStem: 126 41<41 83 137 376> 434 41<41 272 272 272 325 376 41 376>
LayerCount: 2
Fore
SplineSet
176 646 m 0
 188 646 192 640 196 626 c 1
 200 588 244 558 300 558 c 0
 354 558 400 588 404 626 c 0
 406 640 412 646 424 646 c 0
 436 646 444 638 444 624 c 0
 444 564 382 517 300 517 c 0
 220 517 156 564 156 624 c 0
 156 638 162 646 176 646 c 0
EndSplineSet
Refer: 357 1080 N 1 0 0 1 0 0 2
Validated: 1
EndChar

StartChar: afii10076
Encoding: 359 1082 359
Width: 600
Flags: HMW
HStem: 0 41<87 150 96 150 96 191 372 400 458 502> 376 42<87 191 96 150 342 364 426 426 426 472>
VStem: 150 41<41 190 241 376 376 376>
LayerCount: 2
Fore
SplineSet
480 418 m 6
 222 217 l 1
 512 0 l 2
 454 0 l 2
 191 190 l 1
 191 0 l 1
 150 0 l 2
 150 418 l 2
 191 418 l 1
 191 241 l 1
 418 418 l 2
 480 418 l 6
EndSplineSet
Validated: 1
EndChar

StartChar: afii10077
Encoding: 360 1083 360
Width: 600
Flags: HMW
HStem: 0 41<355 410 364 410 451 486> 376 42<142 486 150 186 226 226 226 410 451 451 451 486>
VStem: 88 40<60 66 66 88 57.5 97.5> 186 40<66 376 66 376> 410 41<41 376 41 376>
LayerCount: 2
Fore
SplineSet
410 0 m 6
 410 376 l 1
 226 376 l 1
 226 66 l 2
 230 19 204 0 152 0 c 0
 116 -2 88 19 88 60 c 2
 88 88 l 2
 88 107 94 116 108 116 c 0
 122 116 128 107 128 88 c 2
 128 66 l 2
 128 49 142 39 156 39 c 0
 174 39 186 50 186 66 c 2
 186 418 l 2
 451 418 l 2
 451 0 l 2
 410 0 l 6
EndSplineSet
Validated: 33
EndChar

StartChar: afii10078
Encoding: 361 1084 361
Width: 600
Flags: HMW
HStem: 0 41<70 108 80 108 151 190 412 446 486 522> 376 42<74 182 82 108 151 158 151 151 438 446 438 438 486 522 486 486>
VStem: 108 43<41 376 41 376> 446 40<41 376 41 376>
LayerCount: 2
Fore
SplineSet
108 0 m 2
 108 418 l 2
 182 418 l 1
 300 179 l 1
 414 418 l 1
 486 418 l 2
 486 0 l 2
 446 0 l 2
 446 376 l 1
 438 376 l 1
 314 127 l 1
 282 127 l 1
 158 376 l 1
 151 376 l 1
 151 0 l 2
 108 0 l 2
EndSplineSet
Validated: 1
EndChar

StartChar: afii10079
Encoding: 362 1085 362
Width: 600
Flags: HMW
HStem: 0 41<80 122 90 122 164 208 384 430 471 512> 184 41<164 430 164 430> 376 42<80 208 90 122 164 208 164 164 384 430 471 471 471 512>
VStem: 122 42<41 184 225 376> 430 41<41 184 184 184 225 376 41 376>
LayerCount: 2
Fore
SplineSet
471 0 m 6
 430 0 l 2
 430 184 l 1
 164 184 l 1
 164 0 l 2
 122 0 l 2
 122 418 l 2
 164 418 l 2
 164 225 l 1
 430 225 l 1
 430 418 l 1
 471 418 l 2
 471 0 l 6
EndSplineSet
Validated: 1
EndChar

StartChar: afii10081
Encoding: 364 1087 364
Width: 600
Flags: HMW
HStem: 0 41<82 126 92 126 168 212 388 432 473 506> 376 42<82 506 92 126 168 432 168 168 473 506 473 473>
VStem: 126 42<41 376 41 376> 432 41<41 376 41 376>
LayerCount: 2
Fore
SplineSet
126 418 m 6
 473 418 l 2
 473 0 l 2
 432 0 l 2
 432 376 l 1
 168 376 l 1
 168 0 l 2
 126 0 l 2
 126 418 l 6
EndSplineSet
Validated: 1
EndChar

StartChar: afii10084
Encoding: 367 1090 367
Width: 600
Flags: HMW
HStem: -2 41<225 280 234 280 322 366> 258 160<116 130 470 484>
VStem: 102 43<285 376> 280 42<39 376 39 376> 456 41<285 376 376 376>
LayerCount: 2
Fore
SplineSet
321.994 -1.99121 m 6
 280 -1.99414 l 2
 280 376 l 1
 102 376 l 2
 102 418 l 1
 497 418 l 1
 497 376 l 2
 322 376 l 1
 321.994 -1.99121 l 6
EndSplineSet
Validated: 1
EndChar

StartChar: afii10086
Encoding: 369 1092 369
Width: 600
Flags: HMW
HStem: -186 41<216 278 226 278 319 374> 9 41<212 249 212 278 212 278 319 388> 390 41<210 212 212 278 319 388> 531 41<216 319 226 278>
VStem: 2 41<172.5 267.5 172.5 280> 278 41<-145 9 -145 9 50 390 431 531 531 531> 556 41<172.5 267.5>
LayerCount: 2
Fore
SplineSet
278 572 m 6
 319 572 l 1
 319 431 l 1
 319 431 312 431 388 431 c 0
 512 431 597 340 597 220 c 0
 597 102 512 9 388 9 c 0
 310 9 319 9 319 9 c 1
 319 -186 l 2
 278 -186 l 2
 278 9 l 1
 278 9 288 9 210 9 c 0
 88 9 2 102 2 220 c 0
 2 340 84 431 210 431 c 0
 284 431 278 431 278 431 c 1
 278 572 l 6
212 390 m 2
 108 390 43 316 43 219 c 0
 43 126 114 50 212 50 c 2
 278 50 l 1
 278 390 l 1
 212 390 l 2
388 390 m 2
 319 390 l 1
 319 50 l 1
 388 50 l 2
 484 50 556 126 556 219 c 0
 556 316 490 390 388 390 c 2
EndSplineSet
Validated: 37
EndChar

StartChar: afii10088
Encoding: 371 1094 371
Width: 600
Flags: HMW
HStem: 0 41<89 132 98 132 174 440 481 496> 376 42<77 218 88 132 174 174 174 218 406 440 481 481 481 514>
VStem: 132 42<41 376 41 376> 440 41<41 376 41 376> 496 40<-91 0 0 0>
LayerCount: 2
Fore
SplineSet
132 0 m 6
 132 418 l 2
 174 418 l 2
 174 41 l 1
 440 41 l 1
 440 418 l 2
 481 418 l 2
 481 41 l 1
 536 41 l 1
 536 -91 l 2
 536 -108 530 -118 514 -118 c 0
 502 -118 496 -108 496 -91 c 2
 496 0 l 1
 132 0 l 6
EndSplineSet
Validated: 1
EndChar

StartChar: afii10089
Encoding: 372 1095 372
Width: 600
Flags: HMW
HStem: 0 41<359 402 368 402 443 478> 142 40<302 302> 376 42<113 240 122 156 196 240 196 196 368 402 443 443 443 478>
VStem: 156 40<215 376 215 376 215 376> 402 41<41 173 173 173 217 376 41 376>
LayerCount: 2
Fore
SplineSet
443 0 m 2
 402 0 l 2
 402 173 l 1
 380 151 344 142 302 142 c 0
 232 142 156 141.973 156 214 c 2
 156 418 l 2
 196 418 l 2
 196 215 l 1
 201 192 256 181 302 182 c 0
 344 184 388 200 402 217 c 1
 402 418 l 1
 443 418 l 2
 443 0 l 2
EndSplineSet
Validated: 33
EndChar

StartChar: afii10090
Encoding: 373 1096 373
Width: 600
Flags: HMW
HStem: 0 41<28 68 36 68 108 280 322 492 531 566> 376 42<26 144 36 68 108 108 108 144 246 280 322 322 322 354 458 492 531 531 531 566>
VStem: 68 40<41 376 41 376> 280 42<41 376> 492 39<41 376 41 376>
LayerCount: 2
Fore
SplineSet
68 0 m 6
 68 418 l 2
 108 418 l 2
 108 41 l 1
 280 41 l 1
 280 418 l 2
 322 418 l 2
 322 41 l 1
 492 41 l 1
 492 418 l 2
 531 418 l 2
 531 0 l 2
 68 0 l 6
EndSplineSet
Validated: 1
EndChar

StartChar: afii10091
Encoding: 374 1097 374
Width: 600
Flags: HMW
HStem: 0 41<30 70 38 70 109 278 319 488 527 550> 376 42<30 146 38 70 109 109 109 146 244 278 319 319 319 350 454 488 527 527 527 562>
VStem: 70 39<41 376 41 376> 278 41<41 376 41 376> 488 39<41 376 41 376> 550 41<-91 0 0 0>
LayerCount: 2
Fore
SplineSet
70 0 m 6
 70 418 l 2
 109 418 l 2
 109 41 l 1
 278 41 l 1
 278 418 l 2
 319 418 l 2
 319 41 l 1
 488 41 l 1
 488 418 l 2
 527 418 l 2
 527 41 l 1
 591 41 l 1
 591 -91 l 2
 591 -108 584 -118 568 -118 c 0
 556 -118 550 -108 550 -91 c 2
 550 0 l 1
 70 0 l 6
EndSplineSet
Validated: 1
EndChar

StartChar: afii10092
Encoding: 375 1098 375
Width: 600
Flags: HMW
HStem: 0 41<171 216 180 216 257 410 410 416> 197 40<257 400 257 416> 376 42<103 216 103 103 257 292 292 294 257 257>
VStem: 62 41<286 376> 216 41<41 197 237 376> 496 41<89.5 143>
LayerCount: 2
Fore
SplineSet
216 0 m 6
 216 376 l 1
 62 376 l 2
 62 418 l 1
 257 418 l 2
 257 237 l 1
 416 237 l 2
 496 237 537 176 537 113 c 0
 537 50 506 0 416 0 c 2
 216 0 l 6
257 41 m 1
 410 41 l 2
 482 41 496 66 496 113 c 0
 496 173 460 197 400 197 c 2
 257 197 l 1
 257 41 l 1
EndSplineSet
Validated: 1
EndChar

StartChar: afii10093
Encoding: 376 1099 376
Width: 600
Flags: HMW
HStem: 0 41<28 66 36 66 105 262 262 264 444 488 531 564> 197 40<105 248 105 266> 376 42<26 146 36 66 105 146 146 148 105 105 444 488 531 531 531 564>
VStem: 66 39<41 197 237 376> 348 41<89.5 143> 488 43<41 376 41 376 41 418>
LayerCount: 2
Fore
SplineSet
488 0 m 2
 488 418 l 1
 531 418 l 2
 531 0 l 2
 488 0 l 2
66 0 m 6
 66 418 l 2
 105 418 l 2
 105 237 l 1
 266 237 l 2
 348 237 389 176 389 113 c 0
 389 50 356 0 264 0 c 2
 66 0 l 6
105 41 m 1
 262 41 l 2
 332 41 348 66 348 113 c 0
 348 173 310 197 248 197 c 2
 105 197 l 1
 105 41 l 1
EndSplineSet
Validated: 1
EndChar

StartChar: afii10094
Encoding: 377 1100 377
Width: 600
Flags: HMW
HStem: 0 41<125 168 134 168 210 366 366 368> 197 40<210 352 210 368> 376 42<123 248 134 168 210 248 210 210>
VStem: 168 42<41 197 237 376> 452 41<89.5 143>
LayerCount: 2
Fore
SplineSet
168 0 m 6
 168 418 l 2
 210 418 l 2
 210 237 l 1
 368 237 l 2
 452 237 493 176 493 113 c 0
 493 50 458 0 368 0 c 2
 168 0 l 6
210 41 m 1
 366 41 l 2
 436 41 452 66 452 113 c 0
 452 173 414 197 352 197 c 2
 210 197 l 1
 210 41 l 1
EndSplineSet
Validated: 1
EndChar

StartChar: afii10095
Encoding: 378 1101 378
Width: 600
Flags: HMW
HStem: -16 41<267 351 264 366> 184 41<204 486 214 486> 390 41<265 351>
VStem: 100 42<376 390 376 390 376 398.5>
LayerCount: 2
Fore
SplineSet
142.002 376.001 m 5
 180 412 234 431 296 431 c 4
 430 431 526 336 526 204 c 4
 526 77 432 -16 300 -16 c 4
 234 -16 170 3 118 39 c 4
 90 58 74 77 74 88 c 4
 74 99 84 107 94 107 c 4
 100 107 104 105 114 97 c 4
 166 49 228 25 300 25 c 4
 402 25 476 90 486 184 c 5
 214 184 l 6
 194 184 184 190 184 204 c 4
 184 219 194 225 214 225 c 6
 486 225 l 5
 476 322 402 390 300 390 c 4
 214 390 146 349 142 296 c 5
 138 278 132 270 118 270 c 4
 106 270 100 280 100.002 299.001 c 5
 100.002 308.001 116.002 352.001 142.002 376.001 c 5
EndSplineSet
Validated: 33
EndChar

StartChar: afii10096
Encoding: 379 1102 379
Width: 600
Flags: W
HStem: -16 41<320.765 478.66> 184 41<116 202> 390 41<322.286 477.551>
VStem: 76 40<0 184 225 418> 202 42<110.029 184 225 305.703> 556 41<109.762 304.631>
LayerCount: 2
Fore
SplineSet
76 0 m 6
 76 418 l 2
 116 418 l 2
 116 225 l 1
 202 225 l 1
 212 340 278 431 400 431 c 0
 530 431 597 332 597 204 c 0
 597 82 526 -16 400 -16 c 0
 280 -16 216 72 202 184 c 1
 116 184 l 1
 116 0 l 2
 76 0 l 6
400 390 m 0
 296 390 244 310 244 208 c 0
 244 105 296 25 400 25 c 0
 502 25 556 105 556 204 c 0
 556 310 504 390 400 390 c 0
EndSplineSet
Validated: 1
EndChar

StartChar: afii10097
Encoding: 380 1103 380
Width: 600
Flags: HMW
HStem: 0 41<105 158 114 158 218 246 374 410 451 486> 179 41<210 410 268 342 268 410> 376 42<252 256 256 410 451 486 451 451>
VStem: 126 43<272.5 326 272.5 334.5> 410 41<41 179 179 179 220 376 41 376>
LayerCount: 2
Fore
SplineSet
101 0 m 6
 342 179 l 1
 250 179 l 2
 170 179 126 242 126 303 c 0
 126 366 162 418 252 418 c 2
 451 418 l 2
 451 0 l 2
 410 0 l 2
 410 179 l 1
 162 0 l 2
 101 0 l 6
410 376 m 1
 256 376 l 2
 182 376 169 349 169 303 c 0
 169 242 206 220 268 220 c 2
 410 220 l 1
 410 376 l 1
EndSplineSet
Validated: 1
EndChar

StartChar: uni0400
Encoding: 381 1024 381
Width: 600
Flags: HMW
HStem: 0 41<61 124 70 124 165 479> 272 41<165 310 165 310> 522 41<61 499 70 124 165 165 165 458>
VStem: 124 41<41 272 313 522> 310 41<227 272 272 272 313 358> 458 41<424 522 522 522> 479 41<41 160 0 169>
LayerCount: 2
Fore
SplineSet
215 780 m 2xf8
 329 680 l 1
 336 672 l 2
 341 667 341 667 341 661 c 0
 341 649 332 640 320 640 c 0
 315 640 309 643 302 649 c 2
 188 749 l 2
 179 757 176 761 176 769 c 0
 176 780 185 789 196 789 c 0
 202 789 207 786 215 780 c 2xf8
EndSplineSet
Refer: 37 69 S 1 0 0 1 0 0 2
Validated: 1
EndChar

StartChar: afii10051
Encoding: 382 1026 382
Width: 600
Flags: HMW
HStem: 0 41<82 195 91 195 237 341> 324 41<355.5 429.5> 423 140<42 54 377 390>
VStem: 27 41<450 522> 195 42<41 243 302 522> 361 41<450 522 522 522> 522 41<9 249 249 253>
LayerCount: 2
Fore
SplineSet
402 522 m 6
 237 522 l 1
 237 302 l 1
 254 329 311 365 393 365 c 0
 495 365 563 318 563 253 c 2
 563 9 l 2
 563 -98 481 -103 413 -103 c 1
 413 -69 l 1
 473 -69 522 -62 522 9 c 2
 522 249 l 2
 522 287 470 324 389 324 c 0
 322 324 237 279 237 243 c 2
 237 0 l 2
 195 0 l 2
 195 522 l 1
 27 522 l 2
 27 563 l 1
 402 563 l 1
 402 522 l 6
EndSplineSet
Validated: 1
EndChar

StartChar: afii10053
Encoding: 384 1028 384
Width: 600
Flags: HMW
HStem: -16 41<265 356> 272 41<104 376 104 376> 535 42<273 339 273 351>
VStem: 64 40<242 247 247 272 313 319> 480 38<415 421 508 536>
LayerCount: 2
Fore
SplineSet
520 423 m 4
 520 407 514 396 502 396 c 4
 488 396 480 406 480 421 c 4
 476 481 396 535 306 535 c 4
 196 535 106 439 106 319 c 6
 106 313 l 5
 376 313 l 6
 394 313 402 307 402 292 c 4
 402 280 394 272 376 272 c 6
 106 272 l 5
 106 247 l 6
 106 127 206 25 326 25 c 4
 392 25 442 50 498 115 c 4
 504 123 508 126 518 126 c 4
 528 126 536 116 536 105 c 4
 536 96 524 79 498 55 c 4
 450 8 388 -16 326 -16 c 4
 188 -16 64 107 64 242 c 6
 64 325 l 6
 64 385 92 456 136 503 c 4
 180 550 240 577 306 577 c 4
 372 577 432 552 480 508 c 4
 506 484 520 432 520 423 c 4
EndSplineSet
Validated: 1
EndChar

StartChar: afii10058
Encoding: 389 1033 389
Width: 600
Flags: HMW
HStem: 0 41<92 106 92 119 286 304 345 400> 291 41<345 386 345 386 386 390> 522 41<113 188 122 146 188 304 122 188 345 370 345 345>
VStem: 12 43<77 80 80 99 66.5 107.5> 146 42<80 522> 304 41<41 291 332 522> 548 41<131 199.5>
LayerCount: 2
Fore
SplineSet
304 0 m 6
 304 522 l 1
 188 522 l 1
 188 77 l 2
 188 24 140 0 98 0 c 0
 66 0 12 25 12 77 c 2
 12 99 l 2
 12 116 20 127 34 127 c 0
 44 127 55 118 55 99 c 2
 55 80 l 2
 55 53 86 41 98 41 c 0
 114 41 146 46 146 80 c 2
 146 563 l 1
 345 563 l 1
 345 332 l 1
 386 332 l 2
 500 332 589 258 589 165 c 0
 589 72 506 0 400 0 c 2
 304 0 l 6
345 291 m 1
 345 41 l 1
 404 41 l 2
 484 41 548 97 548 165 c 0
 548 234 476 291 390 291 c 2
 345 291 l 1
EndSplineSet
Validated: 1
EndChar

StartChar: afii10059
Encoding: 390 1034 390
Width: 600
Flags: W
HStem: 0 41<336 477.268> 272 41<109 294> 291 41<336 472.602> 543 20G<70 109 294 336>
VStem: 70 39<0 272 313 563> 294 42<41 272 332 563> 546 41<103.61 223.763>
LayerCount: 2
Fore
SplineSet
70 0 m 6xde
 70 563 l 2
 109 563 l 2
 109 313 l 1
 294 313 l 1xde
 294 563 l 2
 336 563 l 2
 336 332 l 1
 386 332 l 2xbe
 498 332 587 258 587 165 c 0
 587 72 504 0 400 0 c 2
 294 0 l 2
 294 272 l 1
 109 272 l 1
 109 0 l 2
 70 0 l 6xde
336 291 m 1xbe
 336 41 l 1
 402 41 l 2
 482 41 546 97 546 165 c 0
 546 234 474 291 388 291 c 2
 336 291 l 1xbe
EndSplineSet
Validated: 1
EndChar

StartChar: afii10060
Encoding: 391 1035 391
Width: 600
Flags: HMW
HStem: 0 41<82 195 91 195 237 341 468 522 563 588> 324 41<355.5 429.5> 423 140<42 54 377 390>
VStem: 27 41<450 522> 195 42<41 243 302 522> 361 41<450 522 522 522> 522 41<41 249 249 253 41 268>
LayerCount: 2
Fore
SplineSet
27 522 m 6
 27 563 l 1
 402 563 l 1
 402 522 l 2
 237 522 l 1
 237 302 l 1
 254 329 311 365 393 365 c 0
 495 365 563 318 563 253 c 2
 563 0 l 2
 522 0 l 2
 522 249 l 2
 522 287 470 324 389 324 c 0
 322 324 237 279 237 243 c 2
 237 0 l 2
 195 0 l 2
 195 522 l 1
 27 522 l 6
EndSplineSet
Validated: 1
EndChar

StartChar: afii10061
Encoding: 392 1036 392
Width: 600
Flags: HMW
HStem: 0 41<53 116 62 116 157 232 482 538> 522 41<53 232 62 116 157 157 157 232 382 418 484 484 484 500> 604 21G<232 240>
VStem: 116 41<41 280 327 522>
LayerCount: 2
Fore
SplineSet
368 712 m 2
 256 612 l 2
 248 605 242 604 238 604 c 0
 226 604 218 612 218 624 c 0
 218 631 220 634 230 643 c 2
 344 742 l 2
 352 750 356 753 362 753 c 0
 372 753 382 742 382 731 c 0
 382 725 380 720 368 712 c 2
EndSplineSet
Refer: 43 75 S 1 0 0 1 0 0 2
Validated: 1
EndChar

StartChar: uni040D
Encoding: 393 1037 393
Width: 600
Flags: HMW
HStem: 0 41<71 124 80 124 165 220 382 434 476 522> 522 41<91 220 100 124 165 165 165 220 382 434 476 476 476 502> 604 21G<360 368>
VStem: 124 41<41 108 162 522> 434 42<41 377 377 377 429 522 41 522>
LayerCount: 2
Fore
SplineSet
258 742 m 1
 372 643 l 1
 378 635 l 1
 384 631 384 631 384 624 c 0
 384 612 374 604 362 604 c 0
 358 604 352 605 344 612 c 2
 232 712 l 2
 220 720 220 725 220 731 c 0
 220 742 226 753 238 753 c 0
 244 753 248 748 258 742 c 1
EndSplineSet
Refer: 324 1048 N 1 0 0 1 0 0 2
Validated: 1
EndChar

StartChar: afii10145
Encoding: 395 1039 395
Width: 600
Flags: HMW
HStem: 0 41<91 124 100 124 100 165 165 288 330 330 330 434 476 502> 522 41<69 220 78 124 165 165 165 220 382 434 476 476 476 520>
VStem: 124 41<41 522> 288 42<-99 0> 434 42<0 522 41 522 41 522>
LayerCount: 2
Fore
SplineSet
124 0 m 5
 124 563 l 2
 165 563 l 2
 165 41 l 1
 434 41 l 1
 434 563 l 2
 476 563 l 2
 476 0 l 1
 330 0 l 1
 330 -99 l 2
 330 -116 322 -126 310 -126 c 0
 296 -126 288 -116 288 -99 c 2
 288 0 l 1
 124 0 l 5
EndSplineSet
Validated: 1
EndChar

StartChar: afii10099
Encoding: 397 1106 397
Width: 600
Flags: HMW
HStem: 0 41<73 128 80 128 170 214> 352 41<293 358> 468 39<63 128 72 128 170 272> 563 41<66 170 76 128>
VStem: 128 42<41 258 309 468 507 563 563 563> 442 41<44 250 250 253>
LayerCount: 2
Fore
SplineSet
128 604 m 6
 170 604 l 1
 170 507 l 1
 272 507 l 2
 290 507 298 501 298 488 c 0
 298 474 290 468 272 468 c 2
 170 468 l 1
 170 309 l 1
 219 369 262 393 324 393 c 0
 416 393 483 335 483 253 c 2
 483 41 l 2
 483 -41 410 -99 318 -99 c 1
 318 -58 l 1
 398 -58 442 -14 442 44 c 2
 442 250 l 2
 442 308 398 352 318 352 c 0
 256 352 219 315 170 258 c 1
 170 0 l 2
 128 0 l 2
 128 468 l 1
 72 468 l 2
 54 468 46 474 46 488 c 0
 46 501 54 507 72 507 c 2
 128 507 l 1
 128 604 l 6
EndSplineSet
Validated: 1
EndChar

StartChar: afii10100
Encoding: 398 1107 398
Width: 600
Flags: HMW
HStem: 0 41<132 186 142 186 227 274> 376 42<143 485 152 186 227 444 227 227> 585 20G<358 367>
VStem: 186 41<41 376 41 376> 444 41<285 376 376 376>
LayerCount: 2
Fore
SplineSet
368 566 m 2
 256 465 l 1
 246 459 242 458 236 458 c 0
 226 458 216 465 216 478 c 0
 216 486 220 487 230 497 c 2
 344 597 l 2
 352 604 354 605 362 605 c 0
 372 605 382 597 382 585 c 0
 382 577 378 574 368 566 c 2
EndSplineSet
Refer: 351 1075 N 1 0 0 1 0 0 2
Validated: 1
EndChar

StartChar: afii10101
Encoding: 399 1108 399
Width: 600
Flags: HMW
HStem: -16 41<252 333> 184 41<118 390 118 390> 390 41<252 335 237 345>
VStem: 462 42<289.5 296 376 390>
LayerCount: 2
Fore
SplineSet
459.998 376.001 m 0
 485.998 352.001 501.998 308.001 501.998 299.001 c 0
 502 280 496 270 484 270 c 0
 470 270 464 278 460 296 c 1
 456 349 388 390 302 390 c 0
 200 390 126 322 116 225 c 1
 388 225 l 2
 408 225 418 219 418 204 c 0
 418 190 408 184 388 184 c 2
 116 184 l 1
 126 90 200 25 302 25 c 0
 374 25 436 49 488 97 c 0
 498 105 502 107 508 107 c 0
 518 107 528 99 528 88 c 0
 528 77 512 58 484 39 c 0
 432 3 368 -16 302 -16 c 0
 170 -16 76 77 76 204 c 0
 76 336 172 431 306 431 c 0
 368 431 422 412 459.998 376.001 c 0
EndSplineSet
Validated: 33
EndChar

StartChar: afii10105
Encoding: 403 1112 403
Width: 600
Flags: W
HStem: -186 41<162 298 172 298 298 300> 376 42<165 456 174 414>
VStem: 392 64<544 601> 414 42<-28 376 376 376>
LayerCount: 2
Fore
SplineSet
414 376 m 1xd0
 174 376 l 2
 156 376 146 384 146 396 c 0
 146 410 156 418 174 418 c 2
 456 418 l 1
 456 -28 l 2
 456 -121 392 -186 300 -186 c 2
 172 -186 l 2
 152 -186 144 -178 144 -165 c 0
 144 -151 152 -145 172 -145 c 2
 298 -145 l 2
 366 -145 414 -96 414 -28 c 2
 414 376 l 1xd0
412 627 m 2
 434 627 l 2
 448 627 456 619 456 601 c 2
 456 544 l 2
 456 525 448 517 434 517 c 2
 412 517 l 2
 398 517 392 525 392 544 c 2
 392 601 l 2xe0
 392 619 398 627 412 627 c 2
EndSplineSet
Validated: 1
EndChar

StartChar: afii10106
Encoding: 404 1113 404
Width: 600
Flags: HMW
HStem: 0 39<98 112 95 124> 197 40<351 426 351 442> 376 42<89 382 98 132 173 320 173 173 351 382 351 351>
VStem: 34 42<60 66 66 88 57.5 97.5> 132 41<66 376 66 376> 320 31<41 197 237 376> 524 42<89.5 143>
LayerCount: 2
Fore
SplineSet
309.998 0.00683594 m 10
 310.505 376.172 l 17
 173 376 l 1
 173 66 l 2
 176 19 150 0 98 0 c 0
 60 -2 36 19 34 60 c 2
 34 88 l 2
 34 107 42 116 58 116 c 0
 68 116 76 107 76 88 c 2
 76 66 l 2
 76 49 88 39 102 39 c 0
 122 39 132 50 132 66 c 2
 132 418 l 2
 351 418 l 2
 351 237 l 1
 442 237 l 2
 524 237 566 176 566 113 c 0
 566 50 530 -0.00488281 442 0 c 2
 309.998 0.00683594 l 10
310.417 376 m 1
351 41 m 1
 438 41 l 2
 508 41 524 66 524 113 c 0
 524 173 486 197 426 197 c 2
 351 197 l 1
 351 41 l 1
EndSplineSet
Validated: 33
EndChar

StartChar: afii10107
Encoding: 405 1114 405
Width: 600
Flags: HMW
HStem: 0 41<48 82 58 82 123 156 286 318 349 444 444 448> 197 40<123 318 123 318 123 349 349 432> 376 42<48 156 58 82 123 123 123 156 286 318 349 382 349 349>
VStem: 82 41<41 197 41 237 237 376> 318 31<41 197 237 376> 530 42<89.5 143>
LayerCount: 2
Fore
SplineSet
82 418 m 6
 123 418 l 2
 123 237 l 1
 310 237 l 1
 310 418 l 1
 349 418 l 2
 349 237 l 1
 450 237 l 2
 530 237 572 176 572 113 c 0
 572 50 538 0 448 0 c 2
 310 0 l 2
 310 197 l 1
 123 197 l 1
 123 0 l 2
 82 0 l 2
 82 418 l 6
349 41 m 1
 444 41 l 2
 516 41 530 66 530 113 c 0
 530 173 494 197 432 197 c 2
 349 197 l 1
 349 41 l 1
EndSplineSet
Validated: 1
EndChar

StartChar: afii10108
Encoding: 406 1115 406
Width: 600
Flags: HMW
HStem: 0 41<73 128 80 128 170 214 396 442 483 528> 351 41<293 358> 468 39<62 128 71 128 170 282> 563 41<66 170 76 128>
VStem: 128 42<41 257 308 468 507 563 563 563> 442 41<41 249 249 252 41 278>
LayerCount: 2
Fore
SplineSet
76 468 m 5
 53 468 45 474 45 488 c 0
 45 501 53 507 76 507 c 5
 282 507 l 2
 300 507 308 501 308 488 c 0
 308 474 300 468 282 468 c 2
 76 468 l 5
EndSplineSet
Refer: 72 104 N 1 0 0 1 0 0 2
Validated: 5
EndChar

StartChar: afii10109
Encoding: 407 1116 407
Width: 600
Flags: HMW
HStem: 0 41<87 150 96 150 96 191 372 400 458 502> 376 42<87 191 96 150 342 364 426 426 426 472> 585 20G<358 367>
VStem: 150 41<41 190 241 376 376 376>
LayerCount: 2
Fore
SplineSet
368 566 m 2
 256 465 l 1
 246 459 242 458 236 458 c 0
 226 458 216 465 216 478 c 0
 216 486 218 487 230 497 c 2
 342 597 l 2
 352 604 354 605 362 605 c 0
 372 605 382 597 382 585 c 0
 382 577 378 574 368 566 c 2
EndSplineSet
Refer: 359 1082 N 1 0 0 1 0 0 2
Validated: 1
EndChar

StartChar: uni045D
Encoding: 408 1117 408
Width: 600
Flags: HMW
HStem: 0 41<81 124 90 124 165 210 392 436 476 512> 376 42<80 210 88 124 165 210 165 165 392 436 476 476 476 512> 585 20G<232 240>
VStem: 124 41<41 83 137 376> 436 40<41 272 272 272 325 376 41 376>
LayerCount: 2
Fore
SplineSet
256 597 m 2
 370 497 l 1
 378 489 l 2
 382 484 382 484 382 478 c 0
 382 465 374 458 360 458 c 0
 356 458 350 461 344 465 c 2
 230 566 l 2
 220 574 218 577 218 586 c 0
 218 597 226 605 238 605 c 0
 242 605 248 604 256 597 c 2
EndSplineSet
Refer: 357 1080 N 1 0 0 1 0 0 2
Validated: 1
EndChar

StartChar: afii10110
Encoding: 409 1118 409
Width: 600
Flags: HMW
HStem: -186 41<75 212 84 212 254 316> 376 42<69 194 78 94 142 142 142 194 412 466 508 508 508 522> 484 41<272 327 272 341> 593 20G<169 182 418 430>
LayerCount: 2
Fore
SplineSet
176 613 m 0
 188 613 192 607 196 593 c 1
 200 555 244 525 300 525 c 0
 354 525 400 555 404 593 c 0
 406 607 412 613 424 613 c 0
 436 613 444 605 444 591 c 0
 444 531 382 484 300 484 c 0
 220 484 156 531 156 591 c 0
 156 605 162 613 176 613 c 0
EndSplineSet
Refer: 89 121 N 1 0 0 1 0 0 2
Validated: 1
EndChar

StartChar: afii10193
Encoding: 410 1119 410
Width: 600
Flags: HMW
HStem: 0 41<80 124 88 124 165 286 326 326 326 436 476 512> 376 42<80 210 88 124 165 165 165 210 392 436 476 476 476 510>
VStem: 124 41<41 376 41 376> 286 40<-91 0> 436 40<41 376 41 376>
LayerCount: 2
Fore
SplineSet
124 418 m 2
 165 418 l 2
 165 41 l 1
 436 41 l 1
 436 418 l 2
 476 418 l 2
 476 0 l 2
 326 0 l 1
 326 -91 l 2
 326 -108 320 -118 304 -118 c 0
 292 -118 286 -108 286 -91 c 2
 286 0 l 1
 124 0 l 2
 124 418 l 2
EndSplineSet
Validated: 1
EndChar

StartChar: uni048C
Encoding: 411 1164 411
Width: 600
Flags: HMW
HStem: 0 41<92 154 102 154 195 340> 291 41<195 326 195 326 326 330> 403 40<92 154 102 154 195 336> 522 41<92 332 102 154 195 195 195 332>
VStem: 154 41<41 291 332 403 443 522> 488 41<131 199.5>
LayerCount: 2
Fore
SplineSet
84 403 m 5
 63 403 53 410 53 423 c 0
 53 436 63 443 84 443 c 1
 317 443 l 2
 335 443 343 436 343 423 c 0
 343 410 335 403 317 403 c 2
 84 403 l 5
EndSplineSet
Refer: 344 1068 N 1 0 0 1 0 0 2
Validated: 5
EndChar

StartChar: uni048D
Encoding: 412 1165 412
Width: 600
Flags: HMW
HStem: 0 41<125 168 134 168 210 366 366 368> 197 40<210 352 210 368> 292 40<119 168 124 168 210 256> 376 42<123 248 134 168 210 210 210 248>
VStem: 168 42<41 197 237 292 332 376> 452 41<89.5 143>
LayerCount: 2
Fore
SplineSet
125 292 m 5
 114 292 108 300 108 313 c 0
 108 327 114 332 124 332 c 2
 255 332 l 1
 266 332 270 327 270 313 c 0
 270 300 266 292 256 292 c 2
 125 292 l 5
EndSplineSet
Refer: 377 1100 N 1 0 0 1 0 0 2
Validated: 5
EndChar

StartChar: uni048E
Encoding: 413 1166 413
Width: 600
Flags: HMW
HStem: 0 41<91 153 101 153 194 332> 231 41<194 325 194 328> 522 41<91 339 101 153 194 339 339 343 194 194>
VStem: 153 41<41 231 272 522> 487 41<378 431.5>
LayerCount: 2
Fore
SplineSet
293.995 343.001 m 5
 282 355 280 366 289 376 c 0
 299 385 310 384 321.994 371.01 c 1
 492 204 l 2
 504.7 191.523 503 179 495 170 c 0
 486 162 474.468 161.451 461 175 c 2
 293.995 343.001 l 5
EndSplineSet
Refer: 48 80 N 1 0 0 1 0 0 2
Validated: 37
EndChar

StartChar: uni048F
Encoding: 414 1167 414
Width: 600
Flags: W
HStem: 10 41<237.832 405.358> 390 41<237.682 406.229>
VStem: 103 41<-186 106 143.118 298.23 335 417> 500 41<142.518 298.611>
LayerCount: 2
Fore
SplineSet
501 -28 m 1
 334 135 l 2
 320.801 147.883 322 160 330 170 c 0
 338 178 350.529 178.553 364 165 c 2
 528 0 l 1
 543 -14 544 -25 536 -36 c 1
 526 -46 514 -42 501 -28 c 1
EndSplineSet
Refer: 80 112 N 1 0 0 1 0 0 2
Validated: 37
EndChar

StartChar: afii10050
Encoding: 415 1168 415
Width: 600
Flags: HMW
HStem: 0 41<80 142 88 142 184 322> 522 41<80 498 88 142 184 498 88 539 184 184>
VStem: 142 42<41 522 41 522> 498 41<563 662>
LayerCount: 2
Fore
SplineSet
498 563 m 5
 498 662 l 2
 498 678 504 689 520 689 c 0
 532 689 539 678 539 662 c 2
 539 522 l 1
 498 563 l 5
EndSplineSet
Refer: 318 1043 N 1 0 0 1 0 0 2
Validated: 5
EndChar

StartChar: afii10098
Encoding: 416 1169 416
Width: 600
Flags: HMW
HStem: 0 41<132 186 142 186 227 274> 376 42<143 444 152 186 227 444 152 485 227 227>
VStem: 186 41<41 376 41 376> 444 41<418 508 376 516.5>
LayerCount: 2
Fore
SplineSet
444 418 m 1
 444 508 l 2
 444 525 450 535 464 535 c 0
 480 535 485 525 485 508 c 2
 485 376 l 1
 444 418 l 1
EndSplineSet
Refer: 351 1075 N 1 0 0 1 0 0 2
Validated: 5
EndChar

StartChar: uni0492
Encoding: 417 1170 417
Width: 600
Flags: HMW
HStem: 0 41<80 142 88 142 184 322> 360 41<80 142 88 142 184 326> 522 41<80 539 88 142 184 184 184 498>
VStem: 142 42<41 360 41 360 401 522> 498 41<423 522 522 522>
LayerCount: 2
Fore
SplineSet
90 360 m 1
 71 360 62 368 62 381 c 0
 62 395 71 401 90 401 c 1
 326 401 l 2
 344 401 352 395 352 381 c 0
 352 368 344 360 326 360 c 2
 90 360 l 1
EndSplineSet
Refer: 318 1043 N 1 0 0 1 0 0 2
Validated: 5
EndChar

StartChar: uni0493
Encoding: 418 1171 418
Width: 600
Flags: HMW
HStem: 0 41<132 186 142 186 227 274> 248 41<138 186 144 186 227 306> 376 42<143 485 152 186 227 227 227 444>
VStem: 186 41<41 248 41 248 289 376> 444 41<285 376 376 376>
LayerCount: 2
Fore
SplineSet
146 248 m 1
 131 248 126 256 126 269 c 0
 126 281 132 289 147 289 c 1
 306 289 l 2
 318 289 324 281 324 269 c 0
 324 256 318 248 306 248 c 2
 146 248 l 1
EndSplineSet
Refer: 351 1075 N 1 0 0 1 0 0 2
Validated: 5
EndChar

StartChar: uni0494
Encoding: 419 1172 419
Width: 600
Flags: HMW
HStem: 0 41<80 142 88 142 185 322> 324 41<278 329> 522 41<80 539 88 142 185 498 185 185>
VStem: 142 43<41 270 322 522> 430 41<9 274 274 274> 498 41<423 522 522 522>
LayerCount: 2
Fore
SplineSet
142 0 m 6
 142 563 l 2
 539 563 l 1
 539 522 l 2
 185 522 l 1
 185 322 l 1
 200 343 252 365 304 365 c 0
 378 365 454 358 471 281 c 1
 471 9 l 2
 471 -98 389 -103 321 -103 c 1
 321 -69 l 1
 381 -69 430 -62 430 9 c 2
 430 274 l 1
 416 319 358 324 300 324 c 0
 250 324 209 302 185 270 c 1
 185 0 l 2
 142 0 l 6
EndSplineSet
Validated: 1
EndChar

StartChar: uni0496
Encoding: 421 1174 421
Width: 600
Flags: HMW
HStem: 0 41<27 62 36 62 36 92 250 280 320 350 538 550> 522 41<29 125 39 58 109 109 109 125 250 280 320 320 320 350 475 491 542 542 542 561>
VStem: 280 40<41 287 41 287 336 522> 550 42<-98 0 0 0>
LayerCount: 2
Fore
SplineSet
538 41 m 1
 564 41 l 2
 582 41 592 33 592 21 c 2
 592 -98 l 2
 592 -116 584 -125 572 -125 c 0
 558 -125 550 -116 550 -98 c 2
 550 0 l 1
 508 0 l 1
 508 0 538 39 538 41 c 1
EndSplineSet
Refer: 322 1046 N 1 0 0 1 0 0 2
Validated: 5
EndChar

StartChar: uni0497
Encoding: 422 1175 422
Width: 600
Flags: HMW
HStem: 0 41<29 64 38 64 111 139 245 280 321 356 462 490 537 548> 376 41<39 147 48 66 125 125 125 147 245 280 321 321 321 356 454 476 535 535 535 553>
VStem: 280 41<41 191 41 191 240 376> 548 41<-91 0 0 0>
LayerCount: 2
Fore
SplineSet
535 41 m 2
 562 41 l 2
 580 41 589 34 589 21 c 2
 589 -91 l 2
 589 -108 584 -118 568 -118 c 0
 555 -118 548 -109 548 -91 c 2
 548 0 l 1
 535 0 l 2
 517 0 509 7 509 21 c 0
 509 34 517 41 535 41 c 2
EndSplineSet
Refer: 355 1078 N 1 0 0 1 0 0 2
Validated: 5
EndChar

StartChar: uni049A
Encoding: 425 1178 425
Width: 600
Flags: HMW
HStem: 0 41<54 118 64 118 158 232 482 522> 522 41<54 232 64 118 158 158 158 232 380 414 484 484 484 498>
VStem: 118 40<41 280 327 522> 522 42<-99 0 0 0>
LayerCount: 2
Fore
SplineSet
489 41 m 1
 545 41 l 2
 563 41 571 35 571 20 c 2
 571 -99 l 2
 571 -116 563 -126 551 -126 c 0
 537 -126 529 -116 529 -99 c 2
 529 0 l 1
 457 0 l 1
 457.333 0 492 40 489 41 c 1
EndSplineSet
Refer: 43 75 N 1 0 0 1 0 0 2
Validated: 37
EndChar

StartChar: uni049B
Encoding: 426 1179 426
Width: 600
Flags: HMW
HStem: 0 41<87 150 96 150 96 191 372 400 458 490> 376 42<87 191 96 150 342 364 426 426 426 472>
VStem: 150 41<41 190 241 376 376 376> 490 40<-91 0 0 0>
LayerCount: 2
Fore
SplineSet
458 41 m 2
 502 41 l 2
 520 41 530 35 530 20 c 2
 530 -91 l 2
 530 -108 524 -118 508 -118 c 0
 496 -118 490 -108 490 -91 c 2
 490 0 l 1
 458 41 l 2
EndSplineSet
Refer: 359 1082 N 1 0 0 1 0 0 2
Validated: 5
EndChar

StartChar: uni049C
Encoding: 427 1180 427
Width: 600
Flags: HMW
HStem: 0 41<53 116 62 116 157 232 482 538> 522 41<53 232 62 116 157 157 157 232 396 418 484 484 484 514>
VStem: 116 41<41 280 327 522> 214 39<189 263 366 425>
LayerCount: 2
Fore
SplineSet
253 423 m 1
 253 189 l 2
 253 171 248 162 234 162 c 0
 220 162 214 171 214 189 c 2
 214 423 l 1
 214 444 220 451 234 451 c 0
 248 451 253 444 253 423 c 1
EndSplineSet
Refer: 43 75 N 1 0 0 1 0 0 2
Validated: 5
EndChar

StartChar: uni049D
Encoding: 428 1181 428
Width: 600
Flags: HMW
HStem: 0 41<87 150 96 150 96 191 372 400 458 502> 190 51<191 222 191 222> 376 42<87 191 96 150 342 370 426 426 426 472>
VStem: 150 41<41 190 241 376 376 376> 222 40<102 168 269 338>
LayerCount: 2
Fore
SplineSet
262 337 m 1
 262 102 l 2
 262 83 256 75 242 75 c 0
 230 75 222 83 222 102 c 2
 222 337 l 1
 222 357 230 365 242 365 c 0
 256 365 262 357 262 337 c 1
EndSplineSet
Refer: 359 1082 N 1 0 0 1 0 0 2
Validated: 5
EndChar

StartChar: uni049E
Encoding: 429 1182 429
Width: 600
Flags: HMW
HStem: 0 41<53 116 62 116 157 232 482 538> 431 39<50 116 58 116 157 238> 522 41<53 232 62 116 157 157 157 232 382 418 484 484 484 500>
VStem: 116 41<41 280 327 431 470 522>
LayerCount: 2
Fore
SplineSet
67 431 m 1
 48 431 43 439 43 451 c 0
 43 464 48 470 67 470 c 1
 245 470 l 2
 259 470 265 464 265 451 c 0
 265 439 259 431 245 431 c 2
 67 431 l 1
EndSplineSet
Refer: 43 75 N 1 0 0 1 0 0 2
Validated: 5
EndChar

StartChar: uni049F
Encoding: 430 1183 430
Width: 600
Flags: HMW
HStem: 0 41<87 150 96 150 96 191 372 400 458 502> 300 41<82 150 88 150 191 236> 376 42<87 191 96 150 342 364 426 426 426 472>
VStem: 150 41<41 190 241 300 341 376 376 376>
LayerCount: 2
Fore
SplineSet
232 341 m 1
 245 341 252 333 252 322 c 0
 252 308 245 300 232 300 c 1
 88 300 l 2
 76 300 70 308 70 322 c 0
 70 333 76 341 88 341 c 2
 232 341 l 1
EndSplineSet
Refer: 359 1082 N 1 0 0 1 0 0 2
Validated: 5
EndChar

StartChar: uni04A2
Encoding: 433 1186 433
Width: 600
Flags: HMW
HStem: 0 41<72 126 81 126 167 221 383 437 478 509> 272 41<167 437 167 437> 522 41<92 221 101 126 167 167 167 221 383 437 478 478 478 503>
VStem: 126 41<41 272 313 522> 437 41<41 272 272 272 313 522 41 522> 509 42<-98 0 0 0>
LayerCount: 2
Fore
SplineSet
468 41 m 2
 523 41 l 2
 541 41 551 33 551 21 c 2
 551 -98 l 2
 551 -116 543 -125 531 -125 c 0
 517 -125 509 -116 509 -98 c 2
 509 0 l 1
 468 0 l 2
 450 0 464 7 464 21 c 0
 464 34 450 41 468 41 c 2
EndSplineSet
Refer: 40 72 N 1 0 0 1 0 0 2
Validated: 37
EndChar

StartChar: uni04A3
Encoding: 434 1187 434
Width: 600
Flags: HMW
HStem: 0 41<83.5 126 93 126 167 212 388 433 474 502> 184 41<167 433 167 433> 376 41<83 212 92 126 167 167 167 212 388 433 474 474 474 516>
VStem: 126 41<41 184 225 376> 433 41<41 184 184 184 225 376> 502 41<-91 0 0 0>
LayerCount: 2
Fore
SplineSet
453 41 m 4
 513 41 l 2
 531 41 540 34 540 21 c 2
 540 -91 l 2
 540 -108 535 -118 519 -118 c 0
 506 -118 499 -109 499 -91 c 2
 499 0 l 1
 453 0 l 2
 453 41 l 4
EndSplineSet
Refer: 362 1085 N 1 0 0 1 0 0 2
Validated: 5
EndChar

StartChar: uni04AC
Encoding: 443 1196 443
Width: 600
Flags: HMW
HStem: 0 41<166 280 175 280 321 411> 422 141<85.5 99 502 515>
VStem: 72 41<449 522> 280 41<41 522 41 522> 411 42<-98 0 0 0> 487 41<449 522 522 522>
LayerCount: 2
Fore
SplineSet
321 41 m 0
 425 41 l 2
 443 41 453 33 453 21 c 2
 453 -98 l 2
 453 -116 445 -125 433 -125 c 0
 419 -125 411 -116 411 -98 c 2
 411 0 l 1
 308 0 l 2
 290 0 321 27 321 41 c 0
EndSplineSet
Refer: 52 84 N 1 0 0 1 0 0 2
Validated: 37
EndChar

StartChar: uni04AD
Encoding: 444 1197 444
Width: 600
Flags: HMW
HStem: 0 41<225 280 234 280 320 353> 376 41<164 280 164 164 320 320>
VStem: 122 42<285 376> 280 40<41 376> 353 41<-91 0 0 0> 436 42<286 377 377 377>
LayerCount: 2
Fore
SplineSet
322 41 m 0
 369 41 l 2
 387 41 396 34 396 21 c 2
 396 -91 l 2
 396 -108 391 -118 375 -118 c 0
 362 -118 355 -109 355 -91 c 2
 355 0 l 1
 301 0 l 2
 283 0 322 27 322 41 c 0
EndSplineSet
Refer: 367 1090 N 1 0 0 1 0 0 2
Validated: 37
EndChar

StartChar: uni04AF
Encoding: 446 1199 446
Width: 600
Flags: HMW
HStem: -274 43<221 280 230 280 320 372> 376 42<47 208 56 98 142 142 142 208 392 458 502 502 502 542>
VStem: 280 40<-231 -35 -231 -35>
LayerCount: 2
Fore
SplineSet
79.1797 418.002 m 1
 79.1797 418.002 l 1
519.997 418 m 1
 319.999 -35.001 l 1
 319.999 -274.001 l 1
 279.999 -274.001 l 1
 279.999 -35.001 l 1
 79.1797 418.001 l 1
 123.542 417.854 l 1
 123.542 417.854 l 1
 292 41.001 l 1
 310 41.001 l 1
 476.644 418.003 l 1
 519.997 418 l 1
EndSplineSet
Validated: 5
EndChar

StartChar: uni04B0
Encoding: 447 1200 447
Width: 600
Flags: HMW
HStem: 0 41<167 282 176 282 323 428> 214 39<178 282 188 282 323 424> 522 41<69 190 78 102 152 152 152 190 412 452 498 498 498 522>
VStem: 282 41<41 214 41 214 41 253>
LayerCount: 2
Fore
SplineSet
282 253 m 1
 323 253 l 1
 424 253 l 2
 440 253 450 247 450 234 c 0
 450 220 440 214 424 214 c 2
 323 214 l 1
 282 214 l 1
 188 214 l 2
 168 214 160 220 160 234 c 0
 160 247 168 253 188 253 c 2
 282 253 l 1
EndSplineSet
Refer: 57 89 N 1 0 0 1 0 0 2
Validated: 5
EndChar

StartChar: uni04B1
Encoding: 448 1201 448
Width: 600
Flags: HMW
HStem: -274 43<221 280 230 280 320 372> -35 40<174 262 182 262 182 280 340 420> 376 42<47 208 56 98 142 142 142 208 392 458 502 502 502 542>
VStem: 280 40<-231 -35 -231 -35>
LayerCount: 2
Fore
SplineSet
181 5 m 5
 420 5 l 2
 438 5 446 -3 446 -14 c 0
 446 -28 438 -35 420 -35 c 2
 181 -35 l 1
 165 -35 156 -28 156 -14 c 0
 156 -3 165 5 181 5 c 5
EndSplineSet
Refer: 446 1199 N 1 0 0 1 0 0 2
Validated: 5
EndChar

StartChar: uni04B2
Encoding: 449 1202 449
Width: 600
Flags: HMW
HStem: 0 41<58 84 66 84 134 198 402 464 516 518> 522 41<69 190 78 94 146 146 146 190 408 454 504 504 504 520>
VStem: 518 42<-99 0 0 0>
LayerCount: 2
Fore
SplineSet
513 39 m 2
 534 41 l 2
 549.928 42.5166 560 35 560 20 c 2
 560 -99 l 2
 560 -116 552 -126 540 -126 c 0
 526 -126 518 -116 518 -99 c 2
 518 0 l 1
 513 39 l 2
EndSplineSet
Refer: 56 88 N 1 0 0 1 0 0 2
Validated: 37
EndChar

StartChar: uni04B3
Encoding: 450 1203 450
Width: 600
Flags: HMW
HStem: 0 41<69 88 78 88 144 212 390 454> 376 42<92 212 102 108 168 168 168 212 390 438 492 492 492 498>
VStem: 510 40<-91 0 0 0>
LayerCount: 2
Fore
SplineSet
493 39 m 6
 522 41 l 2
 539.954 42.2383 550 35 550 20 c 2
 550 -91 l 2
 550 -108 544 -118 528 -118 c 0
 516 -118 510 -108 510 -91 c 2
 510 0 l 1
 493 39 l 6
50 20 m 0
EndSplineSet
Refer: 88 120 N 1 0 0 1 0 0 2
Validated: 37
EndChar

StartChar: uni04B4
Encoding: 451 1204 451
Width: 600
Flags: HMW
HStem: 0 41<89 124 98 124 164 434 476 508> 522 41<68 220 76 124 164 164 164 220 380 434 476 476 476 522>
VStem: 124 40<41 522 41 522> 434 42<41 522 41 522> 508 42<-119 0 0 0>
LayerCount: 2
Fore
SplineSet
124 0 m 6
 124 563 l 2
 163 563 l 2
 164 41 l 1
 434 41 l 1
 434 563 l 2
 476 563 l 2
 476 41 l 1
 550 41 l 1
 550 -119 l 2
 550 -137 542 -146 530 -146 c 0
 516 -146 508 -137 508 -119 c 2
 508 0 l 1
 124 0 l 6
EndSplineSet
Validated: 1
EndChar

StartChar: uni04B5
Encoding: 452 1205 452
Width: 600
Flags: HMW
HStem: 0 41<89 132 98 132 174 440 481 496> 376 42<77 218 88 132 174 174 174 218 406 440 481 481 481 514>
VStem: 132 42<41 376 41 376> 440 41<41 376 41 376> 496 40<-91 0 0 0>
LayerCount: 2
Fore
SplineSet
132 0 m 6
 132 418 l 2
 174 418 l 2
 174 41 l 1
 440 41 l 1
 440 418 l 2
 481 418 l 2
 481 41 l 1
 536 41 l 1
 536 -91 l 2
 536 -108 530 -118 514 -118 c 0
 502 -118 496 -108 496 -91 c 2
 496 0 l 1
 132 0 l 6
EndSplineSet
Validated: 1
EndChar

StartChar: uni04B6
Encoding: 453 1206 453
Width: 600
Flags: HMW
HStem: 0 41<349 412 358 412 453 484> 198 41<268 319> 522 41<92 221 101 126 167 167 167 221 358 412 453 453 453 478>
VStem: 126 41<290 522 290 522 290 522> 412 41<41 241 241 241 292 522> 484 42<-98 0 0 0>
LayerCount: 2
Fore
SplineSet
455 41 m 0
 500 41 l 2
 518 41 528 33 528 21 c 2
 528 -98 l 2
 528 -116 520 -125 508 -125 c 0
 494 -125 486 -116 486 -98 c 2
 486 0 l 1
 434 0 l 6
 416 0 455 27 455 41 c 0
EndSplineSet
Refer: 470 1227 N 1 0 0 1 0 0 2
Validated: 37
EndChar

StartChar: uni04B7
Encoding: 454 1207 454
Width: 600
Flags: HMW
HStem: 0 41<361 404 370 404 445 465> 141 41<302 302> 376 41<114 243 123 157 198 198 198 243 370 404 445 445 445 479>
VStem: 157 41<215 376 215 376 215 376> 404 41<41 172 172 172 217 376> 465 41<-91 0 0 0>
LayerCount: 2
Fore
SplineSet
442 41 m 4
 477 41 l 2
 495 41 504 34 504 21 c 2
 504 -91 l 2
 504 -108 499 -118 483 -118 c 0
 470 -118 463 -109 463 -91 c 2
 463 0 l 1
 421 0 l 2
 403 0 442 27 442 41 c 4
EndSplineSet
Refer: 471 1228 N 1 0 0 1 0 0 2
Validated: 37
EndChar

StartChar: uni04B8
Encoding: 455 1208 455
Width: 600
Flags: HMW
HStem: 0 41<350 414 358 414 455 500> 522 41<93 220 102 128 170 170 170 220 358 414 455 455 455 480>
VStem: 128 42<289 522 289 522 289 522> 276 42<108 198 198 198 241 344> 414 41<41 242 242 242 292 522 41 522>
LayerCount: 2
Fore
SplineSet
276 344 m 1
 276 363 284 373 296 373 c 0
 310 373 318 363 318 344 c 1
 318 108 l 2
 318 91 310 82 296 82 c 0
 284 82 276 91 276 108 c 2
 276 344 l 1
EndSplineSet
Refer: 470 1227 N 1 0 0 1 0 0 2
Validated: 5
EndChar

StartChar: uni04B9
Encoding: 456 1209 456
Width: 600
Flags: HMW
HStem: 0 41<359 402 368 402 443 478> 142 42<260 280 260 280 260 320> 376 42<113 240 122 156 196 196 196 240 368 402 443 443 443 478>
VStem: 156 40<215 376 215 376 215 376> 280 40<86 142 184 241> 402 41<41 173 173 173 217 376 41 376>
LayerCount: 2
Fore
SplineSet
280 240 m 1
 280 253 288 258 302 258 c 0
 316 258 320 253 320 240 c 1
 320 86 l 2
 320 74 316 68 302 68 c 0
 288 68 280 74 280 86 c 2
 280 240 l 1
EndSplineSet
Refer: 471 1228 N 1 0 0 1 0 0 2
Validated: 5
EndChar

StartChar: uni04BA
Encoding: 457 1210 457
Width: 600
Flags: HMW
HStem: 0 41<114 146 124 146 189 242 380 434 475 500> 324 41<282 333> 522 41<93 242 102 146 189 189 189 242>
VStem: 146 43<41 270 322 522> 434 41<41 274 274 274>
LayerCount: 2
Fore
SplineSet
189 563 m 6
 189 322 l 1
 204 343 256 365 308 365 c 0
 382 365 458 358 475 281 c 1
 475 0 l 2
 434 0 l 2
 434 274 l 1
 420 319 362 324 304 324 c 0
 254 324 213 302 189 270 c 1
 189 0 l 2
 146 0 l 2
 146 563 l 2
 189 563 l 6
EndSplineSet
Validated: 1
EndChar

StartChar: uni04BB
Encoding: 458 1211 458
Width: 600
Flags: HMW
HStem: 0 41<113 156 122 156 122 196 196 230 356 402 443 478> 236 39<298 320> 376 42<113 230 122 156 196 196 196 230>
VStem: 156 40<41 200 245 376> 402 41<41 201 201 201>
LayerCount: 2
Fore
SplineSet
443 0 m 6
 402 0 l 2
 402 201 l 1
 398 225 342 236 298 236 c 0
 256 234 212 217 196 200 c 1
 196 0 l 1
 156 0 l 2
 156 418 l 2
 196 418 l 2
 196 245 l 1
 220 264 256 275 298 275 c 0
 368 275 443 275.062 443 203 c 2
 443 0 l 6
EndSplineSet
Validated: 33
EndChar

StartChar: uni04C1
Encoding: 464 1217 464
Width: 600
Flags: HMW
HStem: 0 41<28 60 36 60 36 92 250 280 321 348 538 564> 522 41<29 126 38 58 108 108 108 126 250 280 321 348 321 321 474 492 542 542 542 560> 604 41<272 327 272 341>
VStem: 280 41<41 286 41 286 336 522>
LayerCount: 2
Fore
SplineSet
176 733 m 0
 188 733 192 726 196 711 c 1
 200 673 244 645 300 645 c 0
 354 645 400 673 404 711 c 0
 406 726 412 733 424 733 c 0
 436 733 444 725 444 711 c 0
 444 651 382 604 300 604 c 0
 220 604 156 651 156 711 c 0
 156 725 162 733 176 733 c 0
EndSplineSet
Refer: 322 1046 N 1 0 0 1 0 0 2
Validated: 5
EndChar

StartChar: uni04C2
Encoding: 465 1218 465
Width: 600
Flags: HMW
HStem: 0 41<28 64 38 64 110 140 244 280 321 354 462 490 536 562> 376 42<39 146 48 66 126 126 126 146 244 280 321 321 321 354 454 476 534 534 534 552> 458 39<272 327 272 341>
VStem: 280 41<41 190 41 190 241 376>
LayerCount: 2
Fore
SplineSet
176 588 m 0
 188 588 192 580 196 566 c 1
 200 527 244 497 300 497 c 0
 354 497 400 527 404 566 c 0
 406 580 412 588 424 588 c 0
 436 588 444 577 444 564 c 0
 444 503 382 458 300 458 c 0
 218 458 156 503 156 564 c 0
 156 577 162 588 176 588 c 0
EndSplineSet
Refer: 355 1078 N 1 0 0 1 0 0 2
Validated: 1
EndChar

StartChar: uni04C8
Encoding: 469 1224 469
Width: 600
Flags: HMW
HStem: 0 41<80 122 90 122 164 208 384 430 471 512> 184 41<164 430 164 430> 376 42<80 208 90 122 164 208 164 164 384 430 471 471 471 512>
VStem: 122 42<41 184 225 376> 430 41<41 184 184 184 225 376 41 376>
LayerCount: 2
Fore
SplineSet
471 0 m 6
 430 0 l 2
 430 184 l 1
 164 184 l 1
 164 0 l 2
 122 0 l 2
 122 418 l 2
 164 418 l 2
 164 225 l 1
 430 225 l 1
 430 418 l 1
 471 418 l 2
 471 0 l 6
EndSplineSet
Validated: 1
EndChar

StartChar: uni04CB
Encoding: 470 1227 470
Width: 600
Flags: HMW
HStem: 0 41<350 414 358 414 455 500> 198 41<269 319> 522 41<93 220 102 128 170 170 170 220 358 414 455 455 455 480>
VStem: 128 42<289 522 289 522 289 522> 414 41<41 242 242 242 292 522 41 522>
LayerCount: 2
Fore
SplineSet
455 0 m 6
 414 0 l 2
 414 242 l 1
 396 219 344 198 294 198 c 0
 220 198 142 204 128 281 c 1
 128 563 l 2
 170 563 l 2
 170 289 l 1
 180 244 242 239 296 239 c 0
 348 239 390 261 414 292 c 1
 413 563 l 2
 455 563 l 2
 455 0 l 6
EndSplineSet
Validated: 1
EndChar

StartChar: uni04CC
Encoding: 471 1228 471
Width: 600
Flags: HMW
HStem: 0 41<359 402 368 402 443 478> 142 40<302 302> 376 42<113 240 122 156 196 240 196 196 368 402 443 443 443 478>
VStem: 156 40<215 376 215 376 215 376> 402 41<41 173 173 173 217 376 41 376>
LayerCount: 2
Fore
SplineSet
402 0 m 6
 402 173 l 1
 380 151 344 142 302 142 c 0
 232 142 156 141.973 156 214 c 2
 156 418 l 2
 196 418 l 2
 196 215 l 1
 201 192 256 181 302 182 c 0
 344 184 388 200 402 217 c 1
 402 418 l 1
 443 418 l 2
 443 0 l 2
 402 0 l 6
EndSplineSet
Validated: 33
EndChar

StartChar: uni04D0
Encoding: 472 1232 472
Width: 600
Flags: HMW
HStem: 0 41<28 66 36 66 108 188 408 484 528 564> 189 41<178 412 178 428 162 412> 522 41<117 330 126 248 286 286 286 300> 630 41<272 327 272 341>
LayerCount: 2
Fore
SplineSet
176 759 m 0
 188 759 192 753 196 739 c 1
 200 701 244 671 300 671 c 0
 354 671 400 701 404 739 c 0
 406 753 412 759 424 759 c 0
 436 759 444 751 444 737 c 0
 444 677 382 630 300 630 c 0
 220 630 156 677 156 737 c 0
 156 751 162 759 176 759 c 0
EndSplineSet
Refer: 33 65 S 1 0 0 1 0 0 2
Validated: 1
EndChar

StartChar: uni04D1
Encoding: 473 1233 473
Width: 600
Flags: HMW
HStem: -16 41<185 256 185 257> 217 41<231 299 213 306> 390 41<274 326> 498 41<274 329 274 343>
VStem: 66 41<85 141.5 85 156> 412 43<41 66 66 66 112 201 201 201 237 308 41 332.5>
LayerCount: 2
Fore
SplineSet
184 627 m 0
 196 627 200 621 204 607 c 1
 208 569 252 539 308 539 c 0
 362 539 408 569 412 607 c 0
 414 621 420 627 432 627 c 0
 444 627 452 619 452 605 c 0
 452 545 390 498 308 498 c 0
 228 498 164 545 164 605 c 0
 164 619 170 627 184 627 c 0
EndSplineSet
Refer: 65 97 N 1 0 0 1 0 0 2
Validated: 1
EndChar

StartChar: uni04D8
Encoding: 480 1240 480
Width: 600
Flags: MW
HStem: -16 41<266 333> 253 39<99 500 99 99> 434 21G<85 94> 535 42<250 341>
VStem: 58 41<236 242 242 253 182.5 292> 500 43<242 253 253 253 292 311 311 318>
LayerCount: 2
Fore
SplineSet
500 253 m 1
 99 253 l 1
 99 242 l 2
 99 123 188 25 300 25 c 0
 410 25 500 123 500 242 c 2
 500 253 l 1
500 292 m 1
 500 311 l 2
 500 432 400 535 282 535 c 0
 214 535 164 508 108 445 c 0
 100 437 98 434 90 434 c 0
 80 434 70 443 70 454 c 0
 70 464 82 481 108 505 c 0
 158 550 218 577 282 577 c 0
 420 577 543 453 543 318 c 2
 543 236 l 2
 543 173 514 104 472 58 c 0
 426 9 366 -16 300 -16 c 0
 232 -16 174 9 128 58 c 0
 84 104 58 173 58 236 c 2
 58 292 l 1
 500 292 l 1
EndSplineSet
Validated: 1
EndChar

StartChar: afii10846
Encoding: 481 1241 481
Width: 600
Flags: MW
HStem: -16 41<247 355 247 367> 189 41<112 488 112 112> 390 41<273 354>
LayerCount: 2
Fore
SplineSet
488 230 m 1
 480 324 406 390 302 390 c 0
 232 390 168 366 116 318 c 0
 108 310 106 308 98 308 c 0
 88 308 78 316 78 327 c 0
 78 338 94 357 122 376 c 0
 174 412 240 431 306 431 c 0
 436 431 530 338 530 211 c 0
 530 79 434 -16 300 -16 c 0
 166 -16 70 79 70 211 c 0
 70 338 70 230 70 230 c 1
 488 230 l 1
488 189 m 1
 112 189 l 1
 122 91 192 25 302 25 c 0
 408 25 480 91 488 189 c 1
EndSplineSet
Validated: 37
EndChar

StartChar: uni04E2
Encoding: 490 1250 490
Width: 600
Flags: HMW
HStem: 0 41<71 124 80 124 165 220 382 434 476 522> 522 41<91 220 100 124 165 165 165 220 382 434 476 476 476 502> 604 39<173 418 182 418>
VStem: 124 41<41 108 162 522> 434 42<41 377 377 377 429 522 41 522>
LayerCount: 2
Fore
SplineSet
418 604 m 2
 182 604 l 2
 164 604 156 610 156 623 c 0
 156 635 164 643 182 643 c 2
 418 643 l 2
 436 643 446 635 446 623 c 0
 446 610 436 604 418 604 c 2
EndSplineSet
Refer: 324 1048 N 1 0 0 1 0 0 2
Validated: 1
EndChar

StartChar: uni04E8
Encoding: 496 1256 496
Width: 600
Flags: MW
HStem: -16 41<245 354 245 369> 259 41<94 508 94 508> 535 42<245 355>
LayerCount: 2
Fore
SplineSet
300 577 m 0
 440 577 550 447 550 275 c 0
 550 115 438 -16 300 -16 c 0
 162 -16 50 115 50 280 c 0
 50 445 162 577 300 577 c 0
508 300 m 1
 498 434 410 535 300 535 c 0
 190 535 102 431 94 300 c 1
 508 300 l 1
508 259 m 1
 94 259 l 1
 102 129 190 25 300 25 c 0
 408 25 500 131 508 259 c 1
EndSplineSet
Validated: 1
EndChar

StartChar: uni04E9
Encoding: 497 1257 497
Width: 600
Flags: MW
HStem: -16 41<252 348 252 363> 184 41<114 486 114 486> 390 41<250 350>
LayerCount: 2
Fore
SplineSet
300 431 m 0
 428 431 528 332 528 204 c 0
 528 82 426 -16 300 -16 c 0
 172 -16 72 82 72 208 c 0
 72 332 172 431 300 431 c 0
486 225 m 1
 476 321 400 390 300 390 c 0
 200 390 124 316 114 225 c 1
 486 225 l 1
486 184 m 1
 114 184 l 1
 126 93 204 25 300 25 c 0
 396 25 476 94 486 184 c 1
EndSplineSet
Validated: 1
EndChar

StartChar: uniF6C4
Encoding: 512 -1 512
Width: 600
Flags: MW
HStem: 0 41<132 186 142 186 227 274> 376 42<143 485 152 186 227 444 227 227>
VStem: 186 41<41 376 41 376> 444 41<285 376 376 376>
LayerCount: 2
Fore
SplineSet
485 285 m 2
 485 269 480 258 464 258 c 0
 450 258 444 267 444 285 c 2
 444 376 l 1
 227 376 l 1
 227 41 l 1
 274 41 l 2
 290 41 300 35 300 20 c 0
 300 8 290 0 274 0 c 2
 142 0 l 2
 122 0 114 8 114 20 c 0
 114 35 122 41 142 41 c 2
 186 41 l 1
 186 376 l 1
 152 376 l 2
 134 376 126 384 126 396 c 0
 126 410 134 418 152 418 c 2
 485 418 l 1
 485 285 l 2
EndSplineSet
Validated: 1
EndChar

StartChar: uniF6C5
Encoding: 513 -1 513
Width: 600
Flags: W
HStem: -16 41 390 37
VStem: 81 41<210 258.5 157.5 264> 442 42<562 600> 478 41<156 257>
LayerCount: 2
Fore
SplineSet
484 520 m 1xf0
 323 546 201 511 197 470 c 0
 195 454 212 441 251 427 c 1
 272 428 286 430 302 431 c 0
 424 431 519 334 519 210 c 0xe8
 519 85 427 -15 302 -16 c 0
 176 -17 82 82 81 210 c 0
 81 318 147 378 189 400 c 1
 164 422 148 445 148 466 c 0
 149 574 303 572 442 562 c 1
 442 600 l 2
 442 618 450 626 464 626 c 0
 476 626 484 618 484 600 c 2
 484 520 l 1xf0
300 390 m 0
 201 390 122 309 122 208 c 0
 122 107 201 25 300 25 c 0
 397 25 478 107 478 205 c 0
 478 309 400 390 300 390 c 0
EndSplineSet
Validated: 33
EndChar

